<?xml version="1.0" encoding="utf-8"?>
<!-- Generator: Adobe Illustrator 21.0.0, SVG Export Plug-In . SVG Version: 6.00 Build 0)  -->
<svg version="1.1" id="Layer_1" xmlns="http://www.w3.org/2000/svg" xmlns:xlink="http://www.w3.org/1999/xlink" x="0px" y="0px"
	 viewBox="0 0 256 256" style="enable-background:new 0 0 256 256;" xml:space="preserve">
<style type="text/css">
	.st0{fill-rule:evenodd;clip-rule:evenodd;}
</style>
<path class="st0" d="M100.6,21.1c31.3,0.7,48.8,21,60.3,42c2.2,4.1,12.3,24,7.6,27.3c-0.8,0.2-1.7,0.3-2.5,0.5
	c-10.7-14.8-22.8-8.5-33.4,0c-0.7,0-1.4,0-2,0c-7.1-9.9-18.8-13.5-29.9-6.1c0,26.7,0,53.3,0,80c0,9.4,3.2,28.5-7.6,22.8
	c-0.2-33.9-0.3-67.9-0.5-101.8c-10.8-3.8-21.8-6.7-29.9,2.5c-16-4.7-19.8-14.4-33.4,2.5c-0.8-0.2-1.7-0.3-2.5-0.5
	c-0.5-0.3-1-0.7-1.5-1C26.7,56,57.8,22.4,92.5,21.1c0.2-1.9,0.3-3.7,0.5-5.6c1.8-3.8,5.2-2.4,7.6-0.5
	C100.6,17.1,100.6,19.1,100.6,21.1z M90,26.7c-5.6,1.4-11.1,2.7-16.7,4.1c-20.4,8.3-31.5,25.8-39.5,46.6c11.2-3.9,19.4-1.1,27.3,4.6
	c3-8.9,6.1-17.9,9.1-26.8C75.3,43.4,84,35.4,92,26.7C91.4,26.7,90.7,26.7,90,26.7z M100.6,26.7c0,17,0,34.1,0,51.1
	c11.8-7.4,21.6-1,30.4,5.1C131.2,64.1,113.6,30.7,100.6,26.7z"/>
<g>
	<path class="st0" d="M203.4,18.6c-2-0.3-1.5,0-2.5-1c-1.1-1.9-1.6-4.3-1-6.6c0.2,0,0.3,0,0.5,0c0.7,0.2,1.4,0.3,2,0.5
		C202.8,13.9,203.1,16.2,203.4,18.6z"/>
	<path class="st0" d="M215.1,13c-0.2,3.6-1.5,5.4-3.5,7.1c-0.5-0.2-1-0.3-1.5-0.5c0-0.8,0-1.7,0-2.5c0.8-1.4,1.7-2.7,2.5-4.1
		C213.4,13,214.3,13,215.1,13z"/>
	<path class="st0" d="M189.8,18.6c2,1.2,4.1,2.4,6.1,3.5c-0.2,0.7-0.3,1.4-0.5,2c-0.7,0-1.4,0-2,0c-1.5-1-3-2-4.6-3c0-0.7,0-1.4,0-2
		C189.1,18.9,189.4,18.8,189.8,18.6z"/>
	<path class="st0" d="M204,21.1c1.7,0.3,3.4,0.7,5.1,1c1,1.2,2,2.4,3,3.5c1.5,2.5,0.8,5.4,0,8.1c-3.4,2.6-5.6,3.7-10.6,2.5
		c-2.9-2-4.1-4-4.1-9.1C199.1,23.7,200.6,23,204,21.1z"/>
	<path class="st0" d="M221.2,23.2c0.7,0.2,1.4,0.3,2,0.5c-0.4,2.3,0.1,1.5-1.5,2.5c-2.3,1.6-4.8,1.9-6.6,0c0.3-0.5,0.7-1,1-1.5
		C217.8,24.2,219.5,23.7,221.2,23.2z"/>
	<path class="st0" d="M191.3,30.8c1.2,0.2,2.4,0.3,3.5,0.5c0,0.2,0,0.3,0,0.5c-0.3,0.7-0.7,1.4-1,2c-2,0.3-4.1,0.7-6.1,1
		c0-1,0-2,0-3C188.9,31.4,190.1,31.1,191.3,30.8z"/>
	<path class="st0" d="M215.1,33.8c2,1,4.1,2,6.1,3c-0.6,2.7,0.1,1.9-2.5,2.5c-1.5-1-3-2-4.6-3c0-0.7,0-1.4,0-2
		C214.4,34.1,214.8,34,215.1,33.8z"/>
	<path class="st0" d="M197.9,38.3c0.5,0,1,0,1.5,0c0.3,0.3,0.7,0.7,1,1c-1,2-2,4.1-3,6.1c-1.8-0.3-1.5-0.2-2.5-1
		C195.9,42.4,196.9,40.4,197.9,38.3z"/>
	<path class="st0" d="M210.5,47c-1-0.2-2-0.3-3-0.5c-0.3-2-0.7-4.1-1-6.1c0.5-0.3,1-0.7,1.5-1c0.5,0.3,1,0.7,1.5,1
		C209.9,42.6,210.2,44.8,210.5,47z"/>
</g>
<path class="st0" d="M188.3,83.9c25,0.1,25.4,33.8,2.5,37c-12.7,1.8-23-12.6-18.2-25.3C175.3,88.2,181,87,188.3,83.9z"/>
<path class="st0" d="M119.4,164.9c-0.7-6.2-1.4-12.5-2-18.7c-1,0-2,0-3,0c0-1.2,0-2.4,0-3.5c3.2,0,6.4,0,9.6,0c0-2,0-4.1,0-6.1
	c6.1-3,12.2-6.1,18.2-9.1c0.3,1,0.7,2,1,3c-5.2,2.9-10.5,5.7-15.7,8.6c0,1.2,0,2.4,0,3.5c3.2,0,6.4,0,9.6,0c0,1.2,0,2.4,0,3.5
	c-1,0-2,0-3,0c-0.3,3.7-0.7,7.4-1,11.1c8.8,0,17.6,0,26.3,0c2.8-9.6,14.7-40,28.4-34.4c3.1,1.3,5.9,3,7.1,6.1
	c2.6,6.7-2.4,13.9-4.6,18.2c-5.1,10-23.4,55.4-31.4,58.2c-13.8,0.2-27.7,0.3-41.5,0.5c-5.2,7.1-43.1,52-50.6,26.3
	c-3.2-11,10.2-18.3,14.7-22.8c6.4-6.4,20.3-24.6,28.9-26.8c12.3,0,24.6,0,37,0c2.2-4.7,4.4-9.5,6.6-14.2c0-0.2,0-0.3,0-0.5
	c-8.8,0-17.6,0-26.3,0C124.1,167.2,124.2,165.2,119.4,164.9z"/>
<path class="st0" d="M177.6,246.5c0-10.5,0-20.9,0-31.4c-9.1,7.5-39.2,3.7-54.7,3.5c-4.2,5.7-25.4,28.6-32.4,29.4
	c-2.7-1.2-5.4-3.6-3.5-7.6c2.2-4.4,28.7-31.3,32.9-32.4c15-3.9,38.5,5.4,50.6-1.5c12.3-17.6,24.6-35.1,37-52.7
	c5.8-8.2,10-18.6,18.2-24.3c3.3,0.5,4.1,1.5,6.1,3c0,0.2,0,0.3,0,0.5c-0.1,7.8-5.4,10.9-8.6,15.7c-11.6,16.7-23.3,33.4-34.9,50.1
	c0,15.9,0,31.7,0,47.6c-0.2,0-0.3,0-0.5,0C184.4,246.5,181,246.5,177.6,246.5z"/>
</svg>
