<?xml version="1.0" encoding="utf-8"?>
<!-- Generator: Adobe Illustrator 21.0.0, SVG Export Plug-In . SVG Version: 6.00 Build 0)  -->
<svg version="1.1" id="Layer_1" xmlns="http://www.w3.org/2000/svg" xmlns:xlink="http://www.w3.org/1999/xlink" x="0px" y="0px"
	 viewBox="0 0 156.4 109.6" style="enable-background:new 0 0 156.4 109.6;" xml:space="preserve">
<style type="text/css">
	.st0{fill-rule:evenodd;clip-rule:evenodd;fill:#00285D;}
	.st1{fill-rule:evenodd;clip-rule:evenodd;fill:#231F20;}
	.st2{fill-rule:evenodd;clip-rule:evenodd;fill:#D0D2D3;}
	.st3{fill-rule:evenodd;clip-rule:evenodd;fill:#58595B;}
	.st4{fill-rule:evenodd;clip-rule:evenodd;fill:#929497;}
	.st5{fill:none;stroke:#231F20;stroke-width:0.4252;stroke-miterlimit:2.6131;}
</style>
<g>
	<path class="st0" d="M27.2,78.1h5.8c0.6,0,1.2-0.4,1.4-1l0.2-0.6h-3.1l1.5-3.4h8.1l0,0L38,80.7c-0.6,1.4-1.6,2.4-3.5,2.3l-14.6,0
		l7.4-17.3c0.6-1.4,1.6-2.3,3.5-2.3l14.6,0l-3.5,8.1h-5l1.4-3.3h-6.4c-0.2,0-0.5,0.2-0.6,0.4L27.2,78.1L27.2,78.1z"/>
	<path class="st0" d="M28.5,56.4l-14.6,0c-1.9-0.1-2.8,0.9-3.5,2.3c-0.2,0.5-0.6,1.5-1.1,2.6L0,82.9l14.7,0c1.9,0,2.8-0.9,3.5-2.3
		c0.2-0.5,0.6-1.5,1.1-2.6l-12,0l2.5-5.7h6.8l2.1-4.9h-6.8l2.4-5.6c0.1-0.2,0.4-0.4,0.6-0.4h6.4l5.1,0L28.5,56.4L28.5,56.4z"/>
	<path class="st0" d="M136.8,71.5h5.8c0.6,0,1.2-0.5,1.4-1l1-2.4h-6.4c-0.2,0-0.5,0.2-0.6,0.4L136.8,71.5L136.8,71.5z M137.2,76.5
		h-2.6c-0.8,1.9-1.5,3.4-1.8,4.2c-0.6,1.4-1.6,2.3-3.5,2.3h-2.7l2.7-6.4c1.9-4.5,4-9.3,4.7-10.9c0.6-1.4,1.6-2.4,3.5-2.3l14.6,0
		c-1.9,4.5-4,9.3-4.7,10.9c-0.6,1.4-1.6,2.4-3.5,2.3l4.5,6.4h-7L137.2,76.5L137.2,76.5z"/>
	<path class="st0" d="M62.5,63.3l2.7,0c-1.9,4.5-4,9.3-4.7,10.9c-0.6,1.4-1.6,2.4-3.4,2.3l-3.4,0c-0.8,1.9-1.5,3.4-1.8,4.2
		c-0.6,1.4-1.6,2.4-3.4,2.3l-2.7,0l2.8-6.4h-6c1.9-4.5,4-9.3,4.7-10.9c0.6-1.4,1.6-2.4,3.4-2.3l2.7,0l-3.5,8.2l5.8,0
		c0.5,0,1.2-0.5,1.4-1c0.7-1.6,1.3-3.3,2.1-4.9C59.7,64.2,60.6,63.3,62.5,63.3L62.5,63.3z"/>
	<path class="st0" d="M118.8,82.9l2.7,0c1.8,0.1,2.8-0.9,3.5-2.3l7.4-17.3l-2.7,0c-1.8-0.1-2.8,0.9-3.5,2.3
		c-0.7,1.6-2.8,6.5-4.7,10.9L118.8,82.9L118.8,82.9z"/>
	<path class="st0" d="M69.6,71.5h5.7c0.5,0,1.2-0.5,1.4-1l1-2.4h-6.3c-0.2,0-0.5,0.2-0.6,0.4L69.6,71.5L69.6,71.5z M67.4,76.5l9.4,0
		c1.9,0,2.8-0.9,3.4-2.3c0.7-1.6,2.8-6.5,4.7-10.9l-14.6,0c-1.9,0-2.8,0.9-3.4,2.3l-7.4,17.3l2.7,0c1.9,0,2.8-0.9,3.4-2.3
		C66,79.9,66.6,78.4,67.4,76.5L67.4,76.5z"/>
	<path class="st0" d="M85.2,82.9l2.7,0c1.8,0.1,2.8-0.9,3.4-2.3c0.7-1.5,2.7-6.2,4.5-10.6c0-0.1,0.8-1.9,0.9-2h6l2-4.8l-14.6,0
		c-1.9-0.1-2.8,0.9-3.5,2.3l-1.1,2.5l5.9,0L85.2,82.9L85.2,82.9z"/>
	<path class="st0" d="M109.1,71.5h5.7c0.6,0,1.2-0.5,1.4-1l1-2.4h-6.3c-0.2,0-0.5,0.2-0.6,0.4L109.1,71.5L109.1,71.5z M113.6,76.5
		h-6.7c-0.8,1.9-1.5,3.4-1.8,4.2c-0.6,1.4-1.6,2.4-3.5,2.3l-2.6,0l2.7-6.4c1.9-4.5,4-9.3,4.7-10.9c0.6-1.4,1.5-2.3,3.5-2.3l14.6,0
		L117,80.7c-0.6,1.4-1.6,2.4-3.5,2.3h-2.6L113.6,76.5L113.6,76.5z"/>
	<polygon class="st1" points="153.8,101.9 154,101.9 154,100.8 154.5,100.8 154.5,100.6 153.3,100.6 153.3,100.8 153.8,100.8 
		153.8,101.9 	"/>
	<polygon class="st1" points="156.2,100.6 156.4,100.6 156.4,101.9 156.2,101.9 156.2,100.8 156.2,100.8 155.6,101.9 155.5,101.9 
		154.9,100.8 154.9,100.8 154.9,101.9 154.8,101.9 154.8,100.6 155,100.6 155.6,101.8 156.2,100.6 	"/>
	<path class="st2" d="M140.8,99.5c0.5-0.7,1.1-1.4,1.7-2.1c0.6-0.7,1.3-1.3,2-1.8l-0.8,3L140.8,99.5L140.8,99.5z"/>
	<path class="st3" d="M146.1,100.8c-0.9-0.1-1.8-0.2-2.7-0.5c-0.9-0.2-1.8-0.5-2.6-0.8l3-0.9L146.1,100.8L146.1,100.8z"/>
	<path class="st4" d="M144.6,95.6c0.4,0.8,0.7,1.7,0.9,2.5c0.3,0.9,0.4,1.8,0.6,2.7l-2.3-2.2L144.6,95.6L144.6,95.6z"/>
	<path class="st4" d="M139.8,105.8c-0.5-0.7-1-1.5-1.4-2.3c-0.4-0.8-0.8-1.6-1.1-2.5l2.7,1.7L139.8,105.8L139.8,105.8z"/>
	<path class="st3" d="M142.6,101.2c-0.4,0.8-0.8,1.6-1.3,2.4c-0.5,0.8-1,1.5-1.6,2.2l0.1-3.1L142.6,101.2L142.6,101.2z"/>
	<path class="st2" d="M137.2,101c0.9-0.1,1.8-0.1,2.7-0.1c0.9,0,1.8,0.1,2.7,0.3l-2.8,1.5L137.2,101L137.2,101z"/>
	<path class="st3" d="M145.4,108.7c-0.8,0.3-1.7,0.5-2.6,0.7c-0.9,0.2-1.8,0.3-2.7,0.3l2.4-2L145.4,108.7L145.4,108.7z"/>
	<path class="st4" d="M141.9,104.6c0.7,0.6,1.3,1.2,1.9,1.9c0.6,0.7,1.1,1.4,1.6,2.2l-2.9-1.1L141.9,104.6L141.9,104.6z"/>
	<path class="st2" d="M140,109.6c0.2-0.9,0.4-1.7,0.7-2.6c0.3-0.9,0.7-1.7,1.1-2.5l0.5,3.1L140,109.6L140,109.6z"/>
	<path class="st4" d="M149.9,104.3c0,0.9-0.1,1.8-0.2,2.7c-0.1,0.9-0.3,1.8-0.6,2.7l-1.2-2.9L149.9,104.3L149.9,104.3z"/>
	<path class="st2" d="M144.9,106.3c0.8-0.4,1.6-0.8,2.4-1.2c0.9-0.3,1.7-0.6,2.6-0.8l-1.9,2.5L144.9,106.3L144.9,106.3z"/>
	<path class="st3" d="M149.1,109.6c-0.8-0.4-1.5-0.9-2.3-1.5c-0.7-0.6-1.4-1.2-2-1.8l3.1,0.4L149.1,109.6L149.1,109.6z"/>
	<path class="st4" d="M147.1,98.6c0.9,0.3,1.7,0.6,2.5,1c0.8,0.4,1.6,0.9,2.4,1.4l-3.1,0.2L147.1,98.6L147.1,98.6z"/>
	<path class="st2" d="M147.5,104c-0.2-0.9-0.3-1.8-0.4-2.7c-0.1-0.9-0.1-1.8,0-2.7l1.8,2.6L147.5,104L147.5,104z"/>
	<path class="st3" d="M152,101c-0.7,0.6-1.4,1.2-2.1,1.7c-0.8,0.5-1.6,1-2.4,1.4l1.4-2.8L152,101L152,101z"/>
	<polygon class="st1" points="95.6,100.5 96.4,100.5 96.4,106.3 95.8,106.3 95.8,101.3 95.8,101.3 93.3,106.3 92.7,106.3 
		90.2,101.3 90.2,101.3 90.2,106.3 89.6,106.3 89.6,100.5 90.4,100.5 93,105.5 95.6,100.5 	"/>
	<path class="st1" d="M9.4,104.4c0,0.6,0.2,1,0.5,1.3c0.4,0.4,1.2,0.7,2.2,0.7c0.6,0,2.5-0.1,2.5-1.7c0-1.4-1.3-1.5-2.4-1.6l0,0
		c-1.2-0.1-2-0.2-2-1c0-0.4,0.2-0.7,0.6-0.9c0.4-0.2,0.9-0.2,1.4-0.2c0.4,0,1,0.1,1.4,0.4c0.2,0.2,0.3,0.5,0.3,0.7l0.6,0
		c0-0.4-0.1-0.8-0.4-1.1c-0.5-0.5-1.3-0.6-1.9-0.6c-0.8,0-1.6,0.2-2.1,0.7c-0.3,0.3-0.4,0.6-0.4,0.9c0,1.4,1.4,1.5,2.5,1.6
		c0.5,0,1,0.1,1.4,0.2c0.4,0.2,0.6,0.4,0.6,0.9c0,0.3-0.1,0.5-0.3,0.7c-0.4,0.4-1.3,0.5-1.6,0.5c-0.8,0-1.4-0.2-1.7-0.5
		c-0.2-0.2-0.4-0.5-0.4-1H9.4L9.4,104.4z M15.5,100.5v0.6c0,0,2,0,2.2,0c0,0.2,0,5.2,0,5.2h0.6c0,0,0-5,0-5.2c0.2,0,2.2,0,2.2,0
		v-0.6H15.5L15.5,100.5z M23.4,100.5l-2.6,5.8h0.7c0,0,0.8-1.6,0.8-1.8c0.1,0,2.7,0,2.9,0c0.1,0.1,0.8,1.8,0.8,1.8h0.7l-2.6-5.8
		H23.4L23.4,100.5z M23.6,101.3c0.2,0.4,1.1,2.3,1.2,2.6c-0.3,0-2.1,0-2.4,0C22.6,103.6,23.5,101.7,23.6,101.3L23.6,101.3z
		 M28.2,100.5v5.8h0.6c0,0,0-2.3,0-2.5c0.2,0,2.3,0,2.3,0c1,0,1.3,0.2,1.3,1.1c0,0.9,0.1,1.2,0.2,1.4l0,0h0.6l-0.1-0.2
		c-0.1-0.2-0.1-0.5-0.1-1.5c0-0.6-0.3-1-0.8-1.2c0.6-0.3,0.9-0.9,0.9-1.4c0-1.1-0.7-1.6-2-1.6H28.2L28.2,100.5z M31.2,101.1
		c0.9,0,1.3,0.3,1.3,1c0,0.8-0.5,1.1-1.4,1.1c0,0-2.1,0-2.3,0c0-0.2,0-1.9,0-2.1C29,101.1,31.2,101.1,31.2,101.1L31.2,101.1z
		 M40,100.5l-2.6,5.8H38c0,0,0.7-1.6,0.8-1.8c0.1,0,2.7,0,2.9,0c0.1,0.1,0.8,1.8,0.8,1.8h0.7l-2.6-5.8H40L40,100.5z M40.3,101.3
		c0.2,0.4,1.1,2.3,1.2,2.6c-0.3,0-2.1,0-2.4,0C39.2,103.6,40.1,101.7,40.3,101.3L40.3,101.3z M60.9,100.5l-2.6,5.8h0.7
		c0,0,0.7-1.6,0.8-1.8c0.1,0,2.7,0,2.9,0c0.1,0.1,0.8,1.8,0.8,1.8h0.7l-2.6-5.8H60.9L60.9,100.5z M61.2,101.3
		c0.2,0.4,1.1,2.3,1.2,2.6c-0.3,0-2.1,0-2.4,0C60.1,103.6,61,101.7,61.2,101.3L61.2,101.3z M45,100.5v5.8h4.1v-0.6c0,0-3.3,0-3.5,0
		c0-0.2,0-5.2,0-5.2H45L45,100.5z M50.5,100.5v5.8h4.1v-0.6c0,0-3.3,0-3.5,0c0-0.2,0-5.2,0-5.2H50.5L50.5,100.5z M55.8,100.5v5.8
		h0.6v-5.8H55.8L55.8,100.5z M70.5,100.5c0,0,0,4.2,0,4.8c-0.4-0.4-4.2-4.8-4.2-4.8h-0.6v5.8h0.6c0,0,0-4.2,0-4.8
		c0.4,0.4,4.2,4.8,4.2,4.8h0.6v-5.8H70.5L70.5,100.5z M80.9,100.5v5.8h4.6v-0.6c0,0-3.8,0-4,0c0-0.2,0-1.9,0-2.1c0.2,0,3.8,0,3.8,0
		V103c0,0-3.6,0-3.8,0c0-0.2,0-1.7,0-1.9c0.2,0,4,0,4,0v-0.6H80.9L80.9,100.5z M73,103.4c0,1.8,1.3,3,3.1,3c1.7,0,2.8-1.2,2.9-2.3
		l0-0.1h-0.6l0,0.1c-0.2,1.1-1.1,1.8-2.3,1.8c-1.8,0-2.5-1.3-2.5-2.4c0-1.4,1-2.4,2.5-2.4c1.1,0,1.9,0.5,2.2,1.4l0,0.1h0.6l0-0.2
		c-0.3-1.2-1.3-2-2.8-2C74,100.4,73,101.9,73,103.4L73,103.4z"/>
	<path class="st1" d="M3.2,100.5H2.6L0,106.3h0.7c0,0,0.8-1.6,0.8-1.8c0.1,0,2.8,0,2.9,0c0.1,0.1,0.8,1.8,0.8,1.8h0.7L3.2,100.5
		L3.2,100.5z M1.7,103.9c0.1-0.3,1-2.2,1.2-2.6c0.2,0.4,1.1,2.3,1.2,2.6C3.8,103.9,2,103.9,1.7,103.9L1.7,103.9z"/>
	<path class="st1" d="M98.3,100.5v5.8h4.6v-0.6c0,0-3.8,0-4,0c0-0.2,0-1.9,0-2.1c0.2,0,3.8,0,3.8,0V103c0,0-3.6,0-3.8,0
		c0-0.2,0-1.7,0-1.9c0.2,0,4,0,4,0v-0.6H98.3L98.3,100.5z"/>
	<polygon class="st1" points="110.7,100.5 111.6,100.5 111.6,106.3 111,106.3 111,101.3 111,101.3 108.4,106.3 107.9,106.3 
		105.3,101.3 105.3,101.3 105.3,106.3 104.7,106.3 104.7,100.5 105.6,100.5 108.2,105.5 110.7,100.5 	"/>
	<path class="st1" d="M114.1,101h2.6c0.7,0,1.1,0.2,1.1,0.9c0,0.8-0.5,1-1.3,1h-2.4V101L114.1,101z M113.5,106.3h3.2
		c0.9,0,1.9-0.4,1.9-1.6c0-0.7-0.5-1.3-1.2-1.4v0c0.7-0.2,1-0.7,1-1.2c0-0.8-0.5-1.5-1.6-1.5h-3.3V106.3L113.5,106.3z M114.1,103.6
		h2.7c0.7,0,1.2,0.2,1.2,1.1c0,0.8-0.6,1.1-1.4,1.1h-2.5V103.6L114.1,103.6z"/>
	<path class="st1" d="M120.4,100.5v5.8h4.6v-0.6c0,0-3.8,0-4,0c0-0.2,0-1.9,0-2.1c0.2,0,3.8,0,3.8,0V103c0,0-3.6,0-3.8,0
		c0-0.2,0-1.7,0-1.9c0.2,0,4,0,4,0v-0.6H120.4L120.4,100.5z"/>
	<path class="st1" d="M131.9,106.1c-0.1-0.2-0.1-0.5-0.1-1.5c0-0.6-0.3-1-0.8-1.2c0.6-0.3,0.9-0.9,0.9-1.4c0-1.1-0.7-1.6-2-1.6h-2.9
		v5.8h0.6c0,0,0-2.3,0-2.5c0.2,0,2.3,0,2.3,0c1,0,1.3,0.2,1.3,1.1c0,0.9,0.1,1.2,0.2,1.4l0,0h0.6L131.9,106.1L131.9,106.1z
		 M129.8,103.2c0,0-2.1,0-2.3,0c0-0.2,0-1.9,0-2.1c0.2,0,2.4,0,2.4,0c0.9,0,1.4,0.3,1.4,1C131.2,102.8,130.7,103.2,129.8,103.2
		L129.8,103.2z"/>
	<path class="st5" d="M0,89.9h152 M0,89.9h152"/>
	<line class="st5" x1="0" y1="89.9" x2="152" y2="89.9"/>
	<path class="st0" d="M86.3,12.5c1.5,1.8,3.8,2.4,5.2,1.4c0.9-0.7,1.3-1.9,1.1-3.2c0.8,0.1,1.7,0.4,2.6,0.8c0.5,0.2,1.1-1.9,0.3-1.9
		C87.4,8.4,82.9,15,83,14.9C84.2,13.9,85.3,13.1,86.3,12.5L86.3,12.5z M91,13.2c-1.1,0.9-2.9,0.3-4.1-1.1c1.7-1,3.1-1.5,4.7-1.5
		C91.8,11.6,91.6,12.7,91,13.2L91,13.2z"/>
	<path class="st0" d="M50.4,16.1c1.4-4.6,3.8-8.7,7-12.2c14-5.9,32.1-5.9,45.6,5C94.6,4.6,69.4,0,50.4,16.1L50.4,16.1z"/>
	<path class="st0" d="M49.6,31.1c-0.6-3.3-0.7-6.7-0.3-10.1C59.3,11,74.1,4.4,89.7,7.6C81.2,7.6,60.7,13.5,49.6,31.1L49.6,31.1z"/>
	<path class="st0" d="M54.9,43.5c-1.6-2.3-3-4.8-4-7.6c5.9-12.5,17.3-23.3,32.6-25.7C75.9,13.1,60,24.8,54.9,43.5L54.9,43.5z"/>
	<path class="st0" d="M64.5,52.4c-2.3-1.4-4.5-3.1-6.4-5c2-13.2,10.1-27,23-34.1c-0.9,1.4-1.4,3-1.3,4.8
		C72.3,25.7,64.9,37.5,64.5,52.4L64.5,52.4z"/>
	<path class="st0" d="M76.5,56.6c-2.5-0.3-5-1-7.3-1.9c0.1-11.9,4-26.1,11-34.8c0.4,1.5,1.1,3.1,2.3,4.7c5.6-6.5,12-11.2,20-13.2
		C91.6,15.4,74.6,28.6,76.5,56.6L76.5,56.6z"/>
</g>
</svg>
