<?xml version="1.0" encoding="utf-8"?>
<!-- Generator: Adobe Illustrator 21.0.0, SVG Export Plug-In . SVG Version: 6.00 Build 0)  -->
<svg version="1.1" id="Layer_1" xmlns="http://www.w3.org/2000/svg" xmlns:xlink="http://www.w3.org/1999/xlink" x="0px" y="0px"
	 viewBox="0 0 622.9 261.8" style="enable-background:new 0 0 622.9 261.8;" xml:space="preserve">
<style type="text/css">
	.st0{fill:#8D734A;}
</style>
<g>
	<path class="st0" d="M94.3,144.8l1.7,0.6l0.2,0.1l3.4-1.7c1.1-0.7,2.2-1.1,3.3-1.1h46.5V205l-0.3,1c-0.2,0.3-0.5,0.5-0.7,0.6
		l-2.2,1.4l-0.2,0.1v1.5h24.8v-1.5l-2.5-1.5l-0.8-0.7c0,0,0-0.4,0-0.9v-62.4h41.4c1.7,0.2,2.3,0.7,2.2,1.1v1.7h1.6l11.9-14.4H105.3
		L94.3,144.8z M98.4,174.6l-0.1,0.6h1.8l11.6-14.5H29.6l-7.7,11.5h74.3c1.8,0.2,2.4,0.7,2.4,1.1v0.2L98.4,174.6z M122.6,197.3
		c-0.7,0.4-1.4,0.7-1.7,0.8l-57.2,0.2c-13.3,0-23.2-1.7-29.8-5.1c-10-5.2-14.9-12.7-14.9-22.7c0-4.6,1.3-8.9,3.9-12.8
		c4.9-7.3,12.5-11.9,22.8-13.8c2.9-0.5,5.1-0.8,6.8-1c3.1-0.2,6.6-0.2,10.5-0.2h17.7c1.9,0.2,2.4,0.7,2.4,1v0.2l-0.2,0.9l-0.1,0.6
		h1.6L96.3,131H63.1c-8.2,0-14.4,0.3-18.8,0.8c-2.4,0.3-4.6,0.7-6.6,1.2c-5.6,1.2-11.1,3.4-16.6,6.4c-8.5,4.8-14.6,10.9-18.1,18.2
		c-2,4.1-2.9,8.7-2.9,13.7c0,12.7,6.8,22.8,20.3,30.1c6.2,3.4,13,5.7,20.5,6.9c5.6,0.9,13.3,1.4,22.9,1.4h52.9l11.9-14.4h-2.6
		L122.6,197.3z M230.3,132.5l2.3,1.5c0.8,0.6,1.1,1.1,1.1,1.5v69.4l-0.3,1.1c-0.2,0.2-0.5,0.5-0.8,0.6l-2.1,1.4l-0.2,0.1v1.5h24.6
		v-1.5l-2.2-1.5c-0.4-0.3-0.7-0.6-0.7-0.7l-0.2-70.5l0.3-1l0.7-0.6l1.9-1.3l0.2-0.1V131h-24.6V132.5z M412.1,141.9l11.9,12.7
		l13.5,13.6l-22.4,0l-11.1,12.1l1.4,0.7l0.2,0.1l2.6-1.4c0.3-0.2,0.6-0.3,0.9-0.3c0.3,0,1.5-0.1,3.4,0h35.6l24.9,26.3
		c0.2,0.1,0.3,0.2,0.4,0.5l0.3,0.8c0,0.3-0.7,0.9-3.1,0.9h-0.5v1.7h27l-74.7-78.7L412.1,141.9z M621.5,161.8l-0.5,0.1L621.5,161.8
		c-3-9.5-9.8-17.2-20.3-23c-9.5-5.3-23.3-7.9-41.3-7.9h-69.6v1.5l2.3,1.5c0.4,0.3,0.6,0.5,0.7,0.7l0,7.8h34.2v0h32.3
		c13.7,0,23.6,1.8,29.7,5.4c9.7,5.7,14.4,13.1,14.5,22.6c0,4.9-1.3,9.2-3.8,13c-2.5,3.8-6.3,7-11.3,9.7c-6.5,3.4-16.4,5.1-29.6,5.1
		h-35.4v-51.5h-18.2l0.2,58.4l-0.3,1c-0.1,0.2-0.4,0.4-0.6,0.6l-2.1,1.3l-0.2,0.1v1.5h56.8c11.1,0,19.6-0.6,25.6-1.9
		c8.2-1.7,15.4-4.6,21.7-8.9c6.3-4.2,10.7-9.1,13.4-14.5c1.9-4,2.9-8.4,2.9-13C622.9,168,622.5,164.8,621.5,161.8 M372,207.9
		c-1.1-0.2-1.5-0.5-1.6-0.8l48.4-50.4l-10.3-11l-61.2,64h26.7V208h-0.5C372.9,208,372.4,208,372,207.9 M348.5,200.4l0.9-0.9
		l17.6-18.8l-0.3-45.1l0.1-0.9l0.7-0.7l2.2-1.3l0.2-0.1V131h-24.8v1.5l2.4,1.5c0.8,0.5,1.1,0.9,1.1,1.5v23.9h-52.6L285,173.5
		l1.7,0.5l0.2,0.1l3.4-2c0.7-0.4,1.3-0.7,1.7-0.8c0.4-0.1,0.9-0.2,1.6-0.2h55.1L348.5,200.4z M284.5,206l-0.2-70.4l0.3-0.9
		c0.1-0.1,0.4-0.4,0.8-0.6l2.2-1.4l0.2-0.2V131H263v1.6l2.3,1.5c0.4,0.3,0.6,0.5,0.7,0.7l0.2,70.2L266,206c-0.1,0.2-0.4,0.4-0.6,0.6
		l-2.1,1.4l-0.2,0.1v1.5h24.8v-1.5l-2.4-1.5C284.9,206.4,284.6,206.1,284.5,206 M377.6,91.6l16.7,16.8L411,91.6l-10.8-10.8
		l13.2-13.9V2.1l-0.9-0.2c0,0-1,2.2-5.5,7c-2.7,2.9-4.1,3.9-4.9,4.4c-0.6,0.3-1.2,0.6-1.1,1.3c0,0.2,0,0.4,0,0.8
		c0.4,3.3,4.3,1.9,4.5,7.1c0.1,1.8,0.1,6.9,0.1,12.9c0,11.2-0.1,25.5-0.1,27.3l-11.2,11.7l-11.3-11.7c0-1.8-0.1-16.1-0.1-27.3
		c0-6,0-11.1,0.1-12.9c0.2-5.2,4.1-3.8,4.5-7.1c0-0.4,0-0.6,0-0.8c0-0.7-0.5-1-1.1-1.3c-0.7-0.4-2.2-1.5-4.8-4.4
		c-4.5-4.8-5.5-7-5.5-7l-0.9,0.2v65.8l13.2,13L377.6,91.6z M402.3,91.6l-7.9,7.9l-7.9-7.9l7.9-7.9L402.3,91.6z M437.1,79.6
		c0,0-0.2-23.1-0.2-40.1c0-8.5,0-15.5,0.2-17.3c0.3-5.2,5.2-3.8,5.6-7.2c0-0.4,0-0.6,0-0.8c0-0.8-0.6-0.9-1.4-1.3
		c-0.9-0.5-2.7-1.5-6.1-4.4c-5.6-4.8-6.9-7-6.9-7L427.4,0v80.1h9.6L437.1,79.6z M218.8,89c0,0.2,2.4,8.6,14,8.6c0.2,0,0.5,0,0.7,0
		c12.2-0.3,15.3-9,15.3-9.1l0-34.8c0,0,0-0.1,0-0.4c0-1.7-0.4-8.1-6.3-8.2h-53.6l0.1-1.3c0.2-5.2,3.9-3.8,4.3-7.1c0-0.4,0-0.6,0-0.8
		c0-0.1,0-0.2-0.1-0.5c-0.8-0.6-0.5-0.1-1.3-0.6c-0.7-0.4-2-1.4-4.2-3.9c-4.3-4.9-5.3-5.6-5.4-5.7l-0.8-0.6v17.6h0v11.7h52.7
		c0.1,0,0.3,0,0.6,0c1.4,0.1,4.4,0.3,4.4,4.4v24.6c0,0,0,5.8-5.8,5.8c-3,0-5.1-1.2-6.4-2.4c-1.4-1.2-2-2.4-2-2.4l0.1-13.9h-43.5v10
		h37.4V89z M329.5,81.9c0-0.1-0.1,0.6-0.1,1.6c0,2.5,0.5,7.4,4.5,9c0,0,1.4,0.8,3.5,0.8c1.3,0,3-0.3,4.6-1.4l0.6-0.4l-0.6-0.4
		c-2.4-1.8-2.9-6.9-2.8-9.7c0-0.6,0-1,0-1.3h25.4L364.7,68V53.6h0V26l-0.9,1.6c0,0-1.2,2.2-6.6,7c-3.2,2.9-4.9,3.9-5.8,4.4
		c-0.7,0.3-1.3,0.5-1.3,1.3c0,0.2,0,0.5,0,0.8c0.4,3.4,5.2,2,5.4,7.2c0.2,2.5,0.2,17.1,0.2,17.1l0,5.3h-16.3c0-0.4,0-1,0-1.7
		c0-0.3,0-0.7,0-1c-0.1-6-2-18.5-16.6-18.5c-0.3,0-0.5,0-0.8,0c-4.7,0.1-8.9,0.2-12.4,0.2c-9.6,0-14.9-0.9-16.3-3.4l-0.3-0.5
		l-0.4,0.3c-1.7,1.1-2.4,3.1-2.4,5.2c0,3.4,1.9,7.2,5.2,7.5c2.3,0.1,5.6,0.1,8.8,0.1c5.9,0,11.8-0.1,11.8-0.1
		c13.7,0.1,13.3,6.3,13.4,8.5v3.4h-58.8l0.1-6.9l-0.1-63.4l-0.9,1.5c0,0-1.3,2.2-6.9,7c-3.3,2.9-5.1,3.9-6,4.4
		c-0.8,0.3-1.4,0.5-1.4,1.3c0,0.2,0,0.4,0,0.9c0.5,3.4,5.4,2,5.6,7.1c0.3,3.8,0.3,27.2,0.3,40.4c0,5.5,0,9.2,0,9.2l0.1,7.9h67.9
		V81.9z M363.8,18.5l-0.3-0.4l-7-7l-7.3,7.4l7.3,7.4L363.8,18.5z M347.7,18.5l-0.3-0.3l-7-7l-7.3,7.4l7.3,7.4L347.7,18.5z"/>
	<path class="st0" d="M138.9,250.8l-0.7,1.9c-2.3,6.6-0.7,6.7,3.4,7.2v1.1h-11.8V260c2-0.6,2.9-0.7,3.8-2.7l8.4-19.7l-0.4-1.1
		c1.5-0.5,2.7-1.7,3.6-2.9h0.7l7.1,18.6c2.5,6.2,2.2,6.7,6.1,7.9v1.1h-12.9V260c3.7-0.6,3.9-1.4,1.8-6.7l-0.9-2.4H138.9z
		 M146.3,248.5l-3.4-8.8l-3.3,8.8H146.3z"/>
	<path class="st0" d="M202.2,252.6c0,6.9,0.5,6.6,5,7.4v1.1h-15V260c4.5-0.8,5-0.5,5-7.4v-9c0-6.9-0.5-6.6-5-7.4v-1.1h15v1.1
		c-4.5,0.8-5,0.5-5,7.4V252.6z"/>
	<path class="st0" d="M246,242.4c0-5.1-0.2-5.9-5-6.2v-1.1h11.8c4.7,0,10.9,0,10.9,6.1c0,3-2.2,5.2-4.9,6.2c2.8,5.6,6.7,11.5,13,13
		l-0.2,1c-3.4-0.2-7.3,0.2-10.3-1.9c-1.9-1.4-4.1-4.9-5.3-7.1c-1.8-3.4-1.5-3.2-5.1-3.7v3.8c0,5.2-0.2,6.9,5.9,7.4v1.1H241V260
		c4.5-0.8,5-0.5,5-7.4V242.4z M251,247.4c3.5-0.2,7.1-1.8,7.1-5.9c0-3.9-3.7-5-7.1-5V247.4z"/>
	<path class="st0" d="M305.9,261.8l-1.5-0.3l-6.3-20.1c-0.8-2.6-1.2-4.5-4.3-5.2v-1.1h11.9v1.1c-4,0.9-3.4,1.9-2.1,6.3l3.3,10.9h0.1
		l4.8-13.6c-0.7-2.3-1.8-3.1-4.1-3.6v-1.1h12.2v1.1c-3.2,0.9-3.9,0.9-2.3,5.9l3.6,11.7h0.1l1.3-4.2c0.7-2.2,2.9-8.9,2.9-10.8
		c0-2-1.8-2-3.3-2.6v-1.1h10.3v1.1c-3.4,1-3.8,1.8-5.5,6.5l-6.8,19.1l-1.6-0.3l-5.8-18.9h-0.1L305.9,261.8z"/>
	<path class="st0" d="M364.1,250.8l-0.7,1.9c-2.3,6.6-0.7,6.7,3.4,7.2v1.1h-11.8V260c2.1-0.6,2.9-0.7,3.8-2.7l8.4-19.7l-0.4-1.1
		c1.5-0.5,2.7-1.7,3.6-2.9h0.7l7.1,18.6c2.5,6.2,2.2,6.7,6.1,7.9v1.1h-12.9V260c3.7-0.6,3.9-1.4,1.8-6.7l-0.9-2.4H364.1z
		 M371.6,248.5l-3.5-8.8l-3.2,8.8H371.6z"/>
	<path class="st0" d="M428.6,252.6c0,5.2-0.2,6.9,5.5,7.4v1.1h-16V260c5-0.8,5.5-0.5,5.5-7.4v-1.8l-4.3-8.6c-1.7-3.5-2.2-5.1-6.4-6
		v-1.1h13.2v1.1c-2.6,0.7-3.9,0.4-1.7,5l3.3,7l2.1-4.2c3.2-6.6,2.5-6.9-0.9-7.8v-1.1h11.1v1.1c-3.2,0.7-4.8,1.5-6.3,4.3l-4.3,8
		l-0.7,1.5V252.6z"/>
	<path class="st0" d="M491.2,242.9h-1.1c-0.7-3.1-1.6-6.6-5.5-6.6c-2.3,0-3.9,1.7-3.9,4c0,6.2,12.5,5.7,12.5,13.7
		c0,5.5-5.2,7.8-10.1,7.8c-2.7,0-5.4-0.7-7.7-1.9l-1.2-7.5l1.2-0.2c1.3,3.7,4,8,8.5,8c2.5,0,4.4-1.6,4.4-4.1
		c0-6.4-12.5-5.9-12.5-13.4c0-5.1,4.8-7.9,9.5-7.9c2.3,0,4.5,0.6,6.4,1.7L491.2,242.9z"/>
</g>
</svg>
