<?xml version="1.0" encoding="utf-8"?>
<!-- Generator: Adobe Illustrator 21.0.0, SVG Export Plug-In . SVG Version: 6.00 Build 0)  -->
<svg version="1.1" id="Layer_1" xmlns="http://www.w3.org/2000/svg" xmlns:xlink="http://www.w3.org/1999/xlink" x="0px" y="0px"
	 viewBox="0 0 370 84.2" style="enable-background:new 0 0 370 84.2;" xml:space="preserve">
<style type="text/css">
	.st0{fill:#EC2227;}
	.st1{fill:#010101;}
</style>
<path id="path5" class="st0" d="M55.9,4.1c0,0-11-6.9-25.5-2.9c0,0-19.5,5.6-26.2,21.3
	c0,0-9.1,14.6-0.7,30.6c0,0,5,11.3,18.3,14.5c0,0,17,4.6,29.5-4.9c0,0,18.9-10,19.3-31C70.7,31.8,72.6,13.3,55.9,4.1 M65,40.8
	c-3.5,9.4-18.9,19.8-18.9,19.8C18.4,74.4,7.6,54.3,7.6,54.3C1.5,41.3,9,28.8,9,28.8C16.1,14.8,29.6,9.2,29.6,9.2
	c18.9-8.1,29.7,1,29.7,1C74.6,21.6,65,40.8,65,40.8"/>
<path id="path7" class="st0" d="M25.5,20.8c0,0-7.4,17.4-7.5,18.4c0,0-2.6,8.2-1.4,16.1l13.2,0.4
	c0,0-3.6-1.8-1.3-11.1c0,0,1.6-5.6,2.7-6c0,0,0.3-0.5,0.5,0.4c0,0,2.6,9.4,9.6,16.6c0,0,4.4,6.1,15.3,10.3c0,0,9.5,2.5,15.2-2.2
	c0,0,4.8-2.9,4.9-11.4c0,0,0.1-0.9-0.7-0.2c0,0-3.6,4-12.7,3.2c0,0-2.7,0.5-10.3-5.2L37,36.9c0,0-0.7-0.5,0.3-0.6
	c0,0,9.3-1.7,12.1-3.9c0,0,8.4-4.1,9.5-10.3c0,0,1.7-6.7-0.9-10.7c0,0-0.9-0.6-1.3,0.1c0,0-4.8,4.9-8.9,7.6l-12.3,8
	c0,0-0.9,0.6-0.2-0.8l3.6-9.4c0,0,2-3.2-3.5-2.8c0,0-8.2,0.8-12.7,6.4c0,0-0.4,0.2,0.3,0.4L25.5,20.8z"/>
<polygon id="polygon9" class="st0" points="93.6,36.7 93.5,36.7 90.9,50 83.4,50 89,22 96.5,22 93.7,35.3 93.8,35.3 104.1,22 
	110,22 100.3,34.4 109.2,50 100.7,50 "/>
<path id="path11" class="st0" d="M116.9,38.7c0.3-2,1.9-5.5,4.4-5.5c1,0,1.6,0.6,1.6,1.6
	C122.9,37.5,120.5,38.8,116.9,38.7 M129.8,43c-2.5,1.4-6.8,3.1-9.6,3.1c-2,0-3.8-0.9-3.8-3.2c5.3,0.2,13.2-3.6,13.2-9.6
	c0-3.3-3.1-4.7-5.7-4.7c-9.7,0-14.9,8.8-14.9,14.9c0,4.9,4.6,7,8.8,7c3.7,0,7.3-1,11-2.3L129.8,43z"/>
<path id="path13" class="st0" d="M140.8,37.9h0.5c1.5-3.6,5.5-9.3,9.8-9.3c2.6,0,4.2,1.9,4.2,4.4
	c0,1-0.3,2-0.5,3L152,50h-7.4l2.6-13.2c0-0.3,0.2-0.7,0.2-1c0-0.2-0.1-0.6-0.4-0.6c-1.4,0-5.9,6.8-6.7,8.3l-1.3,6.5h-7.5l4.2-21h7.4
	L140.8,37.9z"/>
<polygon id="polygon15" class="st0" points="157.5,29 165.1,29 167.4,41.3 175.7,29 181.4,29 162,57.5 154.3,57.5 161.5,50 "/>
<path id="path17" class="st0" d="M193.1,35.7c-1.7,2.4-5.3,8.5-7.4,8.5c-0.7,0-0.9-0.7-0.9-1.2
	c0-2,1.7-10.1,6.2-10.1c0.9,0,1.7,0.3,2.4,0.7L193.1,35.7z M190.2,50h7.4l4.2-21h-7c-0.5,0-1.7-0.4-3.5-0.4c-7.3,0-14,9.5-14,16.3
	c0,2.8,1.8,5.5,4.8,5.5c4.3,0,8.2-5.8,9.8-9.3h0.5L190.2,50L190.2,50z"/>
<path id="path19" class="st0" d="M219.8,38.6l5.2-9.8h0.1l1.8,9.8H219.8z M208.3,50h5.3l3.8-7
	h10.3l1.4,7h7.1l-5.4-28h-7.4L208.3,50z"/>
<path id="path21" class="st0" d="M242.4,29h7.5l-4.2,21h-7.5L242.4,29z M243.9,22.1h7.5l-1.1,4.2
	h-7.5L243.9,22.1z"/>
<path id="path23" class="st0" d="M258.9,37.9h0.5c1.5-3.6,5.5-9.3,9.8-9.3c0.9,0,1.6,0.2,1.9,0.4
	l-2.6,6.5c-0.5-0.3-1-0.5-1.6-0.5c-3.8,0-7,6-8.5,8.5L257,50h-7.5l4.2-21h7.4L258.9,37.9z"/>
<polygon id="polygon25" class="st0" points="305.2,29 294.7,50 287.6,50 287,37.3 287,37.3 280.7,50 273.6,50 272.8,29 279.3,29 
	279.8,42.3 279.9,42.3 286.5,29 292.7,29 293.3,42.4 293.4,42.4 300,29 "/>
<path id="path27" class="st0" d="M317.7,35.7c-1.7,2.4-5.3,8.5-7.4,8.5c-0.7,0-0.9-0.7-0.9-1.2
	c0-2,1.7-10.1,6.2-10.1c0.8,0,1.7,0.3,2.4,0.7L317.7,35.7z M314.9,50h7.4l4.2-21h-7c-0.5,0-1.7-0.4-3.5-0.4c-7.3,0-14,9.5-14,16.3
	c0,2.8,1.8,5.5,4.8,5.5c4.3,0,8.2-5.8,9.8-9.3h0.5L314.9,50L314.9,50z"/>
<polygon id="polygon29" class="st0" points="329.3,29 336.9,29 339.2,41.3 347.6,29 353.2,29 333.9,57.5 326.2,57.5 333.3,50 "/>
<path id="path31" class="st0" d="M368.5,33.7c-1.5-0.5-3.1-1-4.7-1c-1.2,0-2.9,0.4-2.9,1.9
	c0,2.5,6.5,4.3,6.5,8.8c0,2.8-1.9,7-9.8,7c-2.6,0-5.1-0.5-7.7-1.2l1-4.9c1.8,0.8,4.7,1.9,6.7,1.9c1,0,2.3-0.7,2.3-2
	c0-2.9-6-4.6-6-9.2c0-2.5,1.7-6.5,9.7-6.5c1.9,0,4,0.4,5.8,0.6L368.5,33.7L368.5,33.7z"/>
<path id="path33" class="st1" d="M164.3,63.7l0.1,0.1c-0.3,0.4-0.8,0.6-1.5,0.6
	c-0.1,0-0.6,0-1.5-0.1c-0.9-0.1-1.4-0.1-1.4-0.1h-5.2c-3,3-4.5,5.4-4.5,7.4c0,1.4,0.7,2.4,2,3c1,0.5,2,0.7,3.2,0.7
	c1.2,0,2.3-0.2,3.4-0.6c0.9-0.3,2.1-0.9,3.6-1.7c0.1,0.1,0.3,0.1,0.4,0.1l-0.1,0.7c-3.3,2.7-6.4,4.1-9.2,4.1c-1.5,0-2.8-0.3-4.1-1
	c-1.6-0.9-2.5-2.2-2.5-3.9c0-1.4,0.6-3,2-4.7c0.7-0.9,1.9-2.2,3.6-4l-9.1,0.4c-0.6,0-1-0.2-1-0.6c0-0.4,0.2-0.9,0.6-1.4
	c0.4-0.5,0.8-0.8,1.1-0.8h10.6c0.4-0.4,1-0.9,1.8-1.7c0.4,0,0.7,0,0.9,0.1c0,0.4-0.1,0.7-0.4,1.1l-0.5,0.5c1.2,0.1,2.4,0.2,3.6,0.3
	c1.6,0.1,2.7,0.3,3.3,0.6C164,62.8,164.1,63.2,164.3,63.7"/>
<path id="path35" class="st1" d="M176.5,75h0.4c-0.6,0.6-1.5,1.2-2.8,2c-1.4,0.9-2.4,1.3-3.1,1.3
	c-0.5,0-0.9-0.2-1.3-0.7c-0.2-0.4-0.4-0.7-0.4-1.1v-2.6c0-0.1-0.1-0.2-0.3-0.2c-0.2,0-1.1,0.7-2.8,2c-1.6,1.3-2.8,2-3.5,2
	c-0.9,0-1.4-0.7-1.4-2.1c0-0.8,0.2-1.5,0.7-2.1c2.3-2.9,3.5-4.5,3.7-4.6c1.4-1.8,2.7-3.3,3.9-4.6c0.4-0.5,0.9-0.7,1.3-0.7
	c0.5,0,0.7,0.2,0.7,0.7c0,0,0,0.1,0,0.1c0,0.1,0,0.1,0,0.1c0,0.5-0.2,1.1-0.5,1.8c-0.7,1.6-1.7,2.8-3,3.8c-2.7,2-4,3.3-4,3.9
	c0,0.3,0.1,0.6,0.2,0.9c0.1,0.3,0.3,0.5,0.6,0.5c0.3,0,1-0.5,2.3-1.4c0.5-0.4,1.3-0.9,2.3-1.6c0.5-0.3,1-0.5,1.5-0.5
	c0.1,0,0.2,0,0.3,0c0.3,0.2,0.5,0.5,0.6,0.8c0,0.1,0.1,0.4,0.1,1c0,0.2,0,1,0,2.5c0,0.1,0.1,0.2,0.3,0.3c0.8,0.1,1.9-0.5,3.3-1.6
	h0.6C176.4,74.6,176.5,74.8,176.5,75"/>
<path id="path37" class="st1" d="M180,72.4c0,0.7-1,1.2-3.1,1.4c0.2-0.4,0.6-0.9,1.2-1.2
	c0.6-0.4,1.1-0.6,1.4-0.6C179.8,72.1,180,72.2,180,72.4 M182.3,72c0-0.9-0.5-1.3-1.5-1.3c-0.9,0-2.1,0.4-3.6,1.2
	c-1.9,1-2.8,2.1-2.8,3.2c0,0.9,0.5,1.6,1.4,2.1c0.7,0.3,1.5,0.5,2.4,0.5c1,0,2-0.3,3.3-0.8c0.8-0.4,1.9-1,3.4-1.9l-0.3-0.2v0h0.4
	v-0.7c-2.3,1.1-4.1,1.6-5.3,1.6c-1.5,0-2.4-0.3-2.8-0.9C180.5,74.3,182.3,73.4,182.3,72"/>
<path id="path39" class="st1" d="M230,73.9l1.3-1.3c-0.9,1.3-2.1,2.5-3.6,3.6
	c-1.5,1-2.7,1.5-3.7,1.5c-0.4,0-0.8-0.2-1.4-0.5c-0.7-0.4-1.1-0.8-1.1-1.2c0-0.2,0.3-0.5,0.8-0.9c0.4-0.3,0.7-0.6,1.1-0.9
	c-0.1-0.2-0.4-0.3-0.9-0.6c-0.5-0.2-0.7-0.3-0.8-0.3c-0.1,0-0.3,0.1-0.6,0.3l-0.4,0.3c-0.1,0.1-0.3,0.2-0.5,0.3
	c-0.2-0.1-0.3-0.2-0.6-0.3c0.2-0.4,0.6-0.8,1.1-1.2l0-0.1c-0.1-0.1-0.1-0.3-0.1-0.5c0.1-0.3,0.5-0.7,1.2-1.4c0.7-0.6,1.2-1,1.6-1
	c0.2,0,0.4,0.1,0.7,0.4c0,0.4-0.1,0.6-0.1,0.7c-0.1,0.1-0.2,0.3-0.4,0.6c0.4,0.2,0.8,0.4,1.2,0.6c0.6,0.3,0.8,0.6,0.8,0.9
	c0,0.4-0.2,0.7-0.7,1c-0.5,0.3-0.8,0.5-0.8,0.7c0,0.5,0.5,0.7,1.5,0.7c0.9,0,2.2-0.6,3.9-1.8L230,73.9L230,73.9z"/>
<path id="path41" class="st1" d="M236,68.4c-0.4,0.6-1.1,0.9-2.1,0.9c-0.3,0-0.7-0.1-1.2-0.3
	c-0.5-0.2-0.7-0.5-0.7-0.8c0-0.3,0.2-0.6,0.7-0.9c0.4-0.3,0.7-0.4,0.8-0.5c0.2,0,0.5,0.2,1.1,0.5c0.3,0.2,1,0.6,2.2,1.1L236,68.4
	L236,68.4z M230.5,77.8c-1.6,0-2.4-0.7-2.4-2.1c0-0.5,0.1-1,0.2-1.3c0.1-0.2,0.7-0.7,1.8-1.7c1.2-1,1.9-1.5,2.2-1.5
	c0.1,0,0.3,0,0.4,0.1l0.1,0h0.2v0.7c-1.5,1.3-2.2,2.2-2.2,2.8c0,0.7,0.5,1.1,1.4,1.1c0.6,0,1.3-0.2,2.1-0.6c0.7-0.4,1.3-0.7,2-1.1
	l0.3,0.3v0.6C234,76.8,232,77.8,230.5,77.8"/>
<path id="path43" class="st1" d="M250.3,74.6l0.2,0.3c-1.3,0.9-2.2,1.5-2.7,1.8
	c-1.2,0.7-2.2,1.1-3,1.1c-0.7,0-1.3-0.2-1.8-0.6c-0.5-0.4-0.8-1.1-0.8-1.9c0-0.3,0-0.5,0.1-0.8c-1.3,1.1-2.1,1.7-2.6,2.1
	c-1.2,0.8-2.2,1.2-3,1.2c-0.7,0-1.3-0.2-1.8-0.6c-0.5-0.4-0.7-0.9-0.7-1.6c0-1.4,1.1-2.6,3.3-3.5c1.6-0.7,3-1,4-1
	c1.2,0,1.7,0,1.4,0.1c0,0.1,0,0.4,0.1,0.8c-0.3,0.3-0.5,0.4-0.7,0.4c-0.1,0-0.2,0-0.4-0.1c-0.2,0-0.3-0.1-0.4-0.1
	c-0.7,0-1.5,0.3-2.5,0.8c-1.1,0.6-1.7,1.2-1.7,1.9c0,0.5,0.3,0.7,1,0.7c0.7,0,1.5-0.3,2.4-0.9c0.9-0.6,1.6-1.1,2.1-1.8
	c0.4-0.4,0.7-1,1.1-1.8c0.5-1.1,0.8-1.7,0.9-1.9c0.4-0.7,1.1-1.7,2.2-3.1c1.4-1.8,2.3-2.7,2.8-2.7c0.2,0,0.4,0.2,0.6,0.5
	c0.1,0.3,0.2,0.5,0.2,0.6c0,1.2-0.5,2.4-1.6,3.5c-1,0.9-1.9,1.9-2.9,2.8c-1,1-1.6,2-1.6,2.9c0,0.7,0.2,1.2,0.6,1.5
	c0.3,0.3,0.8,0.4,1.4,0.4c0.6,0,1.5-0.4,2.8-1.2c0.3-0.2,0.7-0.4,1.1-0.6l0.3,0.3v0.5L250.3,74.6L250.3,74.6z"/>
<path id="path45" class="st1" d="M253.9,72.4c0,0.7-1,1.2-3.1,1.4c0.2-0.4,0.6-0.9,1.2-1.2
	c0.6-0.4,1.1-0.6,1.4-0.6C253.7,72.1,253.9,72.2,253.9,72.4 M256.2,72c0-0.9-0.5-1.3-1.5-1.3c-0.9,0-2.1,0.4-3.6,1.2
	c-1.9,1-2.8,2.1-2.8,3.2c0,0.9,0.5,1.6,1.4,2.1c0.7,0.3,1.5,0.5,2.4,0.5c1,0,2-0.3,3.2-0.8c0.8-0.4,1.9-1,3.4-1.9l-0.3-0.2v0h0.4
	v-0.7c-2.3,1.1-4.1,1.6-5.3,1.6c-1.5,0-2.5-0.3-2.8-0.9C254.4,74.3,256.2,73.4,256.2,72"/>
<path id="path47" class="st1" d="M276.6,72.7l0.2-0.1c-0.3,0.6-1.4,1-3.4,1.4
	c-0.4,1.2-1.3,2.2-2.8,2.9c-1.2,0.6-2.4,0.9-3.6,0.9c-0.7,0-1.3-0.1-1.9-0.4c-0.8-0.4-1.2-1-1.2-1.7c0-1,0.6-1.9,1.7-2.8
	c0.9-0.7,2-1.2,3.1-1.4l0,0c0.2-0.1,0.3-0.2,0.5-0.2h1.2c-0.1,0.2-0.3,0.5-0.4,0.8c-0.2,0-0.4,0.1-0.8,0.2c-1.7,0.5-2.5,1.1-2.5,2
	c0,1,0.8,1.4,2.5,1.4c1.3,0,2.4-0.6,3.1-1.8c-0.3,0-1.2-0.2-2.6-0.5c0.5-1.1,1-1.9,1.3-2.4c0.7,0.3,1.3,0.6,2,0.9
	c0.8,0.3,1.5,0.5,2.1,0.5c0.4,0,0.9-0.1,1.5-0.2L276.6,72.7L276.6,72.7L276.6,72.7z"/>
<path id="path49" class="st1" d="M280.5,72.5c0.1,0,0.6,0.1,1.3,0.1c0,0,0.3,0,1.1,0
	c0.7,0,1.5,0,2.3,0c-0.6,0.6-1.3,1-2.1,1.2c-0.3,0.1-1.1,0.1-2.4,0.2c-0.6,0-1.1,0.1-1.4,0.2c-0.1,0-0.3,0.2-0.5,0.5
	c-0.2,0.3-0.3,0.5-0.4,0.8c0,0.7,0.1,1.6,0.1,2.8c0,0.4-0.3,1.5-1,3.1c-0.8,2-1.4,3-2,3c-0.6,0-0.9-0.5-0.9-1.4v-0.2
	c0-0.1,0-0.1,0-0.1c0-1.8,0.3-3.5,1-4.9c0-0.1,0.3-0.7,0.9-1.7c0.5-1,0.8-1.5,0.8-1.5c0-0.1-0.1-0.2-0.2-0.3l-0.1-0.1
	c-0.7,0-1.4-0.2-2.1-0.4c0-0.4,0.1-0.6,0.3-0.8c0.2-0.1,0.6-0.3,1.1-0.6c0.6-0.3,0.9-0.4,1.1-0.4c0.1,0,0.4,0.1,0.8,0.2
	c0.4,0.1,0.6,0.2,0.7,0.2c0,0,0.7-1.1,2-3.2c0.7-1.3,1.7-2.8,2.8-4.7c0.2-0.4,0.6-0.7,1.2-0.8c0.5,0,0.8,0.3,0.8,1
	c0,1.3-0.4,2.5-1.3,3.9C283.4,69.2,282.3,70.6,280.5,72.5"/>
<path id="path51" class="st1" d="M318.6,77.4c-0.8,0-1.4-0.5-1.8-1.5c-0.1-0.5-0.3-1.2-0.6-1.9
	c-0.2-0.6-0.4-1.5-0.8-2.8c-0.2-0.9-0.5-1.9-0.7-2.9c-0.3-1.2-0.7-2-1.1-2.7c-0.4-0.6-1-0.8-1.9-0.8c-1.3,0-3,0.7-5,2
	c-1.5,1.1-3.1,2.1-4.6,3.2c1.6,0.2,3.8,0.3,6.4,0.3c0.9,0,2.3,0,4.1-0.1c0.1,0,0.4-0.1,0.8-0.2c0.3-0.1,0.6-0.1,0.7-0.1h0.6
	l-0.1,0.5c0,0.2-0.2,0.4-0.4,0.6c-1.5,1-4.3,1.5-8.3,1.6c-1.2,0-2.6,0-4.3-0.1c-0.1,0-0.7-0.1-1.9-0.2c-0.2,0-0.3-0.1-0.4-0.1
	c0,0-0.1,0.1-0.2,0.2c-4.4,4-7.3,6.1-8.8,6.1c-0.3,0-0.6-0.1-0.9-0.2c-0.3-0.2-0.4-0.4-0.4-0.6c0-0.4,1.2-1.4,3.5-3
	c1.1-0.8,2.6-1.8,4.4-3c-0.2-0.1-0.6-0.3-1.1-0.5l-0.1-0.6c0.3-0.3,0.7-0.6,1.3-0.9c0.6-0.3,0.9-0.5,1.1-0.5c0.1,0,0.4,0.1,0.8,0.3
	c0.5,0.2,0.7,0.3,0.8,0.3c0.1,0,0.2-0.1,0.4-0.3c7.5-4.9,12.1-7.4,13.6-7.4c1,0,1.9,0.7,2.7,2.2c0.5,1,1,2.6,1.6,4.6
	c0.3,1.1,0.6,2.6,1.2,4.5c0.4,1.3,0.7,1.9,1.1,1.9c0.3,0,0.7-0.2,1.1-0.6c0.3-0.3,0.7-0.6,1-0.9c0.3-0.3,0.7-0.6,1-0.7
	c0,0,0.2,0.1,0.6,0.4v0.2c-0.7,0.9-1.6,1.8-2.6,2.6C320.4,77,319.4,77.4,318.6,77.4"/>
<path id="path53" class="st1" d="M329,72.5c0.1,0,0.6,0.1,1.3,0.1c0,0,0.3,0,1.1,0
	c0.7,0,1.5,0,2.2,0c-0.6,0.6-1.3,1-2.1,1.2c-0.3,0.1-1.1,0.1-2.5,0.2c-0.6,0-1.1,0.1-1.4,0.2c-0.1,0-0.3,0.2-0.5,0.5
	c-0.2,0.3-0.3,0.5-0.4,0.8c0,0.7,0.1,1.6,0.1,2.8c0,0.4-0.3,1.5-1,3.1c-0.8,2-1.4,3-2,3c-0.6,0-0.9-0.5-0.9-1.4c0-0.1,0-0.1,0-0.2
	c0-0.1,0-0.1,0-0.1c0-1.8,0.3-3.5,1-4.9c0-0.1,0.3-0.7,0.9-1.7c0.5-1,0.8-1.5,0.8-1.5c0-0.1-0.1-0.2-0.2-0.3l-0.1-0.1
	c-0.7,0-1.4-0.2-2.1-0.4c0-0.4,0.1-0.6,0.3-0.8c0.2-0.1,0.5-0.3,1.1-0.6c0.6-0.3,0.9-0.4,1.1-0.4c0.2,0,0.4,0.1,0.8,0.2
	c0.4,0.1,0.6,0.2,0.7,0.2c0,0,0.7-1.1,2-3.2c0.7-1.3,1.7-2.8,2.8-4.7c0.2-0.4,0.6-0.7,1.2-0.8c0.5,0,0.8,0.3,0.8,1
	c0,1.3-0.4,2.5-1.3,3.9C331.9,69.2,330.7,70.6,329,72.5"/>
<path id="path55" class="st1" d="M341.8,73.9l1.3-1.3c-0.8,1.3-2.1,2.5-3.6,3.6
	c-1.5,1-2.7,1.5-3.7,1.5c-0.3,0-0.8-0.2-1.4-0.5c-0.7-0.4-1.1-0.8-1.1-1.2c0-0.2,0.3-0.5,0.8-0.9c0.4-0.3,0.7-0.6,1.1-0.9
	c-0.1-0.2-0.4-0.3-0.9-0.6c-0.5-0.2-0.7-0.3-0.8-0.3c-0.1,0-0.3,0.1-0.6,0.3l-0.4,0.3c-0.2,0.1-0.3,0.2-0.5,0.3
	c-0.2-0.1-0.3-0.2-0.6-0.3c0.2-0.4,0.6-0.8,1.1-1.2l0-0.1c-0.1-0.1-0.1-0.3-0.1-0.5c0.1-0.3,0.5-0.7,1.2-1.4c0.7-0.6,1.2-1,1.6-1
	c0.2,0,0.4,0.1,0.7,0.4c0,0.4-0.1,0.6-0.1,0.7c-0.1,0.1-0.2,0.3-0.4,0.6c0.4,0.2,0.8,0.4,1.2,0.6c0.6,0.3,0.8,0.6,0.8,0.9
	c0,0.4-0.2,0.7-0.7,1c-0.5,0.3-0.8,0.5-0.8,0.7c0,0.5,0.5,0.7,1.5,0.7c0.9,0,2.2-0.6,3.9-1.8L341.8,73.9L341.8,73.9z"/>
<path id="path57" class="st1" d="M347.8,68.4c-0.4,0.6-1.1,0.9-2.1,0.9c-0.3,0-0.7-0.1-1.2-0.3
	c-0.5-0.2-0.7-0.5-0.7-0.8c0-0.3,0.2-0.6,0.7-0.9c0.4-0.3,0.7-0.4,0.8-0.5c0.1,0,0.5,0.2,1.1,0.5c0.3,0.2,1,0.6,2.2,1.1L347.8,68.4
	L347.8,68.4z M342.3,77.8c-1.6,0-2.4-0.7-2.4-2.1c0-0.5,0.1-1,0.2-1.3c0.1-0.2,0.7-0.7,1.8-1.7c1.2-1,1.9-1.5,2.2-1.5
	c0.1,0,0.3,0,0.4,0.1l0.1,0h0.3v0.7c-1.5,1.3-2.2,2.2-2.2,2.8c0,0.7,0.5,1.1,1.4,1.1c0.6,0,1.3-0.2,2.1-0.6c0.7-0.4,1.3-0.7,2-1.1
	l0.3,0.3v0.6C345.8,76.8,343.7,77.8,342.3,77.8"/>
<path id="path59" class="st1" d="M349.3,77.8c-0.7,0-1.3-0.2-1.9-0.5c-0.8-0.4-1.2-1.1-1.2-1.9
	c0-1.2,1.1-2.3,3.2-3.2c1.6-0.7,3-1,4.1-1c0.4,0,0.8,0.1,1.1,0.3v0.8c-0.3,0.2-0.7,0.3-1.2,0.3c-0.1,0-0.4,0-0.8-0.1
	c-0.3,0-0.6,0-0.7,0c-0.9,0-1.6,0.2-2.2,0.6c-0.5,0.3-0.7,0.7-0.7,1.2c0,0.4,0.2,0.7,0.6,1c0.4,0.3,0.9,0.4,1.6,0.4
	c0.5,0,1.3-0.2,2.2-0.5c0.7-0.3,1.4-0.6,2.1-0.9c0.3-0.1,0.5-0.2,0.6-0.2h0.8v0.7c-0.9,0.6-2,1.2-3.4,1.8
	C351.6,77.4,350.2,77.8,349.3,77.8"/>
<path id="path61" class="st1" d="M362.8,73.1c0,0.5-0.7,1.1-2,1.7c-1.1,0.5-1.8,0.8-2.2,0.8
	c-0.2,0-0.4-0.1-0.5-0.2c-0.2-0.1-0.3-0.3-0.3-0.4c0-0.6,0.5-1.2,1.6-1.7c0.9-0.4,1.7-0.7,2.4-0.7C362.5,72.6,362.8,72.7,362.8,73.1
	L362.8,73.1L362.8,73.1z M367.4,76.4c1.6-0.8,2.5-1.5,2.6-2v-0.2l-0.5-0.1c-0.1,0.1-0.7,0.3-1.7,0.7c-0.7,0.3-1.2,0.5-1.7,0.5
	c-0.1-0.4-0.2-0.8-0.2-1c-0.1-0.6-0.4-1.1-1.1-1.4c0,0,0,0-0.1-0.1c0-0.1,0-0.3,0.1-0.5c0-0.3,0.1-0.4,0.1-0.6c0-0.6-0.3-1-0.9-1
	c-0.4,0-0.7,0.1-0.8,0.4c-0.1,0.2-0.3,0.5-0.4,0.7c-0.5-0.1-0.9-0.2-1.3-0.2c-1.1,0-2.5,0.3-4.1,1.1c-2,0.9-3.1,2-3.1,3.4
	c0,0.5,0.2,0.9,0.6,1.2c0.4,0.3,0.9,0.5,1.4,0.5c0.9,0,2.3-0.6,4.3-1.9c1-0.6,2-1.2,2.8-1.8c0.1,0,0.1,0,0.1,0l0.1,0v0.1
	c-0.3,0.3-0.6,0.7-0.9,1c-0.4,0.4-0.5,0.8-0.5,1.1c0,0.8,0.5,1.1,1.6,1.1C364.6,77.6,365.8,77.2,367.4,76.4"/>
<path id="path63" class="st1" d="M196,70c-0.5,0.2-0.9,0.3-1.2,0.3c-0.4,0-1-0.2-1.7-0.7
	c-0.7-0.5-1.2-1-1.5-1.5c0.4,0,0.8,0.1,1.4,0.1c0.9,0,2-0.5,3.2-1.4c1.2-0.9,2.1-1.9,2.8-3c0.4,0,0.6,0.1,0.7,0.4
	c0.3,0.9,0.5,1.8,0.5,2.5c0,0.5-0.4,1-1.1,1.5c-1,0.7-1.6,1.1-1.7,1.2c-0.1,0.1-0.3,0.5-0.6,1.2c-0.3,0.5-0.7,1.2-1.1,2.2
	c2.7-2.5,5.6-4.5,8.7-6.1c3.5-1.9,6.6-2.8,9.3-2.8c1.5,0,2.9,0.4,4.1,1.1c1.5,0.9,2.3,2.1,2.3,3.8c0,1.6-0.8,3.1-2.3,4.7
	c-1.3,1.3-2.9,2.4-4.9,3.4c-1.8,0.9-3.3,1.4-4.6,1.5c-2.3,0.3-3.8,0.4-4.4,0.4c-1.7,0-3.2-0.2-4.6-0.6c-1.7-0.5-2.9-1.3-3.6-2.4
	c0-0.1,0-0.2,0.1-0.3c0-0.1,0-0.2,0-0.4h0.7c1.3,1.7,3.7,2.5,7.2,2.5c2.3,0,4.4-0.4,6.4-1.1c2.5-1,4.5-2.4,5.9-4.5
	c0.5-0.8,0.8-1.6,0.8-2.4c0-1.3-0.6-2.3-1.9-2.9c-0.9-0.5-2-0.7-3.2-0.7c-2.6,0-5.5,0.9-8.8,2.6c-3.3,1.7-6,3.9-8.3,6.6
	c-0.1,0.1-0.4,0.7-0.9,1.7c-1,2.1-1.7,3.5-2.2,4.4c-1.2,2-2.2,3-3,3c-0.4,0-0.7-0.1-1.1-0.3c-0.4-0.2-0.6-0.6-0.6-0.9
	c0-0.8,2.2-3.5,6.5-8.1c0.1-0.1,0.2-0.2,0.3-0.3C194.2,73.6,195,72.1,196,70"/>
</svg>
