<?xml version="1.0" encoding="utf-8"?>
<!-- Generator: Adobe Illustrator 21.0.0, SVG Export Plug-In . SVG Version: 6.00 Build 0)  -->
<svg version="1.1" id="Layer_1" xmlns="http://www.w3.org/2000/svg" xmlns:xlink="http://www.w3.org/1999/xlink" x="0px" y="0px"
	 viewBox="0 0 256 256" style="enable-background:new 0 0 256 256;" xml:space="preserve">
<style type="text/css">
	.st0{fill-rule:evenodd;clip-rule:evenodd;}
</style>
<path class="st0" d="M43.5,44.8c44.5,0,88.9,0,133.4,0c16.9,0,40.5-3.4,46.9,7.4c3.8,6.3,2,20.7,2,30.1c0,31.6,0,63.2,0,94.8
	c8.7,11,17.5,22.1,26.2,33.1c-0.2,1.5-0.3,3-0.5,4.4c-0.8,1-1.6,2-2.5,3c-80.7-0.2-161.4-0.3-242.1-0.5c-0.7-0.8-1.3-1.6-2-2.5
	c0.4-14.1,20.8-25.8,25.2-37.1c0-8.9,0-17.8,0-26.7c0-22.4,0-44.8,0-67.2c0-8.9-1.9-22.6,1-29.6C33.5,48.6,38.1,47.5,43.5,44.8z
	 M40.6,173.7c58.3,0,116.6,0,174.9,0c0-27.7,0-55.3,0-83c0-10.6,2.1-27.4-2-34.6c-41.3-0.2-82.7-0.3-124-0.5
	c-12,0-39.6-2.7-47.9,1.5c-2.5,10.3-1,25.6-1,37.5C40.6,121,40.6,147.4,40.6,173.7z"/>
<path class="st0" d="M126,72c57.1-0.6,59.6,76.7,5.4,85.5c-26.6,4.3-52.1-25.9-44.5-53.4c3.7-13.4,13.4-24.3,25.7-29.1
	C117.1,73.9,121.6,73,126,72z M144.3,90.2c-3.5,3.6-6.9,7.2-10.4,10.9c-9.9-1.8-19.8-3.6-29.6-5.4c-0.4,1.8-0.2,1.9,0.5,3.5
	c5.9,4.6,11.9,9.2,17.8,13.8c-0.3,0.3-0.7,0.7-1,1c-3.8,4.8-7.6,9.6-11.4,14.3c-3.1,0-6.3,0-9.4,0c0.3,0,0.7,0,1,0
	c3.4,3.6,7.3,7.5,10.9,10.9c0.2,0,0.3,0,0.5,0c-0.3-3-0.7-5.9-1-8.9c5.1-4.3,10.2-8.6,15.3-12.8c5.3,6.3,10.5,12.5,15.8,18.8
	c0.5-0.2,1-0.3,1.5-0.5c1.9-8.3-4.3-21.9-5.9-30.6c3.8-2.7,10-7.3,10.9-12.8c-0.5-0.7-1-1.3-1.5-2C146.9,90.2,145.6,90.2,144.3,90.2
	z"/>
</svg>
