<?xml version="1.0" encoding="utf-8"?>
<!-- Generator: Adobe Illustrator 21.0.0, SVG Export Plug-In . SVG Version: 6.00 Build 0)  -->
<svg version="1.1" id="Layer_1" xmlns="http://www.w3.org/2000/svg" xmlns:xlink="http://www.w3.org/1999/xlink" x="0px" y="0px"
	 viewBox="0 0 250 250" style="enable-background:new 0 0 250 250;" xml:space="preserve">
<style type="text/css">
	.st0{fill-rule:evenodd;clip-rule:evenodd;fill:url(#SVGID_1_);}
	.st1{fill-rule:evenodd;clip-rule:evenodd;fill:#B5B6B5;}
	.st2{display:none;}
	.st3{display:inline;}
	.st4{fill-rule:evenodd;clip-rule:evenodd;fill:#0000FF;}
	.st5{fill-rule:evenodd;clip-rule:evenodd;fill:#FF0000;}
</style>
<linearGradient id="SVGID_1_" gradientUnits="userSpaceOnUse" x1="149.9863" y1="76.2757" x2="245.55" y2="151.5577">
	<stop  offset="0" style="stop-color:#0000FF"/>
	<stop  offset="1" style="stop-color:#D9D9FF"/>
</linearGradient>
<path class="st0" d="M190.4,0.3c-1,5.7-2.1,11.5-3.1,17.2c-2.8,11.7-2.4,23.4-3.1,35.6c0.4,3.9,0.8,7.7,1.2,11.6
	c0.3,5,0.6,10,0.9,15c4.1,20.5,10.1,38.5,17.2,55.6c3.7,9.5,7.5,18.9,11.2,28.4c3.9-2.3,13.4-11.4,19.7-10c4.8,1.1,9.6,4.5,15.6,5.3
	c-0.2,0.1-0.4,0.2-0.6,0.3c-2.8,0.9-5.6,1.9-8.4,2.8c-13.7,11.1-27.5,22.3-41.2,33.4c-5.8,4.7-11.7,9.4-17.5,14.1
	c0.7-3.3,1.5-6.7,2.2-10c2.3-1.5,4.6-2.9,6.9-4.4c-0.1-0.1-0.2-0.2-0.3-0.3c-2.2,1.1-4.4,2.3-6.6,3.4c0.1-2.6,0.2-4.6,0.3-7.2
	c3-1,6.1-2.6,9.1-3.7c-0.1-0.1-0.2-0.2-0.3-0.3c-2.9,0.6-5.9,2-8.8,2.6c-0.2-4.3-0.4-9.2-0.6-13.5c6.6-0.5,13.1-1,19.7-1.6
	c-7-0.6-13.9-1.2-20.9-1.9c-0.8-7.4-4.7-13.2-6.9-19.4c7.2,3.1,14.4,6.2,21.5,9.4c0-0.1,0-0.2,0-0.3c-8.3-4.8-16.7-9.6-25-14.4
	c-1.9-2.9-3.7-5.8-5.6-8.7c-6.4-9.1-15.2-19.7-19-30.9c15.8,13.5,31.6,27.1,47.5,40.6c0-0.1,0-0.2,0-0.3
	c-16.8-16.5-33.5-33.1-50.3-49.6c-3.3-9.5,0.4-21.6,0.6-30.9c12.6,17.7,25.2,35.4,37.8,53.1c3.1,4.4,9.2,16.5,13.4,18.7
	c0-0.1,0-0.2,0-0.3c-11.9-19-23.7-38.1-35.6-57.1c-3.6-5.7-12.1-15.2-13.4-21.9c2.1-4.2,4.2-8.3,6.2-12.5c0,0.2,0,0.4,0,0.6
	c14.2,25.5,28.3,51,42.5,76.5c0.1,0,0.2,0,0.3,0c0-0.1,0-0.2,0-0.3c-13.1-27.5-26.2-55-39.3-82.4c1.1-3.8,4.5-6.7,6.6-9.7
	c3.1-4.6,6.2-9.2,9.4-13.7C179.1,12.8,184.7,6.5,190.4,0.3z"/>
<g>
	<path class="st1" d="M104,192.9c10.2,1.9,25.2,3.7,40.2,2c15.1-1.8,28.7-3.5,37.6-4.6c0.1-6.6-0.7-10.8-1.6-13.4
		c-6.8,1.3-22.2,3.4-40.1,0.7c-24.4-3.6-41.8-7.9-48.4-11.4c-1.1,5-1.2,6.4-1.2,6.4S93.2,182.5,104,192.9z"/>
	<path class="st1" d="M181,199.6c0.2-1.5,0.4-3,0.6-4.7c0.1-1.1,0.2-2.1,0.2-3.1c-5.4,1.3-12.7,2.9-21.8,4.5
		c-12.2,2.2-32.3,3.3-47.1,3.8c4,2.7,8.7,5.3,14.2,7.6c9.1,3.8,16.8,6.4,23.3,7.9L181,199.6z"/>
	<path class="st1" d="M155.4,216.5c9.1,1.4,15.8,0.2,21.4-2.9c1.4-3,3-7.1,4-12.4C176.4,203.7,164.3,211.1,155.4,216.5z"/>
</g>
<g class="st2">
	<g class="st3">
		<path class="st1" d="M156.5,179.4c0.2-0.2,0.9-0.6,1.1-0.8c-7-0.1-14.7-0.7-21.8-1.2c-13.3-2.4-26.7-4.9-38.1-9.2
			c-0.1,1.9-0.2,3.7-0.3,5.6l-6.9-1.1c1.1,2.4,3.5,7.8,4.6,10.1c3,3.8,9.4,6,12.3,9.9c3.5,2.1,9.4,0.7,14.5,1.5
			C139.1,197,152,191.2,156.5,179.4z M148,194.8c8.8-1.2,24.5-3.4,33.2-4.5c0.7-2.6,0.3-11.3-1.2-13.3c-3.5,0.3-10.1,0.8-13.6,1.1
			c-3.4,6.2-4.8,6.9-11.8,12.4C154.5,190.8,148.1,194.6,148,194.8z M147,197.4c-7.6,2.2-14.5,6.6-24.2,7.4c2.4,2.6,6.3,3.5,9.7,5
			c3,1.3,13.7,6.3,17.7,5.6c10.3-5.3,20.7-10.6,31-15.9c0.1-2.7,0.2-5.3,0.3-8c-7.2,1.6-14.4,3.2-21.6,4.7
			C155.7,196.6,151.3,197,147,197.4z M157,215.4l-0.3,0.6c9.6,2.8,20.7-0.7,22.4-7.7c0.4-1.8,2.1-6,1.2-7.1
			C172.6,206,164.8,210.7,157,215.4z"/>
	</g>
</g>
<g id="Layer_3">
</g>
<g id="Layer_2">
	<path class="st4" d="M80,130c0,0-52,1-71,22s-1,34,0,35s19,20,64,22c0,0,38,3,66-9s31.9-21,31-34c-1-14-25-25-25-25l-6,3
		c0,0,20,13,19,24c-1.1,12-4,23-23,29s-44,11-71,8c-24.4-2.7-53-18-50-40c2.4-17.3,37-28,42-29s24-3,24-3V130"/>
</g>
<path class="st5" d="M93.2,173c-10.7,0.2-35.4-21.6-43.7-27.5c-4.6-3.4-9.3-6.7-13.9-10.1c17.3,9.9,34.6,19.8,51.9,29.7
	c-1.5-16.4-3-32.9-4.4-49.4c-11.5-0.1-18.7,3.1-27.2,4.7c0.2-0.4,0.4-0.8,0.6-1.3c5.3-3,8.8-8.6,15.5-10.8
	c10.9-3.5,27.1,0.5,38.3-2.8c5-1.5,17-8.3,19.6-8.2c-7.9,10.4-18.8,15.1-33.9,18.7C95.1,135,94.1,154,93.2,173z"/>
</svg>
