<?xml version="1.0" encoding="utf-8"?>
<!-- Generator: Adobe Illustrator 21.0.0, SVG Export Plug-In . SVG Version: 6.00 Build 0)  -->
<svg version="1.1" id="Layer_1" xmlns="http://www.w3.org/2000/svg" xmlns:xlink="http://www.w3.org/1999/xlink" x="0px" y="0px"
	 viewBox="0 0 256 256" style="enable-background:new 0 0 256 256;" xml:space="preserve">
<path d="M88,227c-0.7-0.4-1.3-0.9-2-1.3c-7.3-3.8-9.2-10.6-4.8-17.6c7.5-11.8,15.1-23.5,22.5-35.4c1.5-2.3,2.5-5,3.2-7.7
	c3.5-14,6.6-28.2,10.2-42.2c0.6-2.4,2.6-5,4.7-6.3c8.8-5.5,18-10.6,26.7-15.7c7,7.4,5.7,15.6,3.1,23.6c-1.6,5.1-0.8,8.5,3.6,12
	c5.7,4.5,10.7,9.9,16.4,15.2c5.5-9.5,10.8-18.5,16.4-28.1c-7.2-2.8-14-5.7-21-8c-5.1-1.6-8.1-4.6-10-9.5c-2-5.1-4.4-10.1-7-14.9
	c-0.8-1.5-2.6-2.3-3.9-3.5c-0.1,1.7-0.4,3.5-0.3,5.2c0,0.9,0.7,1.8,1.3,3.3c-8.9,5.2-17.7,10.4-27.5,16.1c2.3-9.6,4.3-18.2,6.3-26.9
	c1-4.2,2-8.4,3-12.6c2-8.1,7.7-13.7,14.3-14.1c7.5-0.5,14.6,4.4,17.6,12.3c3.4,9,6.5,18.2,10.1,27.1c0.8,2.1,3,4.3,5.1,5.2
	c6.9,2.9,14,5.2,21.1,7.7c3.3,1.1,5.8,3.1,5.6,6.8c-0.2,3.8-2.2,6.4-6.2,7.5c-1.5,0.4-3.3,1.6-4.1,2.9c-5.4,9-10.6,18.1-16.3,27.9
	c9.6,5.4,7.4,14.8,7.6,23.5c0.2,11,0.2,22,0.2,33c0,7.9-4.5,12.8-11.5,12.8c-7.3,0-11.3-4.5-11.3-12.8c0-9.5,0-19-1.1-29
	c-8.3,14.5-16.7,29-25,43.5c-1,0-2,0-3,0c-2.2-2.1-1.7-4.2-0.2-6.6c6.2-10.4,12.2-21,18.3-31.4c3.4-5.8,6.8-11.7,10.3-17.8
	c-8.5-6.9-16.6-13.6-25.1-20.5c-0.6,2.5-1.1,4.1-1.4,5.7c-2.4,11.2-5.4,22.1-12.4,31.7c-7,9.7-12.8,20.2-19.5,30.1
	c-2.3,3.4-5.9,5.9-8.9,8.9C91.3,227,89.7,227,88,227z"/>
<path d="M101.7,104.9c0.4-1.7,0.8-3,1.2-4.5c-11.6-2.9-23-5.8-35-8.8c3.9-15.6,7.1-31,11.7-46c3.5-11.6,16.7-17.5,28.4-14.2
	c12.2,3.5,19.7,15.6,16.7,28.5c-6.6,28.2-13.7,56.2-20.7,84.3c-0.4,1.5-2.7,2.5-4.1,3.7c-0.7-1.8-1.9-3.6-1.9-5.3
	c0.1-2.7,1.1-5.4,1.9-8.7c-7-1.6-13.7-3.2-20.4-4.9c-2.1-0.5-4.2-1-6.3-1.6c-9-3-11.8-7.9-9.7-17.2c1-4.5,2.2-9,3.4-13.9
	C78.7,99.3,90,102.1,101.7,104.9z M83.4,74.2c8.9,2.2,17,4.2,25.4,6.3c1.9-7.4,3.5-14.1,5.2-20.7c-3.2-1.8-4.5-0.9-5.1,2.2
	c-0.9,4.4-2.2,8.6-3.4,13.3c-5.7-1.5-11.1-2.8-16.8-4.3c1.2-5,2.5-9.5,3.2-14c0.2-1.3-1.2-2.8-1.8-4.1c-0.6,0.2-1.1,0.4-1.7,0.6
	C86.8,60,85.2,66.7,83.4,74.2z"/>
<circle cx="164.5" cy="43.1" r="16.2"/>
</svg>
