<?xml version="1.0" encoding="utf-8"?>
<!-- Generator: Adobe Illustrator 21.0.0, SVG Export Plug-In . SVG Version: 6.00 Build 0)  -->
<svg version="1.1" id="Layer_1" xmlns="http://www.w3.org/2000/svg" xmlns:xlink="http://www.w3.org/1999/xlink" x="0px" y="0px"
	 viewBox="0 0 3000 400" style="enable-background:new 0 0 3000 400;" xml:space="preserve">
<style type="text/css">
	.st0{display:none;}
	.st1{display:inline;fill:#FF0000;}
	.st2{fill:#FF0000;}
	.st3{fill:#0000FF;}
</style>
<g class="st0">
	<rect x="2600" class="st1" width="400" height="60"/>
</g>
<g class="st0">
	
		<rect x="2279.8" y="132.6" transform="matrix(0.7071 -0.7071 0.7071 0.7071 611.3142 1801.1122)" class="st1" width="400" height="60"/>
</g>
<g>
	<polygon class="st2" points="2314.9,370 2284.9,400 10,400 10,370 	"/>
</g>
<g>
	<polygon class="st2" points="2361.2,323.7 2331.2,353.7 10,353.7 10,323.7 	"/>
</g>
<g>
	<polygon class="st2" points="2407.5,277.3 2377.5,307.3 10,307.3 10,277.3 	"/>
</g>
<g>
	<polygon class="st2" points="2600,0 2369,231 10,231 10,261 2339,261 2423.9,261 2453.9,231 2624.9,60 3000,60 3000,0 	"/>
</g>
<g>
	<polygon class="st3" points="2633,76 2309,400 2393.9,400 2657.9,136 3000,136 3000,76 	"/>
</g>
</svg>
