<?xml version="1.0" encoding="utf-8"?>
<!-- Generator: Adobe Illustrator 21.0.0, SVG Export Plug-In . SVG Version: 6.00 Build 0)  -->
<svg version="1.1" id="Layer_1" xmlns="http://www.w3.org/2000/svg" xmlns:xlink="http://www.w3.org/1999/xlink" x="0px" y="0px"
	 viewBox="0 0 3000 400" style="enable-background:new 0 0 3000 400;" xml:space="preserve">
<style type="text/css">
	.st0{display:none;}
	.st1{display:inline;fill:#FF0000;}
	.st2{fill:#FF0000;}
	.st3{fill:#0000FF;}
	.st4{fill:none;stroke:#EEEEEE;stroke-miterlimit:10;}
</style>
<g class="st0">
	<rect x="2600" class="st1" width="400" height="60"/>
</g>
<g class="st0">
	
		<rect x="2279.8" y="132.6" transform="matrix(0.7071 -0.7071 0.7071 0.7071 611.3137 1801.082)" class="st1" width="400" height="60"/>
</g>
<g>
	<polygon class="st2" points="2314.9,370 2284.9,400 10,400 10,370 	"/>
</g>
<g>
	<polygon class="st2" points="2361.2,323.7 2331.2,353.7 10,353.7 10,323.7 	"/>
</g>
<g>
	<polygon class="st2" points="2407.5,277.3 2377.5,307.3 10,307.3 10,277.3 	"/>
</g>
<g>
	<polygon class="st2" points="2600,0 2369,231 10,231 10,261 2339,261 2423.9,261 2453.9,231 2624.9,60 3000,60 3000,0 	"/>
</g>
<g>
	<polygon class="st3" points="2633,76 2309,400 2393.9,400 2657.9,136 3000,136 3000,76 	"/>
</g>
<g>
	<path id="kalimantan" class="st4" d="M2868.3,255.7l-1.8,6.8l-9.9,3.3l-3-3.5l-1.4,0.4l2.7,10.3l4,0.4l5.4,2v2l2.5-0.4l3.6-4.9v-4
		l2-4l2.2,0.4l-2.7-5.6l-0.4-3.6L2868.3,255.7L2868.3,255.7z"/>
	<path id="papua_new_guinea" class="st4" d="M2924.3,274.5l-0.3,19.3l2.8-0.1l3.6-4.3l3.1,0.1l2,1.8l0.7,5.4l6.3,3.3l1.6-0.6v-2
		l-5-4.2l-2.5-5.7l2-1l-1.5-3.2l-2.9-0.1l-0.7-3.4l-7.7-5.2L2924.3,274.5L2924.3,274.5z"/>
	<path id="mexico" class="st4" d="M2360.7,177.7l3.8,12l-1.8,1l0.2,2.4l3.3,2.6v4.8l4.1,4l-1.8-11.7l-2.4-7.7l0.6-5.4l2,0.2l0.8,1.8
		l-0.8,4.6l10.2,20v7.1l8.3,9.7l9.1,4.2l3.7-2.2l5.3,4.4l3.2-3.2l-1.4-3.6l4.5-1.4l1.4,0.8l1.4-1.4h2.2l3.9-7l-2-1.8l-7.7,1.8
		l-1.8,5.2l-4.5,0.8l-5.3-2.2l-2.4-7.5l1.8-9.5l-3.7-2.3l-1.7-9.1l-1.5-0.6l-2.7,2.7l-3.1-1.6l-1.2-6.1l-12.1-1.3l-6.3-4.7
		L2360.7,177.7L2360.7,177.7z"/>
	<path id="estonia" class="st4" d="M2660.3,113.3l-4.4-0.2l-2.8,1.7v1.3l1.8,1.7l5.6,1L2660.3,113.3L2660.3,113.3z"/>
	<path id="algeria" class="st4" d="M2625.8,179.3l-3.2-1.1l-13.4,2.5l-2.9,2.2l1.8,9.2l-5.3,0.2l-3.2,5.1l-7.6,1.8v3.7l25.1,19.2
		l4.3,0.4l14.3-11.2l-1.4-1.8l-2.7-0.4l-1.6-2.7v-11.2l-1.1-1.1l0.2-2.9l-2.9-2.9l-0.4-3.1l1.2-0.9l-0.5-3.2L2625.8,179.3
		L2625.8,179.3z"/>
	<path id="morocco" class="st4" d="M2605.6,183.1h-9.1l-1.8,4l-4.1,2l-3.4,9.2l-6.6,4l-9.3,15.3l9.1-0.2l0.4-4.5h2.3v-6.1h8l0.2-7.9
		l7.7-1.8l3.2-5.2l5-0.2L2605.6,183.1L2605.6,183.1z"/>
	<path id="mauretania" class="st4" d="M2571.4,218.1l1.7,2.2l-0.4,9.7l2.5-1.8l1.8-0.4l2.5,0.9l2.9,4l2.7-1.8l13-0.2l-3.2-21.8h3.5
		l-6.4-4.9v3.2h-8.1v6.1h-2.3l-0.3,4.5L2571.4,218.1L2571.4,218.1z"/>
	<path id="senegal" class="st4" d="M2575.5,228.8l-3.1,2.3l-0.7,1.3l-0.2,1.3l1.1,0.8l3.8-0.1l2.5-0.7l0.3,1.2l-0.2,1.6l2.3,1.2
		l0.5,0.6l3.1,0.1l0.1-1.4l-2.8-3.4l-3.2-4.3l-2-0.8L2575.5,228.8L2575.5,228.8z"/>
	<path id="gambia" class="st4" d="M2573,235.2l-0.1,0.9l5.5-0.1l0.3-0.8l-0.1-0.8l-1.6,0.6L2573,235.2L2573,235.2z"/>
	<path id="casamance" class="st4" d="M2572.9,236.6l1,2.4l0.5-1.5l6.6,0.7l-2.9-1.5L2572.9,236.6L2572.9,236.6z"/>
	<path id="bissau" class="st4" d="M2574.3,240l1.1,2.2l3.1-2.7v-0.8l-3.6-0.5L2574.3,240L2574.3,240z"/>
	<path id="guinee" class="st4" d="M2575.7,242.7l2.4,3.7l3.1-2.7l3.2-0.1l2.7,3.5l2.3,1.5l0.9-1.7l0.8-0.4l-0.1-3.6l-1.5-4.3
		l-4.6,0.5l-5.7-0.5v1.5L2575.7,242.7L2575.7,242.7z"/>
	<path id="sierra_leone" class="st4" d="M2578.5,246.8l4.5,4.3l3.2-3.9l-2-3.1l-2.7,0.3L2578.5,246.8L2578.5,246.8z"/>
	<path id="liberia" class="st4" d="M2583.4,251.6l8.7,5.8l-0.2-4.4l-2.6-3.1l-2.6-2.3L2583.4,251.6L2583.4,251.6z"/>
	<path id="ivoire" class="st4" d="M2592.8,257.6l3.4-2.4l4.2-0.7l4.3,0.9l-2.2-3.3l-0.6-2l0.6-6l-3.8,0.2l-1.7-1.7l-3.6,0.1
		l-1.7,0.3l0.2,4l-0.9,0.4l-1.1,2l2.8,3.3L2592.8,257.6L2592.8,257.6z"/>
	<path id="mali" class="st4" d="M2582.9,233.2l2.4-1.7l13.5-0.1l-3.1-21.7l3.6-0.1l17.2,13.2l2.3,0.3l-0.9,7.3l-10.8,1l-8.4,6.2
		l-1.5,4.3l-5.8,0.2l-1.5-4.3l-4.5,0.3l0.2-1.4L2582.9,233.2L2582.9,233.2z"/>
	<path id="burkina" class="st4" d="M2607.4,232l2.9-0.2l4.7,6.7l-4.4,3.3l-3.2-0.8l-4.2,0.1l-0.7,2.5l-3.6,0.2l-1-1.3l1.3-4.1
		L2607.4,232L2607.4,232z"/>
	<path id="niger" class="st4" d="M2615.5,238.1h2l1.8-2.7l3-0.5l3.2,2l6.9,0.2l5.3-2.2l2-1.7l0.1-2.3l3.7-3.8l1-8.3l-2.5-5.1
		l-6.3-1.5l-14.5,11.3l-2.1-0.2l-0.9,7.9l-7.4,0.7L2615.5,238.1L2615.5,238.1z"/>
	<path id="ghana" class="st4" d="M2602.5,249.9l0.9,2.1l2.3,3.6h1.3l3.5-2l-0.2-11.3l-2.7-0.8l-3.8,0.1L2602.5,249.9L2602.5,249.9z"
		/>
	<path id="togo" class="st4" d="M2611.1,253.2l2.1-1.2v-8.2l-1.4-2.2l-0.9,0.7L2611.1,253.2L2611.1,253.2z"/>
	<path id="benin" class="st4" d="M2613.8,251.8h1.7l0.1-4.7l2.1-3.1l-0.1-5.3h-1.9l-3.3,2.6l1.4,2.6V251.8L2613.8,251.8z"/>
	<path id="nigeria" class="st4" d="M2616.1,251.7l3.1,0.1l3.7,4.2l1.8,0.5l1.4-0.7l2.2-0.3l0.7-3l2.9-1.9l3.2-0.1l5.8-10.7l-0.1-2.4
		l-2.7-2.1l-5.4,2.4l-7.2-0.1l-3.4-2.2l-2.5,0.5l-1.3,2.2l-0.1,6.3l-2.1,2.9L2616.1,251.7L2616.1,251.7z"/>
	<path id="tunisia" class="st4" d="M2626.6,179.2l4.4-1.8l1.4,0.9l0.1,1.1l-0.7,0.9l0.1,1.6l0.7,0.4v2.8l-0.8,1.3l0.1,0.8l2.9,1
		l-2.4,3.7l-0.9-0.1l-0.2,2.9l-1,0.2l-0.9-0.8l0.2-3l-2.9-2.8l-0.4-2.4l1.4-1.1L2626.6,179.2L2626.6,179.2z"/>
	<path id="libya" class="st4" d="M2630.6,195.5l1.2-0.2l0.4-2.8h0.6l2.5-4.1l6.2,1.8l1.7,2.6l6.1,2.8l3.2-1.3l-0.3-1.3l-1.4-1.3
		l0.2-0.9l2.3-1.9h4.5l1.7,2.3l3.6,0.5l0.5,29.1l-2.7-0.1l-16.1-8.4l-1.7,1l-6.6-1.7l-1.8-2.4l-2.6-0.4l-1.3-2.4L2630.6,195.5
		L2630.6,195.5z"/>
	<path id="egypt" class="st4" d="M2663.6,191.6l2.1,0.1l4.1,1.1l1.9,0.1l2.4-2h1.1l2,1.1h2.6h0.5l1.6,4.7l0.5,1.5l0.4,2.3l-0.8,0.6
		l-1.3-0.7l-1.5-5l-1.4-0.1l-0.1,1.7l0.9,2.9l7.4,9.1l0.2,3.9l-2.2,2.5l-20.2-0.2L2663.6,191.6L2663.6,191.6z"/>
	<path id="chad" class="st4" d="M2640.7,233.3l0.1-2.3l3.7-3.6l1-8.9l-2.5-4.8l1.7-0.9l16.9,8.8l-0.1,8.6l-3,2.5v4.4l1.9,3.8h-3.4
		l-5.7,5.6l-0.1,1.7l-4.2-0.1l-0.1,0.8l-2.4-0.3l-1.6-3.1l-1.2-0.6l0.2-0.9l1.5-1.2v-5.5l-2.1-0.3l-2.6-1.9L2640.7,233.3
		L2640.7,233.3L2640.7,233.3z"/>
	<path id="south_sudan" class="st4" d="M2685,244.6l-2.3-3.9l-0.2-2.8l-0.6,0.1l-0.2,0.9l-3,4.4l-2.4-1.2l-2.4,2l-5-0.3l-2.2-1.8
		l-3.2,1.6l-0.1,1.1l-1,0.6l9.7,10l5.3,0.3l0.8,1.2l7.6,0.1l0.1-1.7l0.6-1.2l2.5-0.3l-3.1-4.6h-2.3l-0.6-3.2l1.9-0.8L2685,244.6z"/>
	<path id="sudan" class="st4" d="M2687.3,213.3l-2.9,2.9l-20.3-0.2l0.2,5.2l-1.9-0.1l-0.1,9.3l-2.9,2.5l-0.1,3.9l2.1,4.2l2.3,1.4
		v0.3l3.2-1.6l2.4,1.9l4.4,0.3l2.6-2.2l2.3,1.1l2.6-3.7l0.2-1.2l2-0.4l0.3,3.5l2,3.3l4.7-10.2v-6.2l3.4-4.1L2687.3,213.3z"/>
	<path id="cameroon" class="st4" d="M2628.9,255.6l2.5,2.3l-0.2,3.6l13.9-0.3l1.1-1.3l-4-4.3l-0.6-1.6l2.5-4.8l-1.7-3.2l-1.4-0.8
		v-1.6l1.7-1.1l0.1-5l-1.3-0.1v2.6l-5.8,10.9l-3.6,0.2l-2.5,1.7L2628.9,255.6L2628.9,255.6z"/>
	<path id="eritrea" class="st4" d="M2691,232.3l-0.2-4.6l3.1-3.6l0.8,0.6l1.5,5.1l7.4,5.5l-1.3,1.6l-5.4-4.6H2691L2691,232.3z"/>
	<path id="djibouti" class="st4" d="M2702.7,237.7l-0.4,2.6h3.1v-3.9l-1.1-0.7L2702.7,237.7L2702.7,237.7z"/>
	<path id="ethiopia" class="st4" d="M2685.3,245.7l5.7-12.8h5.7l5.1,4.4l-0.4,3.6h3.9l0.4,2.2l6.3,3.8l3.9,0.2l-7.4,8l-10.2,3.1
		h-2.5l-4.5-3.8l-1.8-0.7l-3.5-5.1h-2.3l-0.3-2.3L2685.3,245.7L2685.3,245.7z"/>
	<path id="somaliland" class="st4" d="M2706,240.4l3.2,2.2h1l8-2.7l0.9,2.9l-0.6,2.5l-1.7,1.4l-4.3-0.3l-6.2-3.8L2706,240.4
		L2706,240.4z"/>
	<path id="soqotra" class="st4" d="M2724.8,236.2l1.7,1.9l2.3-1.4l0.8-0.3l-1-1l-2,0.6L2724.8,236.2L2724.8,236.2z"/>
	<path id="somalia" class="st4" d="M2718.8,239.7l3.4-1.3l1.2,0.7l-0.1,3.1l-3.2,9l-17.2,18.4l-2-1.4l-0.1-7.8l2.6-3l5.5-1.7l8-8.5
		l2.1-1.9l0.6-2.7L2718.8,239.7L2718.8,239.7z"/>
	<path id="centrafrique" class="st4" d="M2642.9,255.4l3.7,4l1.4-1.9l2.3,0.1l0.5-1.8l2.3-1.4l4.7,3.2l2.7-2.7l10.6,0.5l-9.8-10.1
		l1.3-0.8l0.2-1.8l-2.2-1h-3.3l-5.3,5.2l-0.2,2.1l-4.2-0.1l-0.1,0.9l-2.7-0.3l-2.5,4.7L2642.9,255.4L2642.9,255.4z"/>
	<path id="sao_tome" class="st4" d="M2623.3,265.8l0.9-0.5l0.7,0.6l-0.7,1l-0.8-0.3L2623.3,265.8L2623.3,265.8z"/>
	<path id="principe" class="st4" d="M2625.1,262.9l1.4-0.2l0.5,0.9l-0.7,0.7l-0.7-0.1L2625.1,262.9L2625.1,262.9z"/>
	<path id="bioko" class="st4" d="M2628.1,258.1l-0.4,1.6l1.1,0.6l1-0.8l-0.4-1.6L2628.1,258.1L2628.1,258.1z"/>
	<path id="gabon" class="st4" d="M2635.6,262.2l-0.1,2l-4.4-0.1l-2.7,5.3l6.4,7l1.6-1.3v-1.4l-1.1-0.5v-1l2.5-1.6l2.2,1.6h2.4v-8.3
		l-3.8-0.2V262L2635.6,262.2L2635.6,262.2z"/>
	<path id="equatorial_guinea" class="st4" d="M2631.4,262.2v1.1l3.6,0.2v-1.2L2631.4,262.2L2631.4,262.2z"/>
	<path id="congo" class="st4" d="M2639.2,262.1v1.1l3.8,0.1l0.1,9.8l-3.4-0.1l-2-1.6l-1.5,0.9l-0.1,0.4l0.8,0.4l0.2,2l-2.1,1.8
		l0.5,1l2.4-1.8h1.1l0.4,1.1l1.5,0.6l4.8-4.1l-0.1-3l1-2.4l3.1-2.3l0.8-7.7h-2.2l-2.5,3.5L2639.2,262.1L2639.2,262.1z"/>
	<path id="cabinda" class="st4" d="M2635.7,278.4l1.4,1.8l1.8-1.7l-0.5-1.7h-0.4L2635.7,278.4L2635.7,278.4z"/>
	<path id="drc" class="st4" d="M2638,280.4l8.1-0.1l1.6,2.3l-0.1,1.7l0.6,0.6h4l1.2-2.3h1.6l0.7,0.7l2.3-0.1l0.7,7.9l3.9,0.1v0.6
		l10.5,4.7l0.5,0.9h2.2l-0.2-3.3l-4-1.9l0.2-2.5l1.7-4l3.9-0.1l-3.4-11.1l0.1-4.7l5.3-8.3l0.1-1.2l-0.8-0.4v-2.3l-1-0.1l-1-1.2
		l-16-0.7l-2.9,2.9l-4.8-3.2l-1.7,1l-1.2,10.3l-3,2.3l-0.9,2.1l0.2,3.1l-5.5,4.5l-1.5-0.7l0.2,0.9L2638,280.4L2638,280.4z"/>
	<path id="rwanda" class="st4" d="M2676.1,267.9l2.2,2l-0.1,2.2l-3.4,0.1v-2.4L2676.1,267.9L2676.1,267.9z"/>
	<path id="burundi" class="st4" d="M2674.9,272.9l3.4-0.1l-0.9,2.9l-0.9,0.7h-1l-0.7-2L2674.9,272.9L2674.9,272.9z"/>
	<path id="uganda" class="st4" d="M2676.5,267.3l2.4,2.2l1.5-1l4.1-0.7l0.7,0.1l0.3-1.5l2.3-4.8l-1.9-4h-6.2v1.6l0.8,0.8l-0.1,1.6
		L2676.5,267.3L2676.5,267.3z"/>
	<path id="kenya" class="st4" d="M2686.4,257.4l2.1,4.1l-2.5,5.3l-0.3,1.6l12.6,7.8l3.9-6.1l-2-1.6v-8.1l2.5-2.7l-3.9,1.3h-3
		l-4.6-3.9l-1.5-0.6l-2.7,0.3l-0.5,0.8L2686.4,257.4L2686.4,257.4z"/>
	<path id="tanzania" class="st4" d="M2686.2,292.8l13.8-1.7l-3.1-6l-0.2-5.7l1-2.7l-13.1-8.2l-4.1,0.7l-1.4,1.1l-0.1,2.4l-0.9,3.3
		l-1,1.1l-1.4,0.1l2.6,9.1l4.3,2l3,0.1L2686.2,292.8L2686.2,292.8z"/>
	<path id="zambia" class="st4" d="M2657.8,303.2l2.5,3.5l3.9,0.2l1.4,0.8h4.1l3.5-4.9l9.8-4.4l0.9-3.8l-1.1-5.5l-5.1-2.9l-3.4,0.2
		l-1.7,3.8v1.7l4,1.9l0.2,4.2l-3.4,0.2l-0.9-1.4l-9.6-4.1l-0.3,3.1l-4.5,0.1L2657.8,303.2L2657.8,303.2z"/>
	<path id="angola" class="st4" d="M2637.4,281.2l2.7,10l-0.1,3.2l-3.9,4.2l-0.6,6.9l15.1,0.1l4.9,1.8l4.1-0.5l-2.4-3v-8.5l4.6-0.2
		v-3.3l-3.8-0.2l-0.8-7.8h-1.6l-0.9-0.8h-0.9l-1.2,2.4h-4.8l-1.1-1.1l0.3-1.6l-1.3-1.9L2637.4,281.2L2637.4,281.2z"/>
	<path id="malawi" class="st4" d="M2683.5,299l2.5,2.6v3.3l0.5,1.4l3.3-3.5l-0.4-4.5l-1.7-1.3l-1.6-7.8l-2.7-0.1l1.2,5.7L2683.5,299
		L2683.5,299z"/>
	<path id="mozambique" class="st4" d="M2678.8,325.7l2.1,1.8l5-3l0.8-4.5v-7.5l8-6.6h1.4l4.9-4.7l-0.8-9.6l-12.9,1.6l0.4,2.9
		l2.2,1.7l0.5,5.2l-4.3,4.2l-1-2.4l0.2-3.1l-2.5-2.7l-6.1,2.9l5.7,2.9l0.2,8.5l-3.8,5.6L2678.8,325.7L2678.8,325.7z"/>
	<path id="zimbabwe" class="st4" d="M2665.8,309.2l7.1,8l5.4,1.4l3.6-5.7l-0.3-7.5l-5.9-3l-2.2,1l-3.3,5h-4.6L2665.8,309.2
		L2665.8,309.2z"/>
	<path id="namibia" class="st4" d="M2643.6,332.6l2.6,0.2l1.6,1.6h3.7l0.9-10.4v-6.8l2.4-0.5l0.9-7.2l6-0.2l2.1-1.8l-3.6-0.1
		l-4.9,0.7l-5.2-1.9h-14.7l0.4,4.2l4.9,7.2l-0.9,3.7v1.9L2643.6,332.6L2643.6,332.6z"/>
	<path id="botswana" class="st4" d="M2653,324.1l1.7,0.5l-0.2,4.8l1.7,0.2l4-3.6l4.8,0.5l1.3-3.2l6.1-5.6l-7.3-8.4l-0.1-1.4
		l-0.8-0.2l-2.2,2l-5.8,0.1l-0.8,7.2l-2.3,0.5L2653,324.1L2653,324.1z"/>
	<path id="swaziland" class="st4" d="M2678.5,326.3l-2,0.3l-0.9,2.3l1.5,1.4h1.8l1.6-2.2L2678.5,326.3L2678.5,326.3z"/>
	<path id="lesotho" class="st4" d="M2667.9,335.3l2.4-1.9h1.1l1.4,1.7l-0.1,1.7l-2.3,0.9v0.7l-2.5-0.1l-0.6-1.9L2667.9,335.3
		L2667.9,335.3z"/>
	<path id="south_africa" class="st4" d="M2673.3,318.1l-6.2,5.8l-1.5,3.6l-4.9-0.6l-4.1,3.6l-2.7-0.3l0.2-5l-1-0.3l-0.7,10.3h-4.8
		l-1.5-1.7h-2.1l1.9,5.6l3.5,3.3l-2.5,2.9l1.6,3.6l3.7,1.4l3-2.5h8.5l0.6-0.8l3.8-0.7l12.7-12.7v-4l-1.4,1.8h-2l-2.5-2.1l1.3-3.1
		l2.2-0.4l-0.2-6.4L2673.3,318.1L2673.3,318.1z M2670.3,332.7h1.2l1.9,2.1l-0.1,2.4l-2.3,1.1l-0.1,0.8h-3.5l-1.1-2.6l1-1.9
		L2670.3,332.7L2670.3,332.7z"/>
	<path id="greenland" class="st4" d="M2505.4,39.5l-1.1,1.7l1.9,1.9l-0.9,1.9l2.8,3.6l3.4-1.1l4.5-0.4l5.1,5.6l3.4,9.2l-2.8,5.8
		l3.9-0.6l2.1,1.3l0.2,2.8l-4.7,0.2l2.6,2.6l3.2,0.6l-7.1,9.4l-0.9,5.8l1.5,4.7l-1.1,2.8l1.9,6l3.6,4.1l1.1-0.2l2.4-0.6l0.2,3.4
		l1.5,2.1l2.8-0.2l2.1-7.9l6.4-7.9l9.6-3.9l6-7.5l2.8,1.3h5.8l4.7-4.7l5.8-2.4l0.6-3.6l-3.6-3.2l-3.2-1.1l-1.7-4.5l4.1-2.4l6.4,3.4
		l2.1-2.4l-3.4-1.9l7.3-9.9l-1.3-4.3l-3.4-0.2l1.3-3.9l4.3-1.9l8.8-7.7l-2.6-2.8l-9.9,0.9l-5.1,5.1l3-6.6l-3.4-0.9l-1.9,3.4
		l-2.8-2.4l-7.7,0.9l2.1-3.4l12.6-0.4l-3.2-4.3l-13.7-2.6l-5.6,0.9l0.2,2.8l-5.8-1.9l0.2-1.9l-4.1,0.9l-0.9,2.1l4.3,1.5l-4.5,3.2
		l-3.2-3.6l-4.5-1.3l-0.6,3.4h-4.5l-1.7-3.6l-7.1-1.1l-3.9,1.9l-0.2,2.6l-4.9-0.6l-3,1.3l0.2,3v1.5l-5.6,1.1l-2.6-1.7l-1.7,2.8
		l2.6,2.8l5.4-0.6l0.4,1.7l-4.1,1.9L2505.4,39.5L2505.4,39.5z"/>
	<path id="disko" class="st4" d="M2522.5,73l1.3,1.9l-0.6,2.4h-1.3l-1.7-1.9l0.4-1.5L2522.5,73L2522.5,73z"/>
	<path id="milne" class="st4" d="M2576.1,67.6l3.6,1.1l-0.2,3l-3.9-1.9l-0.9-1.1L2576.1,67.6L2576.1,67.6z"/>
	<path id="east_antarctica" class="st4" d="M2558.5,491l3-4l11.7-6l2-4.4l5-1l4.7-6l4.7-0.3l1-4.7l4-3l3.4,1l9.7-3l2.3,2.3l4.4,0.3
		l4-2l24.1-0.3l8.7,2.3l11.1-2.3l3.7,0.3l1-3.4h3.7l5,5.4l9.4-6l10.4-3l3.7,2.3l0.3-4.7l5.4-0.7l5.7,2.7v2.7l14.4,6l4-0.3l1.7,2
		l-4.7,5.4v3.7l4.4,2.3l1-2.3l19.8-7.7l14.4-1.3l3,1.7l11.4,1.7l2.7,1l3.7-2l5.4-0.3l5,3.7l0.3,4l11.4-2.3l1.7,0.7l0.7,3.7l10.4,3.4
		l3.4-2.3l0.3,3l3.7,0.3l5,4l4.7-2l4,0.3h3l2-0.3l0.3,5.4l6.7,4L2558.5,491L2558.5,491z"/>
	<path id="antarctic_peninsula" class="st4" d="M2457.2,491l10.7-3l0.7-3l11.4-2.7l6.7,1.7l14.8-6l-0.3-6.4l-4.4-6.7l1-1.7l-1.7-4.4
		v-4.7h2.7l-1.7-3.4l12.1-10.4l-0.3,4.7l-2.3,0.7l-2.3,4l2.3,1l-2.3,3.4l-2.7-0.7l-1.3,3l0.3,4l4-0.3l2.7,3.7l1,4.7l5.4,6.7l0.3,8.4
		l-2,1l1.7,4.4l-1,1.7L2457.2,491L2457.2,491z"/>
	<path id="thurston" class="st4" d="M2449.5,485l4-0.7l1.7,1.3l-0.7,1.7l-0.3,2l-2.3,1l-1.7-2h-6.7V487l3-0.7L2449.5,485L2449.5,485
		z"/>
	<path id="alexander" class="st4" d="M2492.4,463.2l-3.4,0.7l2,3.7l2.3,1l-1,2v1.3l-6.4,1.7l0.7,2l2.7,1l3-2.3l2.7,0.7l-1.7,2.7
		l1,0.7l3-1.3l2.3-4.4L2492.4,463.2L2492.4,463.2z"/>
	<path id="smyley" class="st4" d="M2485.4,478.3l-2.7,2.3l2.3,0.7l3,0.7l3-2l-3-0.7L2485.4,478.3L2485.4,478.3z"/>
	<path id="robert" class="st4" d="M2504.2,438.6l-2,0.4l-0.4,2l3.8-0.6L2504.2,438.6L2504.2,438.6z"/>
	<path id="king_george" class="st4" d="M2507.3,435.5l-2.4,0.4l0.4,1.8l2.9-0.1L2507.3,435.5L2507.3,435.5z"/>
	<path id="james_ross" class="st4" d="M2511.1,439.1v2.8l1.6,0.1l1.3-2.1L2511.1,439.1L2511.1,439.1z"/>
	<path id="elephant" class="st4" d="M2511.8,431.3l-1.7,0.7l-0.4,1.6l1.5,0.5l2.5-1.7L2511.8,431.3L2511.8,431.3z"/>
	<path id="australia" class="st4" d="M2852.1,337.3l-0.3,20l-3.1,2.3l-0.3,2l4.2,2.8l10.3-2h5.3l2-2.8l11.7-2.3l8.4,2.5l-0.6,3.4
		l1.1,3.4l6.4-1.1l0.3,1.7l-4.2,3.1l1.4,1.1l3.1-1.1l-0.8,9.3l5.9,4.5l3.4-1.1l1.7,1.7l9.8-1.4l9.2-14.9l3.4-0.8l6.7-12.4l1.7-10.7
		l-4.2-5.4l1.7-1.1l-3.4-10.4l-3.6-2.5l0.6-14.1l-3.4-2.5l-0.8-7.9h-1.7l-5.6,18.6l-3.1,0.3l-7-7l3.9-10.4l-7.3-1.4l-8.1,2.3
		l-2.2,6.5l-3.6,0.8l-0.3-4.5l-14.8,9l0.3,3.4l-2.2,3.1h-5.6l-12,5.1L2852.1,337.3L2852.1,337.3z"/>
	<path id="tasmania" class="st4" d="M2903,391.1l-1.4,5.6l0.3,3.9l4.2-0.3l4.8-7.3L2903,391.1L2903,391.1z"/>
	<path id="new_zealand_north_island" class="st4" d="M2971.8,379.9l0.8,9.3l-1.1,4.2l-4.2,3.1l0.3,3.7v3.9l1.1,1.4l11.5-9.9v-2.3
		h-2.8l-3.9-13.2L2971.8,379.9L2971.8,379.9z"/>
	<path id="new_zealand_south_island" class="st4" d="M2963.4,400.1l2.2,4.2l-6.2,5.9l-0.6,3.1l-4.2,0.6l-7,6.5l-6.4-3.1l-0.6-2.3
		l11.7-5.1L2963.4,400.1L2963.4,400.1z"/>
	<path id="new_caledonia" class="st4" d="M2966.8,331.4l-0.3,1.4l3.6,5.1l2,0.8l0.3-2L2966.8,331.4L2966.8,331.4z"/>
	<path id="sumatra" class="st4" d="M2821.7,250.3l-0.2,1.8l5.4,9h1.6l11.2,18.7l4.5,0.4l2.2-6.5l-3.6-2.2l-0.7-3.6L2821.7,250.3
		L2821.7,250.3z"/>
	<path id="east_malaysia" class="st4" d="M2854.5,262.4l2.4,2.8l9.1-3.2l1.8-7l4.1-0.3l3.7-2.7l-4.8-3.5l-1.1-1.9l-2.4,4.4l0.9,2.5
		l-1.4,2.1l-2.7-0.7l-6.6,4.9l0.2,2.8L2854.5,262.4L2854.5,262.4z"/>
	<path id="brunei" class="st4" d="M2866.8,251.6l-2.3,2.8l1.9,0.6l1-1.5L2866.8,251.6L2866.8,251.6z"/>
	<path id="sulawesi" class="st4" d="M2874.5,275.2l1.8,2.2l-1.2,3.3v0.6h2.6l0.9-8.2l0.9,0.2l1.5,7.5l1.5,0.4l1.4-3.2l-1.4-4.8
		l-1.2-2.1l3.6-2.7l-0.9-1.2l-3.5,2.3h-0.9l-1.7-2.5l0.5-1.1l2.9-1.4l4.3,1.3l1.3-0.1l3.3-3l-1.3-1.3l-3,2.3h-1.9l-2.9-1.4l-2.1,0.1
		l-2.3,3.7l-1.5,6.5L2874.5,275.2L2874.5,275.2z"/>
	<path id="maluku" class="st4" d="M2893.9,260.5l-1.5,3.6l2.3,3h0.8l1-2l0.5-0.7l-1-1.1l-1.5-0.5L2893.9,260.5L2893.9,260.5z"/>
	<path id="seram" class="st4" d="M2898.5,272.3l-3.2,0.7l-0.9,1l0.8,1.3l2.1-0.8l1.3-0.8l1.9,1.6l0.9-0.7l-1.5-1.9L2898.5,272.3
		L2898.5,272.3z"/>
	<path id="java" class="st4" d="M2845.8,282.4l-2.2,1.5l0.5,1.2l6.9,1.6l3.5,0.6l1.5,1.6l3.9,0.3l1.9,1.6l1.7-0.4l1.6-1.4l-2.9-1.3
		l-2.5-2.1l-6.4-1.6L2845.8,282.4L2845.8,282.4z"/>
	<path id="bali" class="st4" d="M2868.4,289.2l-1.7,0.9l1,1.1l2.5-0.9L2868.4,289.2L2868.4,289.2z"/>
	<path id="lombok" class="st4" d="M2871.3,288.5l0.3,1.5l1.8,0.5l0.7-0.9l-0.8-1.2L2871.3,288.5L2871.3,288.5z"/>
	<path id="sumba" class="st4" d="M2875.6,292.4l-2.2,0.3l1.9,1.6h1.5L2875.6,292.4L2875.6,292.4z"/>
	<path id="flores" class="st4" d="M2876.2,289.8l-0.5,0.9l3.5,0.5l2.7-1.6l-1.5-0.5l-2.5,0.7l-0.9-0.8L2876.2,289.8L2876.2,289.8z"
		/>
	<path id="timor" class="st4" d="M2887.6,290.4l-4,3.4l0.4,0.9l1.7-0.3l2-1.9l3.9-0.5l-0.8-1.3L2887.6,290.4L2887.6,290.4z"/>
	<path id="new_ireland" class="st4" d="M2946.2,275.1l-0.7,1l3.8,3.4l0.5,2l1-0.1l0.1-2l-1.2-1L2946.2,275.1L2946.2,275.1z"/>
	<path id="new_britain" class="st4" d="M2948.1,279.8l-0.7,0.2l-0.5,2l-1.4,0.9l-4.3,0.8l0.2,1.6l4.5-0.2l2.9-1.8l-0.2-3.1
		L2948.1,279.8L2948.1,279.8z"/>
	<path id="bougainville" class="st4" d="M2953.2,283.4l1,2.7l1.7,1.7l0.5-0.5l-0.2-1.8l-2-2.4L2953.2,283.4L2953.2,283.4z"/>
	<path id="choiseul" class="st4" d="M2957.9,287.4l0.1,1.8l1.1,1l1-0.6l-0.9-1.9L2957.9,287.4L2957.9,287.4z"/>
	<path id="new_georgia" class="st4" d="M2959.3,291.9l-0.9,1l1,1.8l1.2,0.3l-0.1-1.2L2959.3,291.9L2959.3,291.9z"/>
	<path id="santa_isabel" class="st4" d="M2961.6,290.8l0.8,2l1.6,1.9l0.9-1.4l-1.2-2L2961.6,290.8L2961.6,290.8z"/>
	<path id="malaita" class="st4" d="M2965.6,293.8l0.5,2.4l1.1,1.5l0.9-1.9L2965.6,293.8L2965.6,293.8z"/>
	<path id="santa_ana" class="st4" d="M2966.9,299.2l-0.4,0.7l1.3,1.7l0.9,0.1l-0.6-2.3L2966.9,299.2L2966.9,299.2z"/>
	<path id="rennell" class="st4" d="M2963.9,302.7l-1.4,0.6l1.2,1.7l1-0.6L2963.9,302.7L2963.9,302.7z"/>
	<path id="espiritu_santo" class="st4" d="M2978,313.1l-1,1.3l0.4,1.5l0.5,0.3l0.9-1.2L2978,313.1L2978,313.1z"/>
	<path id="malakula" class="st4" d="M2978.5,317.1l0.1,1.1l1.1,0.3l0.7-0.4l-0.7-1.2L2978.5,317.1L2978.5,317.1z"/>
	<path id="efate" class="st4" d="M2980,326.6l-0.5,0.7l0.7,0.8l1.2-0.4L2980,326.6L2980,326.6z"/>
	<path id="fiji" class="st4" d="M2999.9,325l-1,1.3l-0.1,1.5l1.1,1.2V325L2999.9,325z"/>
	<path id="palawan" class="st4" d="M2874.4,234.5l-0.7,1.3l-0.4,1.6l-3.8,4.8l0.2,1l1.6-0.2l4.9-5.5L2874.4,234.5L2874.4,234.5z"/>
	<path id="negros" class="st4" d="M2880.5,232.7l-0.1,3.9l1.4,1.4l0.5,2.8l1.4,0.3l0.7-1.7l-1.1-0.8l-0.3-4.9L2880.5,232.7
		L2880.5,232.7z"/>
	<path id="cebu" class="st4" d="M2884.5,234.2l-0.1,3.5l0.8,1.4l1.4-1.7l-0.4-3L2884.5,234.2L2884.5,234.2z"/>
	<path id="samar" class="st4" d="M2885.4,231.2l1.4,1.9l0.7,1.8h1.3l-0.2-3.1l-1.4-1L2885.4,231.2L2885.4,231.2z"/>
	<path id="path7462" class="st4" d="M2888.2,238.3l0.3,2.3l-2.6,2.1l-2.2,0.2l-2.3,2.5l0.1,1.1l2.2-0.7l1.5-1l1.3,3.3l2.3,1.6
		l0.9-0.3l0.8-1l-1.8-1.8l1.1-0.8l1.2,1l0.8-1.4l-0.8-1.7l-0.1-3.7L2888.2,238.3L2888.2,238.3z"/>
	<path id="luzon" class="st4" d="M2876,215.2l-2,1.4l-0.2,4.6l3.2,6.1l1.1,0.8l1.4-0.9l2.3,0.4l0.4,2l1.7,0.1l0.8-1.1l-1.1-1.4
		l-1.3-1.2l-2.7-0.3l-1.4-2.4l1.7-2.5l0.1-2.2l-1.1-2.8L2876,215.2L2876,215.2z"/>
	<path id="mindoro" class="st4" d="M2877,228.8l0.6,2.1l1.1,0.7l0.8-1l-1.2-1.7L2877,228.8L2877,228.8z"/>
	<path id="hainan" class="st4" d="M2851.1,213l-1.9,0.5l-1.4,1.7l1.1,2.2l1.7,0.1l1.9-1.7l0.4-2.2L2851.1,213L2851.1,213z"/>
	<path id="taiwan" class="st4" d="M2872.9,195.7l-2.8,2.1l-0.1,4.1l2.4,2.8l0.6-0.5L2872.9,195.7L2872.9,195.7z"/>
	<path id="kyushu" class="st4" d="M2885.3,170.6l-1.3,1.3l0.5,1.8l1.1,0.1l0.8,3.9l0.9,1l1.6-1.4l0.7-2.6l-2-2.8L2885.3,170.6
		L2885.3,170.6z"/>
	<path id="shikoku" class="st4" d="M2892.2,168l-2.2,2l-0.1,2.4l0.5,0.7l2.9-2.5l-0.2-2.5L2892.2,168L2892.2,168z"/>
	<path id="honshu" class="st4" d="M2889.2,163.2l-3.8,4.4l0.7,1.1l1.9,0.2l3.5-2.7l2.5-0.5l2.3,2.7l1.7-0.6l0.7-2.6l3.2-0.1l3.2-3.8
		l-1.7-6.3l-0.8-3.3l1.7-1.4l-3.8-5.7l-1,0.1l-2,2.3v1.9l0.9,1.1l0.3,5l-2.3,2.9l-1.4-0.8l-1.1,2.4l-0.2,2.2l0.8,1.3l-0.5,1
		l-1.7-1.4h-1.2l-1.1,0.6L2889.2,163.2L2889.2,163.2z"/>
	<path id="hokkaido" class="st4" d="M2895.7,128.9l-1.2,1.1l0.6,2.3l1.1,1.1l-0.1,3.5l-1.4,0.5l-1.1,2.4l3.1,4.2l2-0.7l0.4-1.1
		l-2.2-2l1.4-1.7l1.4,0.2l1.1,1.2l0.1-2.5l3.1-2.5l1.7-0.5l-1.4-2.4l-0.7-1.1l-1.1,0.8l-1,1.2l-2.1-0.5l-2.2-1.4L2895.7,128.9
		L2895.7,128.9z"/>
	<path id="iturup" class="st4" d="M2907.1,126.5l-2.1,3l0.1,1.4l1.1-0.5l2.5-3.1L2907.1,126.5L2907.1,126.5z"/>
	<path id="urup" class="st4" d="M2909.9,122.2l-0.8,2l0.1,1.4l1.3-0.8l1.2-2.4v-0.9L2909.9,122.2L2909.9,122.2z"/>
	<path id="paramushir" class="st4" d="M2914.3,104.1l-1,1.2l0.1,1.9l0.9-0.1l1.5-2.7L2914.3,104.1L2914.3,104.1z"/>
	<path id="onekotan" class="st4" d="M2912.5,108.7v3.3l1.1,0.4l0.8-1.2v-2.6L2912.5,108.7L2912.5,108.7z"/>
	<path id="sakhalin" class="st4" d="M2881.7,96.7l-0.1,4.9l6.1,9.4l2.2,8.2l3.8,7.3l1.5,0.5l1.3-1.1l0.6-1.7l-5.5-6l0.1-3.1l1.2-0.5
		l0.3-1.8l-10.8-15.3L2881.7,96.7L2881.7,96.7z"/>
	<path id="bering_island" class="st4" d="M2924.2,81.6l-1.5,0.1l0.9,1.3l1.9,1.3l0.5-0.6L2924.2,81.6L2924.2,81.6z"/>
	<path id="medny" class="st4" d="M2927.1,82.5l0.2,1.3l2.3,0.7l0.2-0.9L2927.1,82.5L2927.1,82.5z"/>
	<path id="attu" class="st4" d="M2939.9,87.4l1,1.8l1.6-0.1l0.3-1.2L2939.9,87.4L2939.9,87.4z"/>
	<path id="amchitka" class="st4" d="M2956.4,90.2l1.3,2.4l1-1.1v-1.7L2956.4,90.2L2956.4,90.2z"/>
	<path id="adak" class="st4" d="M2967.7,82.5l-1.9,2.4l0.4,1.1l2.3-1.4l0.2-1.4L2967.7,82.5L2967.7,82.5z"/>
	<path id="umnak" class="st4" d="M2977,74.9l-1.6,2l1.7,0.7L2977,74.9L2977,74.9z"/>
	<path id="unalaska" class="st4" d="M2979.3,71.6l-1.1,1.8l0.1,1.8l1.5-0.7L2979.3,71.6L2979.3,71.6z"/>
	<path id="st._lawrence_island" class="st4" d="M2946.8,30.3l-1.9,1.2l-0.4,1.5l0.9,1l2-0.7l2,0.7l1.1,0.3l-0.1-3.6L2946.8,30.3
		L2946.8,30.3z"/>
	<path id="st._lawrence_island_west" class="st4" d="M2306.8,42.1l2.7,5.1l1.7-0.4V45L2306.8,42.1L2306.8,42.1z"/>
	<path id="alaska" class="st4" d="M2948.5,13.9l-3.3,6l6.4,4l7.1-6l4.3,7.2l-4.5,0.9l-1.8,4.6l10,13.6l6,1l8.7,1.7l1.1-3.2l3,1.2
		l0.6,13.2l-5.6,9.4l2.7,0.6l7.1-14.9l2.2-11.2l-4.4-2l-0.7-15l3.4,0.7v9l3.7,3.2l2.1-7.8l-1.7-4.6l5.2,2.5l0.5-27.6l-59.7,0.1
		l-3.4,2.6l0.5,5.3l10.6,1.4l8.1-1.9l-2.9,5.5L2948.5,13.9L2948.5,13.9z"/>
	<path id="wrangel-w" class="st4" d="M2314.2,2.7l-3.1,2.8l0.9,2.1l1.6-1.1l0.9,1l3.1-1.1l-0.1-1.7L2314.2,2.7L2314.2,2.7z"/>
	<path id="unalaska_west" class="st4" d="M2291.5,87l-0.1,2.4l1.7-0.4v-1.1L2291.5,87L2291.5,87z"/>
	<path id="umnak_west" class="st4" d="M2288.8,88l-3.4,1.7l0.5,1.8l1.3-1.1l2.6-1.2L2288.8,88L2288.8,88z"/>
	<path id="another_aleutian_west" class="st4" d="M2274.7,90.2l-2.4-0.5l-0.4,1.1l0.3,2L2274.7,90.2L2274.7,90.2z"/>
	<path id="adak_west" class="st4" d="M2269.7,90.1l-2.2-0.9l-0.8,1.4l1.4,1.4L2269.7,90.1L2269.7,90.1z"/>
	<path id="amchitka_west" class="st4" d="M2262,88l-1-1.4l-1,0.4v2l1.2,0.8L2262,88L2262,88z"/>
	<path id="attu_west" class="st4" d="M2253.5,78.6l1.3,0.9l-0.4,1.1h-0.9L2253.5,78.6L2253.5,78.6z"/>
	<path id="kerguelen" class="st4" d="M2743.1,393.8l-0.1,3.4l4.7,1.1l1.1-2.8l-1.7,0.5l-2.2,0.5l-0.6-2.5L2743.1,393.8L2743.1,393.8
		z"/>
	<path id="mauritius" class="st4" d="M2735.4,314.5l-1.2,1.6l0.2,1.7l2.5-2.1L2735.4,314.5L2735.4,314.5z"/>
	<path id="reunion" class="st4" d="M2731,317.1l-1.8,0.1l-0.1,1.6l1.2,0.2l1.8-0.8L2731,317.1L2731,317.1z"/>
	<path id="madagascar" class="st4" d="M2719.1,293.9l-1.7,4l-2.9,5.1l-5,0.4l-2.2,2.5l0.4,7.7l-3.1,3.6l0.4,6.2l2.6,3l3.1-0.4
		l3.1-2.3l-0.7-3.6l7.2-12.5l-1.4-1.6l1.4-3l1.6,0.5l0.5-1.2l-1.4-6.2l-0.8-2.5L2719.1,293.9L2719.1,293.9z"/>
	<path id="grande_comore" class="st4" d="M2707.6,292.6l0.4,1.2l1.6,0.2l0.6-1.6L2707.6,292.6L2707.6,292.6z"/>
	<path id="mayotte" class="st4" d="M2709.8,295l0.6,1.3h1l0.5-1.7L2709.8,295L2709.8,295z"/>
	<path id="aldabra" class="st4" d="M2727,282.4l-0.5,1l1.3,1.1l1-1.1L2727,282.4L2727,282.4z"/>
	<path id="praslin" class="st4" d="M2733.7,275.2l-1.4,1l1.1,1.7h1.4L2733.7,275.2L2733.7,275.2z"/>
	<path id="mahe" class="st4" d="M2734.3,279.4l-1,1.1l0.7,1.1l1.3,0.2l0.1-2.3L2734.3,279.4L2734.3,279.4z"/>
	<path id="male" class="st4" d="M2769.6,252.8l0.2,2.1l1.3,0.5l0.2-1.8L2769.6,252.8L2769.6,252.8z"/>
	<path id="maldive" class="st4" d="M2771.3,257.2l-0.1,2.5l1,0.5l0.8-1.7L2771.3,257.2L2771.3,257.2z"/>
	<path id="gan" class="st4" d="M2771.5,262.1l-0.8,0.8l1,0.8l1.2-0.8L2771.5,262.1L2771.5,262.1z"/>
	<path id="path151" class="st4" d="M2546,171.1l-1.1,1.1l1.9,1.1l0.2-1.5L2546,171.1L2546,171.1z"/>
	<path id="terceira" class="st4" d="M2551.8,170.4l-1.3,0.9l1.1,0.9l1.7-0.4L2551.8,170.4L2551.8,170.4z"/>
	<path id="pico" class="st4" d="M2552.6,173.5l-0.6,1.7l0.9,1.1l1.1-0.9L2552.6,173.5L2552.6,173.5z"/>
	<path id="sao_miguel" class="st4" d="M2557.7,176.9l-0.4,1.1l0.6,0.6l1.7-1.1L2557.7,176.9L2557.7,176.9z"/>
	<path id="madeira" class="st4" d="M2574,186.4l-0.9,1.1l0.9,1.1l1.3-0.6L2574,186.4L2574,186.4z"/>
	<path id="lanzarote" class="st4" d="M2579.8,200l-1.4,0.8l0.6,0.6L2579.8,200L2579.8,200z"/>
	<path id="gran_canaria" class="st4" d="M2575.1,200.2l-1.7,0.4l0.9,1.3h1.3L2575.1,200.2L2575.1,200.2z"/>
	<path id="tenerife" class="st4" d="M2571,198.9l-1.1,1.1l1.5,1.3l0.9-1.9L2571,198.9L2571,198.9z"/>
	<path id="santo_antao" class="st4" d="M2557.7,229l-1.5,0.9l1.1,0.9l1.3-0.6L2557.7,229L2557.7,229z"/>
	<path id="boa_vista" class="st4" d="M2561.4,230.8l-1,0.9l0.7,1.3l1.7-0.7L2561.4,230.8L2561.4,230.8z"/>
	<path id="santiago" class="st4" d="M2559.3,233.2l-1.3,0.7l1.3,1.8l1.1-0.6L2559.3,233.2L2559.3,233.2z"/>
	<path id="kauai" class="st4" d="M2260.2,196l-0.1,1.8l1.6,1.1l1-0.9L2260.2,196L2260.2,196z"/>
	<path id="oahu" class="st4" d="M2264.4,198.8l-1.5,1.1l1.3,1.6l1.5-1.3L2264.4,198.8L2264.4,198.8z"/>
	<path id="kahului" class="st4" d="M2267.4,201.3l-1.3,1.7l0.4,1.1l1.8-0.9L2267.4,201.3L2267.4,201.3z"/>
	<path id="hawaii" class="st4" d="M2269.5,204.7l-0.7,4.3l0.7,1.6l2.5-0.8l1.3-2.2l-2.7-2.5L2269.5,204.7L2269.5,204.7z"/>
	<path id="raiatea" class="st4" d="M2273.8,317.4l-1.5-0.1l-0.1,1.4l1.2,0.8l1.4-0.9L2273.8,317.4L2273.8,317.4z"/>
	<path id="tahiti" class="st4" d="M2278.9,318.9l-2.1,1.4l1.6,1.9l1.4-0.3l0.7-1L2278.9,318.9L2278.9,318.9z"/>
	<path id="guadeloupe" class="st4" d="M2470.3,223.4l-1.2,0.5l0.4,1l1.4-0.9l-0.3-0.3L2470.3,223.4L2470.3,223.4z"/>
	<path id="dominica" class="st4" d="M2472.2,224.6l-0.7,1.5l0.8,1.1l1-0.9L2472.2,224.6L2472.2,224.6z"/>
	<path id="martinique" class="st4" d="M2474.6,228.6l-0.8,0.8l0.6,1.3l1.2-0.3L2474.6,228.6L2474.6,228.6z"/>
	<path id="st._lucia" class="st4" d="M2474.5,231.8l-0.6,1.2l0.9,1l1.2-0.6L2474.5,231.8L2474.5,231.8z"/>
	<path id="st._vincent" class="st4" d="M2474.6,234.8l-1,0.7l0.8,1.4l1.3-0.7L2474.6,234.8L2474.6,234.8z"/>
	<path id="grenada" class="st4" d="M2473.4,237.5l-0.9,0.9l0.3,0.6h1.1l0.3-0.9L2473.4,237.5L2473.4,237.5z"/>
	<path id="trinidad" class="st4" d="M2474.7,240.2l-0.8,0.8l-0.9,0.1v1.1l1.7,1.5l0.7-1.1l0.4-1.3l-0.1-1L2474.7,240.2L2474.7,240.2
		z"/>
	<path id="puerto_rico" class="st4" d="M2465.9,221.6l-2.1-0.7l-1.7,1l0.8,1l2.8,0.4L2465.9,221.6L2465.9,221.6z"/>
	<path id="haiti-dominican_border" class="st4" d="M2450,217.1l-1.3,1.3l1.5,0.6l0.2,1.9l-3.3,0.3l0.3,1.8l1,0.1l0.6-0.8l3.9,0.1
		l0.7,1.3l0.9-1.1l2.6-0.7l2.3,0.5l0.3-1.4l-4.2-2.7l-2.7-1L2450,217.1L2450,217.1z"/>
	<path id="domincan_republic" class="st4" d="M2459.7,221.1l-4.2-2.7l-2-0.7l-0.7,4.7l0.7,1.3l0.9-1l2.6-0.7l2.3,0.5L2459.7,221.1
		L2459.7,221.1z"/>
	<path id="haiti" class="st4" d="M2450,217.1l2.7,0.3l-0.3,3.3l-0.3,1.7l-3.2-0.2l-0.6,0.8l-1-0.1l-0.3-1.8l3.3-0.3l-0.2-1.9
		l-1.5-0.6L2450,217.1L2450,217.1z"/>
	<path id="falklands_west" class="st4" d="M2495,400.5l-2.1-0.2l-2.1,1.4l1.5,1.6L2495,400.5L2495,400.5z"/>
	<path id="falklands_east" class="st4" d="M2497.1,399.5l-0.7,2.2l-2,1.7l0.1,0.6l3.3-1.3l1.4-1.7L2497.1,399.5L2497.1,399.5z"/>
	<path id="iceland" class="st4" d="M2572.5,92.5l-1.5-0.9l-2.1,1.3l-1.8,1.7v0.9l2.3,0.3l-0.1,1.7l-0.8,0.8l0.2,0.5l2.3,0.1v2.7
		l3.3,0.6l2,1.1l2.2,0.1l3.8-1.9l2.9-3.9V95l-1.8-1.5l-1.5-1.3l-0.7,0.5l-1,1.3l-1.2-0.1l-1.2-1.3l-1.5,0.1l-2.2,1.8l-1.3,1.4
		l-0.7-0.6v-1.6l0.7-0.5L2572.5,92.5L2572.5,92.5z"/>
	<path id="spitsbergen" class="st4" d="M2637.1,42.6l-1.3-1.3l-2.9,1.4h-5.3l-0.8,3.1l3,2.6l1.3-0.2l1.9-3.2l1.6,1.1l-1.1,2.2
		l-0.6,3.3l1.3,2.1l2.8-4.7l3.6-4.4l-1.4-1.2L2637.1,42.6L2637.1,42.6z"/>
	<path id="nordaustlandet" class="st4" d="M2638.7,37l-2.3,2.2l1.4,2.2h2.5l1,1.4l3.1,1.6l3.5-2.1l2.4-2.1l-0.8-1.7l-2.4-1.4
		l-1.8,1.6l-1.2-1.5l-0.9,0.1l-1.2,2.6l-1.8-1.8l-0.2-1.2L2638.7,37L2638.7,37z"/>
	<path id="edgeoya" class="st4" d="M2644,46.6l-1.9,1.7l-1.6,1.2l0.7,1.3l1.5,0.5l2.4-1.1l1.1-1.4l-1-1.7L2644,46.6L2644,46.6z"/>
	<path id="prince_george" class="st4" d="M2684,30.6l1.4,0.5l-1,1.6V35l-2,1.2h-2.2l-1.2-1.5l0.1-1.6l1-1.2h1.9L2684,30.6L2684,30.6
		z"/>
	<path id="salisbury" class="st4" d="M2689.2,29.1v1.6l1.4,1.1l1.9-0.1l1.6-1.5v-1.1h-1.5l-1.2,0.4l-1-1.1L2689.2,29.1L2689.2,29.1z
		"/>
	<path id="wilczek" class="st4" d="M2696.9,29.3l1,2l1.9,0.1l1.4-0.5l-0.7-1.9l-1.8-0.4L2696.9,29.3L2696.9,29.3z"/>
	<path id="bell" class="st4" d="M2704.6,26.5l-1.5-0.3l-1.4,1.4l0.7,1.2l0.4,1.9l1.8-1.4l0.4-1.5L2704.6,26.5L2704.6,26.5z"/>
	<path id="novaya_zemlya_north" class="st4" d="M2712.9,41l-0.4,1.9l-3.1,2.7l-6.7,1.5l-5.4,9l-1,2.6l5.4,1.4l0.8-3.3l1.6-5.1
		l4.2-2.2l3.5-2.7l2.6-1.1h1.4V42L2712.9,41L2712.9,41z"/>
	<path id="novaya_zemlya_south" class="st4" d="M2695.4,61l3.7,0.4l1.2,4.2l3.1,3.3l-1.1,2.2h-1.9l-1.8-2l-3.9-0.1l-1.6-2.2v-1.5
		l2.4-0.7L2695.4,61L2695.4,61z"/>
	<path id="komsomolets" class="st4" d="M2752.7,14.4l-1.8-1.1h-2l-0.4,1.2l-2.2,1.2l-1.6,0.5l-0.3,1.6l3.8,0.3L2752.7,14.4
		L2752.7,14.4z"/>
	<path id="october" class="st4" d="M2756.9,14.8l-1,2l-1.9-0.1l-3,2.2l-0.8,2.7h1.9l1.1-1.8l2.6,1.9l2.4-1.1l1.8-1.5l-0.7-2.3
		l-1-1.6L2756.9,14.8L2756.9,14.8z"/>
	<path id="bolshevik" class="st4" d="M2760.8,16.3l1,3.8l1.5,3.6l1.6-2.9l3.1-0.7v-2l-2-1.5L2760.8,16.3L2760.8,16.3z"/>
	<path id="kotelny" class="st4" d="M2835.3,10.2l2.1,1.8l1.5-0.6l0.4-2.5l-3.1-2.1l-2,1.3l-4.9,0.4v2.2l-5.2,0.1v3.6l6.1,4.5
		l1.6-1.2l-0.4-3.2l3.9-1l-0.8-1.5l-1.4-1.4L2835.3,10.2L2835.3,10.2z"/>
	<path id="novaya_sibir" class="st4" d="M2840.9,8l1.4,2.7l5.5-0.6l1.5-2l-0.4-1.7l-1.5-0.6l-1.4,1.1l-4.1,0.9L2840.9,8L2840.9,8z"
		/>
	<path id="lyakhovsky" class="st4" d="M2840.6,18.4l-2.7-0.7l-1.6,1.7l-0.7,2.3l3.7-0.4l2.8-1.4L2840.6,18.4L2840.6,18.4z"/>
	<path id="wrangel" class="st4" d="M2911.7,3l-2.3-0.7l-2.6,1l-1.3,2l1.7,2.2l4.4-2l0.9-1L2911.7,3L2911.7,3z"/>
	<path id="sri_lanka" class="st4" d="M2788.6,242.8l0.2,2.1l0.2,1.6l-1.2,0.2l0.6,3.5l1.7,1l2.7-1.6l-0.8-3.7l0.2-1.4l-2.5-2.3
		L2788.6,242.8L2788.6,242.8z"/>
	<path id="cuba" class="st4" d="M2426.4,210.4v1l4.2,0.1l2-1.2l0.3,0.8l4.1,1l3.7,3.3l-0.8,1.2l0.1,1.3l3,0.8l3-1.4l1.4-1.4l-2-1
		l-10.2-6l-3.6-0.4L2426.4,210.4L2426.4,210.4z"/>
	<path id="bimini" class="st4" d="M2441.1,204.3l-1-0.3l-0.1,1.9l1.2,1.2l0.8-1.2L2441.1,204.3L2441.1,204.3z"/>
	<path id="andros" class="st4" d="M2443.1,207.3l-1.4,0.8l1.3,1.8l0.7-0.9L2443.1,207.3L2443.1,207.3z"/>
	<path id="inagua" class="st4" d="M2447.5,208.6l-1.4-0.1l0.1,0.9l1.1,1.5l0.9-1L2447.5,208.6L2447.5,208.6z"/>
	<path id="eleuthera" class="st4" d="M2446.9,206.8l-2.4-1l-0.5-2.4l0.9-0.4l0.9,1.8l0.9,0.7L2446.9,206.8L2446.9,206.8z"/>
	<path id="grand_bahama" class="st4" d="M2444.6,202l-1.2-0.3l-0.2-1.5l-1.3-0.5l0.8-0.8l1.5,0.5l1.1,0.7L2444.6,202L2444.6,202z"/>
	<path id="jamaica" class="st4" d="M2440.6,220.4l-2.7,0.7v0.8l1.6,0.9h1.7l1.1-1.2L2440.6,220.4L2440.6,220.4z"/>
	<path id="irian_jaya" class="st4" d="M2907.9,267.5l-3.3,0.4l-2.1,1.5l0.9,1.8l3.6,0.7v0.7l-2.3,1.8l1.1,3.8l1.1,0.1l0.9-3.8h1.7
		l0.7,3.7l8.5,7.1l0.2,5.5l2.9,3.2l1.3-0.1l0.3-19.5l-5-3.5l-4.7,3.2l-1.7,1l-2.8-1.8l-0.1-5.6L2907.9,267.5L2907.9,267.5z"/>
	<path id="alaska-westcopy" class="st4" d="M2325.7,35.4l-6.6,1.6l1.4,7.4l7.2,2l0.4,1.6l-10.7,3.3l-6,10l2.1,10.6l3.5,2.3l2.7-2.5
		l0.8,1.6l-3.3,3.9l-12.8,5.9l-8.2,2L2296,88l18.9-5.5l7.8-2.2l7.2-8.8l8-5.3l-4.1,6.9l4.5,0.6l7.6-3.3l1.4,5.5l5.2,1.2l5.4,5.3
		l0.4,3.9l-0.8,1l1,3.7h1.4l0.2-6.3h1.6l0.4,15.5l3.9-3.3l-2.7-16.1h-4.1l-4.5-5.7l22-37.2l-21.8-17l-24.3,4.7l-1,7.4l5.2,3.1
		l-1.9,5.1L2325.7,35.4L2325.7,35.4z"/>
	<path id="galapagos" class="st4" d="M2406,266.6l-0.5,2.2l-0.9,0.9l0.6,1.1l1.6-0.6l0.8-1.3l-0.5-1.4L2406,266.6L2406,266.6z"/>
	<path id="banks" class="st4" d="M2412.9,28.4l0.2,3.2l-6.3,6.5l1.6,5.3l4.5-1.2l2.6-3.9l6.6-2.5l5.4-0.4l-4.2-4.6l-2.1,1.6
		l-1.6-0.5l-0.9-1.9l-1.9-1.9L2412.9,28.4L2412.9,28.4z"/>
	<path id="prince_patrick" class="st4" d="M2421.1,19l-1.4,2.5l6.8,2.5l2.4-3.7l1,2.5h1.7l3.3-3.7l-4-1.1l-1.6-1.2l-2.1,2.1
		L2421.1,19L2421.1,19z"/>
	<path id="eglinton" class="st4" d="M2433,24l-5.4,2.3V28l7,2.6l-1.6,1.8l1,2.3l4.4-1.9h3.7l1.7,2.8l3-3l-0.7-2.8l-2.4,0.9l-0.3-3.5
		l1.2-2.1h-1.2l-1.9,1.2l-0.9,0.7l0.5,2.5l-1.4,1.1l-2.1-0.2l-0.5-3.2L2433,24L2433,24z"/>
	<path id="mackenzie_king" class="st4" d="M2440.1,18.5l-0.5,1.8l3.3,1.6l2.4-1.4l-0.2-1.1L2440.1,18.5L2440.1,18.5z"/>
	<path id="king_christian" class="st4" d="M2442.7,15.5l-2.4,0.9l0.2,1.2l5.4-0.4l-0.2-1.2L2442.7,15.5L2442.7,15.5z"/>
	<path id="ellef_ringnes" class="st4" d="M2454.5,18.5l-0.3,1.2l-0.9,1.2v1.8l3.3-0.5l3.5,3h1.2v-3l-3.5-3.9L2454.5,18.5
		L2454.5,18.5z"/>
	<path id="amund_ringnes" class="st4" d="M2463.4,22l1.4,1.6l-1.2,2.1l0.9,2.3l3.8-2.1v-1.6l-2.3-2.6L2463.4,22L2463.4,22z"/>
	<path id="axel_heiberg" class="st4" d="M2468.4,18l0.2,2.8h4.7l1.2,1.1l-0.2,1.2l-4.2,0.5l3,4.1l4,0.7l5.6-2.5l-8-12.2l-2.4,1.6
		l0.2,2.1l-2.8-1.1L2468.4,18L2468.4,18z"/>
	<path id="victoria" class="st4" d="M2427.7,37.9l-6.6,1.8l-3.8,3.3l0.3,3.7l7,2.1l-1.6,3.5l-5.1-3.2l-1.4,2.6l3.3,2.3l-0.2,3.7
		l5.1,1.4l6.1-0.4l1-1.9l4.5,5.1l3.1-1.1l0.5-3.5l2.3,1.6l0.3-3.5l-2.8-1.8l0.2-11.1l-2.4-1.9l-2.6,3.5L2427.7,37.9L2427.7,37.9z"/>
	<path id="prince_of_wales" class="st4" d="M2449,45.6l-2.3-1.1l-1.2,1.6l2.4,3.9l0.2,3.7l5.2-3.2V46l1.9-1.9l-1.9-1.4h-3.1
		L2449,45.6L2449,45.6z"/>
	<path id="prescott" class="st4" d="M2460.2,44l-3.7,3l0.9,3.7h2.3l1-1.9l1.6,1.6l1.6-0.2l4.2-3.5L2460.2,44L2460.2,44z"/>
	<path id="cornwallis" class="st4" d="M2459.9,38.2L2459,40l3.8,1.4l1-1.6L2459.9,38.2L2459.9,38.2z"/>
	<path id="bathurst" class="st4" d="M2457.6,31.5l-3.8,0.5l-2.3,2.1l4.2,0.2l-1.2,3.2l0.9,1.4l1.2-0.2l3-4.8L2457.6,31.5
		L2457.6,31.5z"/>
	<path id="devon" class="st4" d="M2464.2,30.3l-2.1,0.7l0.3,2.8l3.5,2.3l0.2,1.8l-1,1.1l0.5,3.5l13.5,4.4l3.7,1.2l3.7-3.2l-4.4-3.5
		l-4,1.1l-5.6-0.5l-2.1-2.1l-0.5-5.8l-3.5-1.8L2464.2,30.3L2464.2,30.3z"/>
	<path id="baffin" class="st4" d="M2475.2,48.6l-3.8-0.4l-4.5,1.8l-2.4,3.3l0.7,9.2l7.5,0.4l7.2,3.5l5.1,5.8l3.8-0.2l-1,5.5
		l-3.5,5.8l-3.8,1.8l-2.8-0.5l-1.4-1.2l-2.1,2.8l0.9,2.8l3,0.2l3.7-1.8l3.1,8.1l7.9,5.1l5.4-6.9l-4.5-7.4l2.6-3l3.7,6.2l6.6-5.8
		l-1.2-2.6l-4.5,1.4l-3.1-8.6l3-4.9l-5.9-6.3l-3.3,2.3l-3.1-6.9l-6.6,0.9l-1.7-8.3l-5.4,3.7l-0.5,4.6h-3l0.3-4.1L2475.2,48.6
		L2475.2,48.6z"/>
	<path id="bylot" class="st4" d="M2483.1,51.8l-1.4,1.4l1.2,1.9l5.8,0.7l-3.7-3.9L2483.1,51.8L2483.1,51.8z"/>
	<path id="ellesmere" class="st4" d="M2477.5,31.9v1.6l-3.8,0.9l1,1.8l4.4,1.8l4.9,0.5l3.5,2.5l3.5-1.9l-2.4-2.5h3.1l1.9-2.1
		l4.7-0.7v-1.1l-2.6-1.8l0.3-1.9l7.3,1.2l10.8-4.2l-4-1.2l1-1.4h8.4l1.4-1.4l-17-6l-4-1.4l-4.4,3.2l-4.9-4.1l-2.6-0.2l-0.5,3.3
		l-3.3-3l-3.8,1.2l0.7,1.9l5.8,1.2l-0.3,2.8l3.1,1.9l7.7-1.9l0.2,2.6l-6.3,3l-3.8-3l-3.5,0.4l3.5,4.9l-1.7,0.9l-2.6-2.3l-1.9,1.2
		l1.7,3.3h3l-0.7,3.2l-2.4-0.4l-3.1-3.3L2477.5,31.9L2477.5,31.9z"/>
	<path id="southhampton" class="st4" d="M2461.9,80.3l-3.3,4.2l-0.2,4.6l2.9-1.7h3.5l2.5,2.3l2.3-1.9L2461.9,80.3L2461.9,80.3z"/>
	<path id="newfoundland" class="st4" d="M2502.5,134.9l-8.3,8l0.8,1.9l10.2,3.8l1.5-2.5l-0.8-4.2l-3.3,0.4l-1.9-2.1l3.1-3.1
		L2502.5,134.9L2502.5,134.9z"/>
	<path id="canada" class="st4" d="M2377,38.4l1.6,2.4l0.8,3.2l3.9,1l2.8-3l2.4,1.2l6.7,0.6l4.7-2l0.8,6.5h2.8v-2.8l2.8,0.2l6.9,8.1
		l4.5,2.8l-2.4,3.8l1,1l8.8,1.8l0.2,4l2.4,0.4l0.6-5.9l3.7-1l2.8,4.2l5.9,2.8l2.9,0.6l2-2.4l0.2-3.8l3.5-2.2l1.2,3.2l-3.1,5.5
		l0.4,2.8l1.8-2.8l3.5-3.2l0.2-4.2l-2-3.2l0.6-2.6l4.7-2.4l2.2,1.6l0.4,13.8l3.3-3l2,1.2l-2.8,4.7l3.5,0.8l5.1-7.9l4.3,4.5l-1.8,8.1
		l-4.3,2.4l-4.1-2l-7.5,1.6l0.8,2.6l-2,3.2l-6.1,1.4l-6.9,5.3l-6.1,8.1l-0.8,2.6l4.1,1.6l1.6,4l5.7,5.7l9,4l-2,9.1l-0.2,2.6l2.4,1.6
		l3.1-4.2l0.4-7.9l4.9-0.2l2.4-4.5l0.4-6.9l6.3-12.3l7.8,2.8l4.1,5.7l-1.8,5.7l3.1,1.8l7.7-5.1l2.2,14l7.1,8.5l0.2,4.3l-7.8,2
		l-3.7,4l-7.8-1.8l-3.9-0.2l-6.9,5.3l4.1-1l5.1-1l1,1.2l-1.4,4.3l0.2,4l2.4,1.6l2.4-0.6l1.2-1.8h1.6l-2.6,4.7l-4.9,0.2l-2.2,3.2
		h-2.8l-0.8-2.4l3.9-4l-4.7,1.6l-0.2-6.7l-1.4-0.8l-4.1,1.8l-0.4,3.4h-9.4l-8,5.5l-10.8,3.6l-1.2-1.6l5.4-8.1l-3.1-3l-2-3.8l-4-3
		l-4.3-0.4l-7.7-5.4l-55.7-9.2l-0.9-3.8l-5.1-4.7v-4l0.8-3.6l-0.4-2l-2-2l-0.4-3.2l5.1-3.6l-3.1-17l-4.3-0.2l-3.9-5.1L2377,38.4
		L2377,38.4z"/>
	<path id="usa" class="st4" d="M2369.6,124.8l-0.8,3.2l-2.8-1.8h-1.4l-0.8,3.4l-9.6,21.6l2.6,18.8l3.1,1.6l0.6,5.1h6.5l6.3,4.7
		l12.4,1.2l1.4,6.3l2,1.4l2.8-2.8l2.2,1l2,9.1l3.3,2.2l2.8-5.1l8.4-6.1l5.5,2.6l4.7,0.4l0.2-3l9.8,0.2l2,2.2l0.4,4.9l-1.2,2.8
		l1.4,4.7h2.9l2.9-4.5l-1.2-2.2l-1.2-4.7l1.8-5.3l8-6.9l6.1-1.8l-0.8-5.7l8.4-9.1l8.4-1.4l-1.4-4.7l8.2-4.7v-6.3l-0.8-0.4l-2.9,1
		l-0.4,3.9l-9.8,0.1l-7.7,5.1l-12,3.9l-1.9-2.4l5.5-8.3l-2.7-2.6l-1.8-3.5l-3.8-3.1l-4.1-0.3l-7.8-5.3L2369.6,124.8L2369.6,124.8z"
		/>
	<path id="haida_gwaii" class="st4" d="M2357.8,101.3l-1.3,2.6l0.5,1.8l0.9,0.5l-0.2,0.7l-0.9,0.3l0.3,2.7l1,1l0.8-0.9l-1-2.6
		l0.6-2.1l1.5-2l-1.1-1.8L2357.8,101.3L2357.8,101.3z"/>
	<path id="vancouver" class="st4" d="M2362.2,116.7l-1.2,0.5l2.2,2.6l0.5,3l2.2,2.4l1.9-0.3v-3.1l-2.3-1.4L2362.2,116.7
		L2362.2,116.7z"/>
	<path id="guatemala" class="st4" d="M2405.9,229.8l4.7,3.4l4.7-5.9l-0.8-1.2l-1.6-0.1v-3.4l-1.2-0.7l-3.6,1.1l1.4,3.2L2405.9,229.8
		L2405.9,229.8z"/>
	<path id="honduras" class="st4" d="M2415.9,227.6l7.3-0.3l2.2,2.6l-1.3-0.3l-2.6,0.1l-3.4,3.2l-1.4,3.2l-1-0.5v-3.5l-2.1-1.4
		L2415.9,227.6L2415.9,227.6z"/>
	<path id="el_salvador" class="st4" d="M2411.2,233.5l3.7,1.8l-0.1-2.9l-1.9-1.2L2411.2,233.5L2411.2,233.5z"/>
	<path id="nicaragua" class="st4" d="M2423.9,230.3l1.7,0.3l0.1,3.5l-2,5.7l-5.4-0.5l-1.2-2.8l1.6-3.4l3-2.8H2423.9L2423.9,230.3z"
		/>
	<path id="costa_rica" class="st4" d="M2423.6,240.4l1.1,2.1l0.9,1.2l-1.2,3.6l-2.3-1.6l-3.7-3.4V240L2423.6,240.4L2423.6,240.4z"/>
	<path id="panama" class="st4" d="M2426.2,244l-1.2,3.6l3.8,1l2.4,0.5l0.4-2.8l2.5-1.3l2.2,1.2l0.9,1.4l1.1-0.1l0.8-2.6l-2.8-1.2
		l-2.1-1.2l-2.1,1.4l-2.5,1.3l-2.6-1L2426.2,244L2426.2,244z"/>
	<path id="colombia" class="st4" d="M2452.3,236.3l-1.6-0.2l-10.7,8.8l-1.1,3.1l-1.5,0.2l0.7,6.9l-3.7,9.2l4.1,3.4l5.2,0.3l3.6,5.2
		l5.2,0.2l-0.2,3.9h1.9l2.1-7.2l-2-2.5l0.5-4.6l4.1-0.3l-0.5-10.7l-9.1-2.9l-2.1-5.7L2452.3,236.3L2452.3,236.3z"/>
	<path id="venezuela" class="st4" d="M2449.7,241.1l0.3,2l2.6,0.8l0.6-3.8l2.7-2.8l2.7,3.2l6.2,1.7l5.3-1.1l3.6,4.4l2.7,1.7l-3,4.5
		l1,3.4l-1.7,2.1l-1.8,1.5l-3.8-1.9l-0.9,0.9v2.7l2.8,1.3l-2,2.2l-2,2.2l-2.7-0.2l-2.7-3l-0.6-11.2l-9.3-3.2l-1.7-4.9L2449.7,241.1
		L2449.7,241.1z"/>
	<path id="guyana" class="st4" d="M2477,247.6l5.7,5.2l-2.3,2.6l-0.2,1.6l3,3.1l-0.1,2.9l-5.2,2l-3.1-4.2l0.7-5l-1.3-3.7L2477,247.6
		L2477,247.6z"/>
	<path id="suriname" class="st4" d="M2483.3,253.1l1.6,1.5l2.5-1.5l2.3,0.1l-0.3,0.9l-1,2l-0.1,4.9l-4.5,1.8l0.2-3.2l-2.9-2.7
		l0.1-1.4L2483.3,253.1L2483.3,253.1z"/>
	<path id="guyane" class="st4" d="M2490.4,253.7l4.6,2.9l-2.4,4.8l-0.9,1.1l-2.6-1.5l0.1-5.2L2490.4,253.7L2490.4,253.7z"/>
	<path id="ecuador" class="st4" d="M2433.7,264.7l-3.7,2.3l-0.3,3.4l-0.7,1.1l2.3,2.3l-1,1.1l0.2,2.8l4.2,1l6.4-7.5v-2.6l-3-0.2
		L2433.7,264.7L2433.7,264.7z"/>
	<path id="peru" class="st4" d="M2429.7,275.5l-1.5,1.5l0.1,2.5l13.3,24.3l13.9,8.9l2.1-3.6l0.5-7.9l-1.1-4.9l-3.8-6.4l-2.2,0.7
		l-1,1.1l-4.5-5.1l1.1-6.1l5.2-3.4l-0.4-3.2l-5.3-0.2l-2.8-4.6l-1.5-0.5l0.1,2.8l-6.8,8.1l-5.1-1.2L2429.7,275.5L2429.7,275.5z"/>
	<path id="bolivia" class="st4" d="M2456.2,293.8l6.5-2.8l2.1,0.2l1.4,6l9.9,3.3l1.6,5l4.1,0.5l1.7,4.3l-1.2,3.9l-6.6,0.5l-2.4,6.3
		l-5.2-0.1l-1.6-0.3l-3,2.9l-1.5-0.1l-5.1-11.8l1.4-2.1l0.5-8.4l-1.3-5L2456.2,293.8L2456.2,293.8z"/>
	<path id="paraguay" class="st4" d="M2482.2,314.9l1.7,1.9l-0.2,4l5-0.3l3.8,4.8l-0.3,4.3l-2.4,3.7l-5,0.2l-0.2-2.1l1.4-3.4
		l-4.9-3.1h-4.1l-3.1-3.3l2.2-6.4L2482.2,314.9L2482.2,314.9z"/>
	<path id="uruguay" class="st4" d="M2489,340.4l-1.6,1.7l0.7,9.3l5.1,1.5l6.5-6.5L2489,340.4L2489,340.4z"/>
	<path id="argentina" class="st4" d="M2493,329.6l1.5,1.4l-5.8,8.6l-2,2.3l0.7,9.9l4.5,5.4l-3.8,6.6l-2.9,1.2h-3.3l0.9,5.1l-5.1,1.7
		l1.2,4.3l-3.1,9.8l3.8,3.1l-2,5l-3.5,5.4l1.8,3.8l-4.5,0.7l-3.7-4.5l-0.6-14.1l-5.7-23.9l1.7-8.4l-3.7-10.7l2.4-13.9l2.2-2.7
		l-0.6-2l2.9-2.6l6.4,0.4l3.6,3.8l4.2,0.1l4.3,2.6l-1.3,2.9l0.3,3l6-0.3L2493,329.6L2493,329.6z"/>
	<path id="tierra_del_fuego_chile" class="st4" d="M2476.9,405.2l-3.4,7.4l5.8,0.6l0.1-4.9L2476.9,405.2L2476.9,405.2z"/>
	<path id="tierra_del_fuego_argentina" class="st4" d="M2480,408.9l0.2,4.5l3.5-0.3l3-2l-5-1L2480,408.9L2480,408.9z"/>
	<path id="chile" class="st4" d="M2475.8,404l-2.5,2.8l-0.3,3.3l-4.9-2.8l-5.2-7.5l-1.5-2.7l2.1-2.8l-0.2-3.5l-2.4-1l-1.9-1.4l0.4-2
		l2.5-0.7l0.5-11.3l-4-2.3l-2.6-58.8l0.7-1.2l5.1,11.7h1.6l0.5,1.9l-2.2,2.6l-2.5,14.1l3.5,10.8l-1.6,8.2l5.8,24.1l0.6,14.1l4.1,4.8
		L2475.8,404L2475.8,404z"/>
	<path id="chiloe" class="st4" d="M2459,374.5l-1,1.5l0.5,2.7l1,0.1l0.5-3.4L2459,374.5L2459,374.5z"/>
	<path id="brazil" class="st4" d="M2500,345.9l4.9-9.5l0.2-8l9.2-5.9h5.1l4-6.8l0.7-13.1l-1.7-3.5l9.7-8.9l0.4-9.8l-13.2-6.5l-16-5
		l-7.5-0.7l2-4.3l-0.6-6.5l-1.6-0.5l-2.4,4.8l-1.3,1.6l-3.3-1.4l-11,3.9l-3.7-4.6l0.6-4.8l-3.5,3.5l-3.8-2.1l-0.4,0.5v1.7l3.3,1.8
		l-5,5.2h-3.1l-3.2-3.2l-3.6,0.1l-0.4,3.8l2.1,2.5l-2.4,7.8l-2.8,0.2l-4.5,2.9l-1.1,5.6l3.9,4.2l0.7-0.8l2.8-0.7l2.3,4l6.7-2.9
		l2.6,0.1l1.8,6.4l9.6,3l1.7,5.1l4.1,0.5l1.9,4.8l-1.3,4.3l1.7,2.3l-0.3,3.4l4.6-0.4l4.2,5.3l-0.3,3.7l2.5,2.1l-6,9.1L2500,345.9
		L2500,345.9z"/>
	<path id="belize" class="st4" d="M2413.5,222.6v2.9h0.7l2.3-4.2h-1.5L2413.5,222.6L2413.5,222.6z"/>
	<path id="russia" class="st4" d="M2896.9,57.5l1.4,4.8l2.8,0.8l2.8-4.4l-1.6-3l0.6-2.6h4.2l-1,2l0.4,7.2l-5.9,14.8l0.6,3.2
		l-0.2,5.4l11.1,16.2l2.2,0.6l0.2-13.2l2.2-2l-2.4-5.2l2-2.2l-4.4-5.8l-2.4,0.2l-0.8-9.6l6.1-1.6l0.4-2.8l3.2-0.8l1.8,1.6l2.2-8.8
		l3.8-6.4l3-1.6l2.6,0.2v-3l-4.2-0.8l-5.7-4.8l2.8-3.2l-2.4-5.4l2-2l2.4,3.2l5.9,2.2l6.5,0.6l0.8-2.8l-3.4-3.4l3.8-5.2l-8.5-3
		l-2.2,4.4l-2.8-3.6l-15.6-5.4l-14.9,2.6l-2.2,1.2v1.2l3.2,1.6l-0.4,3.8l-5.7-2.4l-12.7,5l-2.2-4.6h-8.7l-4,4.2l-14.1-3.2l-12.9,2.6
		l-1.6,4l2,0.6l-0.2,3l-12.5,1.4l0.8,4l-11.5-2l2.8-5.2l-11.7-0.6l1,5.4l-3.8,1.8l-3.2-3l-12.9,2.2l-4.9,4.6l-0.2,2.8l-3.2,0.2
		l-0.4-3.2l10.1-8.8v-6l-6.5-1.8l-8.5,2.8l-3.6-3.6h-1.6l-2,4l1.6,1.8l-11.3,6.2l-9.7,7.4l-5.9,8.2v3.4l6.3,2.6l-3.2,2.4l-6.7-2.4
		l-2.8,2.4l-4.2-4.8l-0.8,1.8l4.6,14.4l1.2,0.4l3.2-1.6l1.6,1.2v2.6l-3-1.2l-1.8,1.4l1.2,2.6l-1,6.8l-6.1,0.6l-0.4-2.2l3.6-2.2
		l0.8-6l-4-5.2l-1.4-9l-6.3-1l-0.6,3.2l1.2,1.6l-2.6,2.2l1,6l3.8,1.6l0.8,4.4l-3.8-2.4l-9.7-1.8l-1.2,3.2l-7.7,2.8l-1.2-2l-10.1,5.6
		l-0.2,3.8l-4,0.6l1.2-2.8v-2.8l-4-1.4l-2.6,1l2.2,4.2l1.6,2.8v2.2l-3-0.6l-0.6-0.6l-3,3.2l1.6,2.8l-6.7-0.2l2.2,2.8l-0.6,1.2h-3.6
		l-2.6-1.8l-0.6-5l-4.2-1.6v-2l8.7,1.8l4.8,0.4l2-3l-1.8-3.2l-12.7-5l-4.4,1.1l-1.5,1.3l0.5,3l1.9,0.3l-0.4,4.6l5.7,13.5l-4.1,6.6
		l-0.3,1.5l2.1,1.5l-1.9,1.3h-1.3l0.2,5.8l1.7,2.5v2.4l2.2,0.2l3.4,1.3l3.6,5v1.3l-1.2,2l2.7-0.1l2.6,0.8l3.5,5l8.7,0.8l-0.4,6
		l-3,2.6l0.6,1l-3,3.2l-0.8,3l1.8,2.6l5.7,2l2.4-1.4l15.2,5.8l0.6-1.6l-3.2-3v-3.8l-2-0.6l0.4-3.2l3.2-3.8l-5.7-4.3l0.4-5.9l6.1-4
		l7.1,0.4l1.2,2.2l7.3,0.4l5.4-3l-2.8-3l0.6-5.6l13.9-6.8l10.7,4.8l3.6-3.2l10.5,10l7.9-0.8l2.8,2.8l7.5,0.8l4.9-6.8l6.3,2.8
		l3.4,0.6l3.4-3l-3-2l2.6-4l7.3,2.4l1.6,3.2l3.2,0.2l2-1.4l5.4-0.2l0.6,1.4l6.1,0.4l4.2-4.4l8.5,1l2.6-1l0.8-4.8l-2.6-5.8l2.6-2.2
		h8.1l7.7,9.2l9.9,5.6h3l0.4-2.4l3.6-2.2l0.4,13l-3.2,0.2v3.2l1.8,2.2l-0.3,2.9l1.3,0.5l0.8-2l1.2,0.4l0.8,0.8l3.6-0.8l3.6-10.4
		l0.4-13l-4.6-10.4l-5.7-7l-2.8,0.4v2.2l-6.7-2.6l2.6-5.6l2.2-14.8l9.1-2.8l4.4-2.8h4.8l-1.2,1.6l1.2,2l4.2-4.4l2.4,0.2l-0.4-2.6
		l-3.8-0.8l2.6-9.4L2896.9,57.5L2896.9,57.5z"/>
	<path id="china" class="st4" d="M2780.6,134.1l-2.7,6.9l-3.8-0.2l-4,8.7l3.4,4.3l-6.9,9.6l-3.6-0.6l-2.4,3l0.6,1.8l2.8,0.2l1.4,3.2
		l2.8,0.6l8.5,11v5.6l4.2,2.6l4.6-0.8l5.7,3.4l6.9,2l3.4-0.4l3.8-0.4l7.9-5.2l2.6,0.4l1,2.3l2.2,0.7l3,4.4l-2,4.4l1.2,3l3.4,1.2
		l0.6,3.6l4,0.4l0.6-1.8l5.7-3l3.6,0.2l4.2,4.6l2.8-1.2l1.8,0.2l0.8,2.2l1.4,0.2l2-2.8l7.9-3l7.1-8.6l2.4-8.2l-0.2-5.4l-3-0.6l1.8-2
		l-0.4-3.2l-7.5-7.6V166l2.2-2.8l2.2-1l0.2-2.2h-5.5l-1,3l-2.6-0.6l-3.2-3.4l2-5.2l2.8-3l2.6,0.2l-0.4,4.6l1.4,1.2l3.4-3.4l1.2-0.2
		l-0.4-2.6l3.2-3.8l2.4,0.2l1.4-4.4l1.6-0.9l0.2-2.7l-1.6-1.7l-0.1-4.3l3-0.2l-0.2-11.1l-2.1,1.3l-0.8,2.9h-3.6l-10.3-5.8l-7.4-9
		l-7.5-0.1l-1.9,1.7l2.4,5.6l-0.9,5.2l-3,1.3l-1.7-0.1l-0.1,5.2l1.8,0.4l3.2-1.4l4.2,2v2l-3,0.2l-2.4,5.2l-2.2,0.2l-7.7,10.2
		l-8.1,3.6l-5.5,0.4l-3.8-2.6l-5.4,2.8l-5.7-1.8l-1.4-3.8l-9.7-0.6l-5.1-8.4h-2.2l-1.7-3.9L2780.6,134.1z"/>
	<path id="mongolia" class="st4" d="M2783.3,134.2l4.6-6.1l5.5,2.5l3.7,1l4.6-4.2l-3.1-2.3l2-2.9l6.1,2.2l2.1,3.5l3.8,0.1l2-1.5
		l4.1-0.2l0.9,1.5l6.8,0.3l4.3-4.4l6,0.6l-0.3,6l2.6,0.6l3.2-1.5l3.4,1.7l-0.1,0.9l-2.5,0.1l-2.6,5.4l-2,0.2l-7.8,10.2l-8,3.5
		l-5,0.4l-4.1-2.7l-5.3,2.8l-5.2-1.6l-1.5-3.8l-9.9-0.7l-5-8.6l-2.5-0.2L2783.3,134.2L2783.3,134.2z"/>
	<path id="north_korea" class="st4" d="M2865.6,153.2l1.4,0.6l0.4,5.1l2.9,0.2l2.7-3.2l-0.9-0.8l0.1-3.4l2.5-3l-1.3-2.3l0.8-0.9
		l0.5-2.4l-1.4-0.7l-1.2,0.6l-1.5,4.6l-2.5-0.2l-2.8,3.4L2865.6,153.2L2865.6,153.2z"/>
	<path id="south_korea" class="st4" d="M2873.6,156.3l4.9,4l0.8,3.8l-0.2,2.1l-2.4,2.7l-2,0.1l-2.3-5l-0.9-2.4l0.9-0.7l-0.2-1
		l-1.2-0.5L2873.6,156.3L2873.6,156.3z"/>
	<path id="kazakhstan" class="st4" d="M2706.8,148.7l3.2-1.4l3.6-0.1l0.3,5.5h-2.1l-1.6,2.6l2.1,3.5l3.1,1.8l0.3,2l1.1-0.4l1.1-1.3
		l1.7,0.4l0.9,1.8h2.2v-2.3l-1.4-4l-0.6-3.3l4-1.8l5.4,0.9l3.4,3.4l7.6-0.7l4.2,6l5,0.3l1.4-2.3l1.7-0.4l0.3-2.5l2.6-0.1l1.4,1.6
		l1.4-3.3l11.8,1.6l2-2.6l-3.4-4.1l4.5-9.8l3.6,0.3l2.5-6l-5-0.5l-2.9-2.8l-7.9,0.9l-10.1-9.8l-3.6,3.2l-10.9-4.9l-13.3,6.5
		l-0.4,4.6l3.1,3.6l-6.1,3.4l-7.9-0.2l-1.6-2.4l-6.2-0.3l-5.8,3.8l-0.1,5.1L2706.8,148.7L2706.8,148.7z"/>
	<path id="turkmenistan" class="st4" d="M2720.3,163.7l-0.5,2.1h-3.3v2.8l3.5,2.3l-1.1,3.2v1.5l1.5,0.2l1.9-2.6l4.4-1l9.3,3.5
		l0.1,2.6l5.2,0.5l5.8-6.1l-0.7-2l-3.9-0.9l-10.9-7.1l-0.5-2.6h-4.1l-1.8,3.4h-1.8L2720.3,163.7L2720.3,163.7z"/>
	<path id="uzbekistan" class="st4" d="M2747.9,172.7l2.4,0.1v-4.2l-2.3-1.3l3.9-4.9h1.6l1.6,1.8l4.1-1.6l-5.7-2l-0.2-1.2l-1.4,0.3
		l-1.3,2.3l-5.7-0.2l-4.2-6l-7.4,0.7l-3.5-3.5l-4.9-0.8l-3.5,1.4l2.1,6.8v2.3h1.5l1.8-3.5l4.9,0.1l0.7,2.7l10.5,7l4.1,0.9
		L2747.9,172.7L2747.9,172.7z"/>
	<path id="tajikistan" class="st4" d="M2748.9,167l3.2-4h1.2l0.4,0.9l-1.5,1.1v0.9l1,0.7l4.7,0.3l1.5-0.7l0.7,0.1l0.5,1.5l2.8,0.3
		l1.4,3l-0.4,0.9h-0.6l-0.6-1.1l-1.2-0.1l-2.1,0.3l-0.1,2l-2.1-0.1l0.1-2.5l-1.5-1.5l-2.3,1.9v1.3l-2.1,0.7h-1.2l0.1-4.4L2748.9,167
		L2748.9,167z"/>
	<path id="kirgizstan" class="st4" d="M2754.1,157.1l-0.2,2l0.2,1.2l6.9,2.3l-6,2.4l-0.7-0.6l-1.3,0.8l0.1,0.5l0.7,0.3l4.2,0.1
		l2.1-0.6l2.8-3.5l3.4,0.6l4.2-5.8l-11.1-1.5l-1.5,3.7l-1.9-2.1L2754.1,157.1L2754.1,157.1z"/>
	<path id="afghanistan" class="st4" d="M2736.3,179l1.3,9.8l3.1,0.7l0.3,1.8l-2.2,1.9l4.2,3.4l8.1-2.9l0.6-3.5l5.1-3.2l2-7.4
		l1.5-1.6l-1.5-2.6l4.9-3l-0.6-0.9l-2.3,0.1l-0.2,2.1h-3.1l-0.1-2.8l-1-1.2l-1.7,1.5v1.4l-2.5,0.9l-4.6-0.3l-6,6.3L2736.3,179
		L2736.3,179z"/>
	<path id="pakistan" class="st4" d="M2743.4,196.9l2,3l-0.2,1.6l-2.7,1.1l-0.2,2.6h3.1l1.1-0.9h5.9l5.4,4.7l0.7-2.3h4l0.1-2.8
		l-4.1-3.9l0.9-2.2l4.2-0.3l5.7-11.8l-3.1-2.5l-1.2-4.1l7.6-0.7l-4.5-6.4l-2.4-0.6l-1,1.2l-0.7,0.1l-4.5,2.8l1.5,2.5l-1.7,1.8
		l-2,7.6l-5.1,3.2l-0.7,3.5L2743.4,196.9L2743.4,196.9z"/>
	<path id="india" class="st4" d="M2781.1,246.7l3.6-1.8l2.1-7.8l-0.1-9.5l12.3-13.3v-3.1l2.5-1l-0.1-3.6l-2.7-5.3l1.6-2.8l3.4,3.1
		l4.4,0.2v1.8l-1.4,1.5l0.3,0.8l2.3,0.1l0.5,2.6h0.7l1.8-3.1l0.9-8.2l2.9-2.1l0.1-2.8l-1.2-2.3l-1.9-0.1l-7.2,4.8l0.5,3.1h-5.1
		l-1.8-2.2l-1,0.1l0.3,3.1l-11-0.8l-6.8-3l-0.4-3.7l-4.5-2.8l-0.1-5.8l-3.1-3.6l-7.2,0.7l0.8,3.1l3.5,2.8l-6.1,12.4l-4.1,0.3
		l-0.7,1.5l4,3.7l-0.2,3.7l-4.1-0.1l-0.4,1.9l3.4-0.1l0.1,1.5l-2.4,1.3l1.6,2.9l3,1l1.9-1.4l0.9-2.5l1.1-0.5l1.3,1.3l-0.4,3.1
		l-0.9,1.5l0.2,2.6L2781.1,246.7L2781.1,246.7z"/>
	<path id="nepal" class="st4" d="M2781.2,191.2l0.4,3.4l6.4,2.9l10.2,0.8l-0.4-2.5l-6.8-1.9l-5.8-3.4L2781.2,191.2L2781.2,191.2z"/>
	<path id="bhutan" class="st4" d="M2800.3,195.6l1.2,1.7h4.1l-0.4-2.3L2800.3,195.6L2800.3,195.6z"/>
	<path id="bangladesh" class="st4" d="M2800.5,199.5l-1,1.9l2.7,5.1l0.1,4l0.5,1.1l3.1,0.1l1.8-1.7l1.3,0.8l0.3,2.4l1-0.6l0.1-3.1
		l-0.9-0.1l-0.5-2.6l-2.2-0.1l-0.5-1.5l1.3-1.8v-0.9h-3.9L2800.5,199.5L2800.5,199.5z"/>
	<path id="burma" class="st4" d="M2827.1,239.4l-2.2-3.5l1.6-2.2l-1.5-2.8l-1.4-0.3l-0.3-4.6l-2.1-4.1l-0.6,1l-1.4,2.4l-1.8,0.3
		l-0.9-1.2l-0.4-3.1l-1.3-2.5l-5.4-5.1l1.3-0.9l0.2-3.7l2-3.3l0.9-8.2l2.9-1.9l0.1-3l1.7,0.6l2.7,3.9l-2,4.3l1.3,3.4l3.3,1.3
		l0.6,3.7l4.5,0.7l-1.2,2.1l-5.6,2.2l-0.6,3.6l4.1,5.3l0.2,2.8l-1,1l0.1,0.9l3.1,4.5l0.1,4.7L2827.1,239.4L2827.1,239.4z"/>
	<path id="thailand" class="st4" d="M2827.6,213.2l2.6,3.3v4l0.9,0.4l4.1-2l0.8,0.3l4.8,5.6l-0.2,3.8l-1.6-0.3l-1.4-0.9l-1.1,0.1
		l-1.9,3.1l0.4,1.7l1.5,0.8l-0.1,1.9l-1.1,0.5l-3.6-2.5v-2.2l-1.5-0.1l-0.6,1l-0.3,9.9l2.3,4.3l4.1,4l-0.2,1.2l-2.2-0.1l-2-3h-2.1
		l-2.6-2.1l-0.8-2.2l1.1-1.9l0.4-1.7l1.2-2.2l-0.1-5.1l-3-4.4l-0.1-0.5l1-1l-0.2-3.5l-4.1-5.1l0.5-3L2827.6,213.2L2827.6,213.2z"/>
	<path id="malaysia" class="st4" d="M2829.7,248.7l1.6,3.6l0.4,4.6l2.1,3.3l5.1,3.1l1.9,0.2l-0.4-3.2l-1.7-4.1l-2.5-5.2l-0.2,0.9
		l-3-0.1l-2.1-3.1L2829.7,248.7L2829.7,248.7z"/>
	<path id="cambodia" class="st4" d="M2835.8,236.1l3.2,3.4l6-4.4l0.5-7l-3.1,2.1l-1.6-0.9l-2.2-0.3l-1.2-0.9h-0.6l-1.6,2.6l0.3,1.2
		l1.6,0.9l-0.2,2.5L2835.8,236.1L2835.8,236.1z"/>
	<path id="laos" class="st4" d="M2831.9,207.3l-1.9,1l-1.6,4.6l2.6,3.4l-0.4,3.7l0.4,0.2l4.4-2.1l5.9,6.6l-0.1,4.2l1.3,0.7l3.2-2.6
		l-0.3-2l-9.2-8.7l0.1-1.3l1.1-0.8l-0.8-2.2l-3.8-0.6L2831.9,207.3L2831.9,207.3z"/>
	<path id="vietnam" class="st4" d="M2839.5,240l0.9,1.5l0.2,1.7l2.5,0.3l3-4l2.8-0.8l1.5-4.1l-0.7-6.6l-2.9-4l-3.1-2.5l-3.9-6.7
		l2.8-4.7l-4-4.6l-3.2-0.1l-2.9,1.6l0.9,3.7l3.8,0.7l1,2.9l-1.4,0.9l0.1,0.7l9,8.8l0.4,2.6l-0.5,8.2L2839.5,240L2839.5,240z"/>
	<path id="georgia" class="st4" d="M2690,161l2.6,3.4l3.2,1.5h2l3.4-0.9l0.9-1.3l-10-3.8L2690,161L2690,161z"/>
	<path id="armenia" class="st4" d="M2701.3,165.5l3.8,4.9l-1.1,1.3l-2.7-0.5l-3.3-3l0.2-2L2701.3,165.5L2701.3,165.5z"/>
	<path id="azerbaijan" class="st4" d="M2702.6,163.8l-0.8,1.4l3.7,4.9l1.3-0.4l2.1,2.2l0.9-3.9l2.3,0.4l-0.1-1.1l-3.8-3.3l-0.7,2
		L2702.6,163.8L2702.6,163.8z"/>
	<path id="iran" class="st4" d="M2701.2,171.8l-1,1l0.1,1.6l1.2,1.7l4.2,4.6l-0.6,1.9h-0.7l-0.4,1.9l2.4,3.1l2.2,0.2l4.4,6.1
		l2.5,0.2l1.9,1.4l0.1,2.8l7.7,4.5h2.9l1.8-1.5l2.2-0.1l1.3,3l8.3,1.2l0.2-3l2.7-1l0.1-1.1l-2.2-3l-4.9-3.9l2.6-2.3l-0.2-1l-3.2-0.5
		l-1.4-10.8l-0.2-2.5l-8.7-3.3l-3.8,0.9l-2.2,2.6l-1.9-0.1l-0.6,0.5l-4.2-0.3l-5.4-3.9l-2-2.2l-0.9,0.2l-1.6,1.9L2701.2,171.8
		L2701.2,171.8z"/>
	<path id="turkey" class="st4" d="M2692.6,164.9l-1.8,1.9l-6.5-0.2l-3.9-2.3l-3.8-0.1l-4.3,3.1l-4.1,0.2l-0.4,2.3h-4.6l-1.8,1.7v0.9
		l1.1,0.9v1l-0.5,1.2l0.5,1l1.5-0.7l1.5,1.6l-0.4,1.1l-0.6,0.7l0.8,0.9l4.1,0.8l2.9-1.2v-1.8l1.4,0.3l3.3,2l3.6-0.6l1.6-1.5l1,0.4
		v1.7h1.4l1.2-2.3l10.5-1.1l4.6-0.6l-1.2-1.6v-2.2l0.9-1.1l-3.4-2.7l0.2-2.3h-1.8L2692.6,164.9L2692.6,164.9z"/>
	<path id="yemen" class="st4" d="M2703.1,228l1.1,3.4v3.3l2.7,2.5l19.2-7.8l0.2-2.2l-3.1-5.5l-7.7,2.5l-4.4,4.4l-5.1-3L2703.1,228
		L2703.1,228z"/>
	<path id="oman" class="st4" d="M2723.9,221.4l5.8-3.4l1-4.9l-1.3-0.7l0.5-5.3l1.1-0.6l1.2,1.9l7.1,3.7v2.1l-8.6,12.6l-3.9,0.1
		L2723.9,221.4L2723.9,221.4z"/>
	<path id="emirates" class="st4" d="M2720.4,208.8l0.7,2.7l7.8,0.7l0.5-5.6l1.5-0.8l0.4-2.1l-2.5,0.7l-2.7,4.1L2720.4,208.8
		L2720.4,208.8z"/>
	<path id="qatar" class="st4" d="M2719.3,204.2l-0.4,3.2l1.2,0.9l1.1-0.1l0.4-4l-1-0.7L2719.3,204.2L2719.3,204.2z"/>
	<path id="kuwait" class="st4" d="M2712,194.8l-1.8-1l-1.2,1.2l0.1,2.5l2.9,1.1V194.8L2712,194.8z"/>
	<path id="saudi" class="st4" d="M2712.5,199.6l5.5,7.7l1.8,1.4l0.8,3.5l8.5,0.7l1,0.5l-1,4.3l-5.6,3.3l-8.2,2.5l-4.4,4.3l-5.2-3
		l-3.1,2.7l-4.4-7.1l-3-1.4l-1.1-1.6v-3.6l-10.9-13.2l-0.4-2.3h3.1l3.8-3.3l0.1-1.6l-1.1-1.1l2.2-1.8l4.6,0.3l7.9,6.6l4.7-0.2
		l0.3,1.2L2712.5,199.6L2712.5,199.6z"/>
	<path id="syria" class="st4" d="M2683.1,180.6l-0.3,2l2.2,0.9l-0.1,5.5h2.2l2.2-1.7l0.8-0.1l5-4l1-5.8l-10.1,1l-1.1,2.3
		L2683.1,180.6L2683.1,180.6z"/>
	<path id="iraq" class="st4" d="M2697,177.4l-1.2,6.1l-5.1,4.2l0.3,2l5,0.3l7.9,6.4l4.4-0.1l0.1-1.5l1.6-1.7l2.3,1.3l0.3-0.3
		l-4.4-5.8l-2.1-0.1l-2.8-3.6l0.6-2.6l0.8-0.1l0.3-1.2l-3.8-4L2697,177.4L2697,177.4z"/>
	<path id="jordan" class="st4" d="M2684.9,189.8l-1.9,6.8l-0.1,1h3l3.4-3l0.1-1.1l-1.4-1.4l2.5-2.1l-0.4-1.9l-0.7,0.2l-2.1,1.5
		H2684.9L2684.9,189.8z"/>
	<path id="lebanon" class="st4" d="M2682.7,183.2v1.5l-0.6,2.3l2.2,0.2l0.1-3.3L2682.7,183.2L2682.7,183.2z"/>
	<path id="israel" class="st4" d="M2682.1,187.7l-1.2,4l1.6,4.8l1.9-6.9v-1.5L2682.1,187.7L2682.1,187.7z"/>
	<path id="cyprus" class="st4" d="M2680.4,181.2l1,0.7l-3,2.8h-1.4l-1.1-0.7l0.1-1.4l2.2-0.1L2680.4,181.2L2680.4,181.2z"/>
	<path id="norway" class="st4" d="M2658.5,80.6l1.6-1.2l-0.1-1.3l-1-0.6l0.1-1.6h0.9V75l-3.8-1l-5.6,0.6l-0.6,2.5l-1.3-0.4l-0.9-1.5
		l-2.8,0.1l-0.3,2.8l-1.3,0.6l-0.7-1.5l-5.8,4.7l1.2,1.3l-2.2,1L2631,94l-1.7,1.2l0.1,0.9l1.7,0.9l-0.4,1.9l-2.9-0.1l-0.9-1
		l-1.9,2.2l-1.2,0.9l-0.3,2l-1,0.6l-2.6,0.6l-1.3,4.1l0.9,6.7l1,3.1l1.2,1.2l2.6-0.1l3.8-3.6l1.4-2.5l0.4,3.6l2.5-4.4l0.1-12.2
		l2-1.3l0.6-6.8l6.1-8.7l2.9-1l1.3-1.6l4.3,1l2.2,1.3l0.7-3.6l3.6-2.2L2658.5,80.6L2658.5,80.6z"/>
	<path id="britain" class="st4" d="M2603.9,117.5l-1.4,2.2l0.6,0.9h3.3v1.5l-0.9,1.2l0.6,3.1l1.9,3.6l1.4,3.3l2.3,0.9l1,1.7
		l-0.1,1.6l-1.4,0.9l-0.1,0.7l1,0.6l-0.9,1.2l-2,0.9l-3.9-0.4l-6.1,2.8l-2-1l5.8-3.3l-0.7-0.4l-3-0.3l1.9-2.8l0.3-2.3l2.5-0.3
		l-0.4-4.5l-2.9-0.1l-0.9-1l0.1-3.3l-1.7,0.1l1.7-5.8l3.2-2.3L2603.9,117.5L2603.9,117.5z"/>
	<path id="ulster" class="st4" d="M2597.8,127.3l-2.6,0.3l-0.1,2.3l1.7,1.2l1.9-0.4l0.7-1.3L2597.8,127.3L2597.8,127.3z"/>
	<path id="ireland" class="st4" d="M2598.7,131.3l-0.7,4.7l-6.4,2.3h-2l-1.4-1v-0.9l3.2-2l-0.9-1.7l0.1-2.5l2.8,0.1l1.3-3l-0.2,2.6
		l2.1,1.7L2598.7,131.3L2598.7,131.3z"/>
	<path id="sweden" class="st4" d="M2644.5,82.5l1.5,1.4h2.9l1.6,3.1l0.4,5.2L2647,95v2.8l-2.8,3.8l-1.6,0.1l-2.2,3.6l0.1,3.5
		l3.8,2.8l-0.3,1.6l-1.4,2.2l-2.2,1.9l0.1,6.3l-3.3,1.2l-1.2,2.5h-1.6l-0.9-4.4l-3.6-5.5l3-5l0.2-12.3l2-1.1l0.5-7l5.8-8.4
		L2644.5,82.5L2644.5,82.5z"/>
	<path id="finland" class="st4" d="M2651.7,92.2l1.6,0.7l1,1.9l-1,1.3l-5.1,5.5l-0.9,2.9l1.2,4.2l3.9,2.9l5.2-2.5l4.2-0.6l3.9-6.3
		l-2.9-6.8l-2.8-6.6l0.4-4.2l-1.7-0.3l-0.4-3.1l-2.3-3.8l-2.6,1.8l-1,4.2l-2.7-1.6l-3.8-0.9l-0.9,1l1.5,1.3h2.7l2.2,3.5L2651.7,92.2
		L2651.7,92.2z"/>
	<path id="path302" class="st4" d="M2660.6,119.4l-5.4-0.9l0.1,3l5,3.1l2-0.6l-0.1-2.3L2660.6,119.4L2660.6,119.4z"/>
	<path id="hiumaa" class="st4" d="M2651.7,116.4h-1.2l-0.7,0.7l0.5,0.8l1.2,0.1l0.6-0.9L2651.7,116.4L2651.7,116.4z"/>
	<path id="saaremaa" class="st4" d="M2651.5,119.6l-1.2-0.1l-2.1,2.5v1.2l0.7,0.3h1.4l2.3-1.9l0.3-0.6L2651.5,119.6L2651.5,119.6z"
		/>
	<path id="lithuania" class="st4" d="M2654.9,122h-1.7l-2.3,2.2h-2l0.1,2.8l-1.2,2.2h4.3l1.2-0.2l1.2,1.5l2.8-0.1l2.7-3.4l-0.2-2
		L2654.9,122L2654.9,122z"/>
	<path id="belarus" class="st4" d="M2654.7,131.1l1.2,1.9l-0.5,1.6l0.1,1.2l0.4,1.5l2.4-1.4l3,0.1l2.1,0.9h5.4l1.6-3.8l0.9-1.4v-1
		l-3.4-4.8l-3-1.2l-2.4-0.3l-2.1,0.7l0.1,2.1l-3,3.7L2654.7,131.1L2654.7,131.1z"/>
	<path id="poland" class="st4" d="M2655.4,137.8l0.7,1.2l0.2,1.3l-0.6,1.3l-1.3,2.4l-1.1,0.5l-1.4-0.6h-0.8l-2,0.8l-2.3-0.7
		l-3.7-2.6l-3.6-1.9l-1.5-2.2l-0.3-5.2l2.8-2.5l3.7-1.2l1.4-0.2l-0.6,1.1l0.4,0.4l6.2,0.1h1.3l2.2,3.4l-0.6,1.4l0.2,1.6
		L2655.4,137.8L2655.4,137.8z"/>
	<path id="spain" class="st4" d="M2605.6,161.6h-10l-2-0.9l-1,0.1l-1.2,2.5l0.4,2.5l3.8,0.4l0.5,1.6l-1.7,9.4l0.1,1.7l2.7,1.5
		l3.1,0.2l6.3-1.5l3.1-3.9l0.1-3.9l5.4-4.9l0.3-2.2l-4.9-0.1L2605.6,161.6L2605.6,161.6z"/>
	<path id="portugal" class="st4" d="M2591.9,166.5l-0.5,6.8l-1.4,1.3l0.1,0.8l1,1.6l-0.6,2l1,0.4l2.4-0.3l-0.1-2l1.6-9.1l-0.3-1.3
		L2591.9,166.5L2591.9,166.5z"/>
	<path id="majorca" class="st4" d="M2615.7,171.2l-1.3,0.4l0.3,1.1h1.8l0.8-0.8L2615.7,171.2L2615.7,171.2z"/>
	<path id="sardinia" class="st4" d="M2628.7,168.2l-2.1,1.1l0.3,4.1l1.7,0.3l1.3-1.2v-3.9L2628.7,168.2L2628.7,168.2z"/>
	<path id="corsica" class="st4" d="M2628.9,163.2l-1.5,1.5l-0.1,1.4l1.3,0.8l0.5-0.1l0.3-2L2628.9,163.2L2628.9,163.2z"/>
	<path id="france" class="st4" d="M2615.1,140.9l-1.7,0.4l-3.5,3.8l-1,0.1l-1.4-1l-0.9,0.2l-0.7,2.2l-5.1,0.1l0.1,1.1l3.5,2.3l4,3.2
		l-0.1,3.9l-2.2,3.8l4.7,2.2l4.7,0.1l1.5-1.7l3,0.1l0.8,0.8l3-0.2l1.5-2l-2-2.3l-0.1-1.5l0.4-1.6l-1-1.4l-1.7,0.5l-0.2-1.3l3.7-4.1
		v-2.5l-2.4-1.4l-1.3-0.2L2615.1,140.9L2615.1,140.9z"/>
	<path id="netherlands" class="st4" d="M2622.8,132.7l-3.6,1.8l0.8,0.7l0.1,1.8l-0.8-0.1l-0.8-1.3l-2,3.2l3.1,0.6l1.1,1.2h0.6
		l0.4-2.7l1.9-0.8L2622.8,132.7L2622.8,132.7z"/>
	<path id="belgium" class="st4" d="M2616.1,139.2l-0.5,1.3l5.4,3.6l1.6,0.4l0.1-1.7l-1.4-1.5h-0.8l-1.1-1.3L2616.1,139.2
		L2616.1,139.2z"/>
	<path id="germany" class="st4" d="M2623.6,132.4l2.8-0.5v-2l2.4-0.4l1.3,1.3l1.4,0.1l2.1-0.9l1.9,0.5l1.7,1.4l0.2,5.4l1.7,2.2
		l-2.2,0.3l-3.6,2.3l0.3,0.8l3.3,3.1l-0.2,1.5l-3,1.5l-2.8,0.1l-0.7,1.4h-1.4l-0.7-1.5l-2.5-0.6l-0.1-2.5l-2.1-1.4l0.2-1.8l-1.4-2
		l0.4-2.6l2-0.9L2623.6,132.4L2623.6,132.4z"/>
	<path id="denmark" class="st4" d="M2628,119.5l-3.3,3.6l-0.1,2.4l1.5,3.9l2.3-0.4l-0.3-3.2l1.6-1.8v-1.4l-1.1-2.9L2628,119.5
		L2628,119.5z"/>
	<path id="sjlland" class="st4" d="M2631.7,125.9h-0.7l-1,0.9l0.1,1.4l2.3,0.1l0.1-1.6L2631.7,125.9L2631.7,125.9z"/>
	<path id="gotland" class="st4" d="M2645.1,118.4l-1.7,1.3l0.8,1.9l1.5-1.4L2645.1,118.4L2645.1,118.4z"/>
	<path id="switzerland" class="st4" d="M2625,149.3l-3.4,3.7l0.1,0.4l1.4-0.4l1.3,1.8l2.1-0.8l1.5,1.2l0.6-0.3l1.8-2.9l-0.5-0.4
		h-1.8l-0.9-1.8L2625,149.3L2625,149.3z"/>
	<path id="czech" class="st4" d="M2637.2,145.8h2.3h1.2l1.9,1.3l3.5-2.9l-3.4-2.4l-3.3-1.6l-2.3,0.4l-3.1,2L2637.2,145.8
		L2637.2,145.8z"/>
	<path id="slovakia" class="st4" d="M2643.1,147.5l0.5,0.5l0.1,0.8l6-0.1l4.4-1.9l-0.1-1.9l-0.9,0.4l-1.2-0.7h-0.7l-2,0.8l-2.7-0.6
		L2643.1,147.5L2643.1,147.5z"/>
	<path id="austria" class="st4" d="M2631.1,149.9l-0.5,1.1l0.4,0.8l1.8-0.4h1.6l1.7,1.4l3.6-0.7l2.6-1.6l0.7-1.1l-0.1-1.4l-2.4-1.8
		h-3.2l-0.3,1.8l-3.4,1.6L2631.1,149.9L2631.1,149.9z"/>
	<path id="hungary" class="st4" d="M2643.8,149.5l-0.9,1.4l0.1,2.2l1.5,0.7l4.5,0.1l6.2-5.3v-1.2l-0.7-0.3l-4.5,2L2643.8,149.5
		L2643.8,149.5z"/>
	<path id="slovenia" class="st4" d="M2642.2,151.4l-2,1.2l-3.7,0.8l0.7,2.2h2.6l2.4-2V151.4L2642.2,151.4z"/>
	<path id="croatia" class="st4" d="M2642.9,153.9l-2.8,2.3h-2.8l-0.3,2l1.3,0.3l0.6-1l1,0.9l0.8,2.8l5.6,2.6l0.6-0.6l-5.7-5.8
		l0.6-1.1l5.4-0.2l0.5-1.7l-3.5,0.1L2642.9,153.9L2642.9,153.9z"/>
	<path id="bosnia" class="st4" d="M2642.2,156.8l-0.3,0.5l5.3,5.5l1.9-2.9l-0.1-1.1l-1.7-2.1L2642.2,156.8L2642.2,156.8z"/>
	<path id="italy" class="st4" d="M2624.5,155.3l-0.5,1.2l0.1,1.3l1.9,2.2l3-0.1l6.5,7.6l4.1,1.2l2.4,2.3l0.6,5.2l1.3-0.8l1.1-2.8
		l-0.3-2l1.9-0.2l0.3-1.2l-5.4-2.6l-5.1-5l-2-3l-0.5-2.9l2.6-0.6l-0.7-1.9l-1.6-1.3l-1.4-0.1l-1.9,0.5l-1.8,2.5l-1.1,0.7l-1.7-1
		L2624.5,155.3L2624.5,155.3z"/>
	<path id="sicily" class="st4" d="M2640.4,175.8l-1.1-0.6l-3.9,0.6l0.1,1.1l3.5,1.8l0.5,0.6l0.9,0.1V175.8L2640.4,175.8z"/>
	<path id="malta" class="st4" d="M2640.5,181.7l-1.3,0.3v1.5l1.2,0.4l0.5-0.4L2640.5,181.7L2640.5,181.7z"/>
	<path id="ukraine" class="st4" d="M2658.6,136.5l-2.3,1.3l0.6,2.4l-2.1,4.5v2l1,0.6l6.4,0.3l1.8-1.5l1.9,0.6l2.7,3.6l-2,3.6
		l2.4,0.7l3.1-3.6l1.8,0.3l1.7,1.2l-1.5,1.9l2,3.1h2.1l1.1-2l2.2-0.4l0.1-1.7l-4.1-0.6l0.1-1.8h4l4.3-3.5l1.9-1.7l0.3-5.2l-8.5-0.8
		l-3.5-4.9l-2.4-0.8l-2.9,0.1l-1.3,3.3l-6,0.1l-1.9-0.9L2658.6,136.5L2658.6,136.5z"/>
	<path id="moldova" class="st4" d="M2662.7,148l2.4,3.8l-0.2,2.1h0.9l2.1-3.5l-2.5-3.1l-1.4-0.6L2662.7,148L2662.7,148z"/>
	<path id="romania" class="st4" d="M2655.9,147.9l-0.2,1.2l-4.6,3.8l3.8,5.6l2.4,1.7h4.4l1.4-1.2l1.9-0.3l1.4,0.9l2.6-2.9l-0.5-1.5
		l-2.6-0.7l-1.8-0.1l0.1-2.5l-2.4-3.7L2655.9,147.9L2655.9,147.9z"/>
	<path id="montenegro" class="st4" d="M2650.2,163.4v-0.7l-1-1.5l-1.7,2.4l0.3,1l1.4,0.3L2650.2,163.4z"/>
	<path id="serbia" class="st4" d="M2650.7,153.4l-1.6,1.2h-0.8l-0.5,1.7l1.9,2.2l0.1,1.8l-0.3,0.4l1.3,1.8v1l0.9,0.9l3-0.9l-0.3-4.3
		L2650.7,153.4z	">
<desc  id="desc7821">includes kosovo</desc>
	</path>
	<path id="bulgaria" class="st4" d="M2655.4,159.6l0.1,3.9l1.3,2.8l5,0.1l2.2-1.6l2.2-0.9l-0.5-2.5l0.5-1.3l-1.1-0.6l-1.5,0.1
		l-1.2,1.2h-5.1L2655.4,159.6L2655.4,159.6z"/>
	<path id="albania" class="st4" d="M2649.5,165.4v3.6l1,2l0.7-0.1l1.3-2.3l-0.7-1l-0.3-2.6l-1-0.9L2649.5,165.4L2649.5,165.4z"/>
	<path id="macedonia" class="st4" d="M2654.9,164l-2.7,0.9l0.1,2.3l0.6,0.8l3.2-1.5L2654.9,164L2654.9,164z"/>
	<path id="greece" class="st4" d="M2651.6,171.5l-0.1,1l3.6,1.8l1.7,0.7l-0.9,1l-2,0.2l-0.3,0.9l0.7,1.6l2.3,1.2l1,0.1l0.1-2.7
		l1.5-1.8l-4.1-4.8l0.5-1.6h1l1.5,1.2l0.9-0.5l0.3-1.6h4.3l0.2-2.5l-1.8,1.3l-5.2-0.1l-3.4,1.8L2651.6,171.5L2651.6,171.5z"/>
	<path id="thrace" class="st4" d="M2664.5,165.3l-0.1,2.8l2.4-0.7l1.1-0.7l-0.3-1.2l-1.2-0.9L2664.5,165.3L2664.5,165.3z"/>
	<path id="crete" class="st4" d="M2659.5,181.8h1.3l0.5,0.8h1.9l1.2-0.5l0.4,0.5l-0.8,1.1l-3.6,0.1l-0.7-0.9l-0.7-0.4L2659.5,181.8
		L2659.5,181.8z"/>
</g>
</svg>
