<?xml version="1.0" encoding="utf-8"?>
<!-- Generator: Adobe Illustrator 21.0.0, SVG Export Plug-In . SVG Version: 6.00 Build 0)  -->
<svg version="1.1" id="Laag_4" xmlns="http://www.w3.org/2000/svg" xmlns:xlink="http://www.w3.org/1999/xlink" x="0px" y="0px"
	 viewBox="0 0 425.5 253.5" style="enable-background:new 0 0 425.5 253.5;" xml:space="preserve">
<style type="text/css">
	.st0{fill-rule:evenodd;clip-rule:evenodd;fill:#28A4DD;}
</style>
<rect x="129" y="91.5" class="st0" width="163" height="28.5"/>
<circle class="st0" cx="129.3" cy="62.3" r="23.8"/>
<circle class="st0" cx="182.8" cy="62.3" r="23.8"/>
<circle class="st0" cx="236.8" cy="62.3" r="23.8"/>
<circle class="st0" cx="290.8" cy="62.3" r="23.8"/>
<rect x="190" y="13.5" class="st0" width="40.5" height="13"/>
<rect x="203.5" class="st0" width="13.5" height="41"/>
<polygon class="st0" points="0,145.5 39.5,145.5 39.5,186 79.5,145.5 121,145.5 71,196 128,253.5 79.5,253.5 39.8,213.8 39.8,253.5 
	0,253.5 "/>
<g>
	<g>
		<polygon class="st0" points="170,227 170,146 129.5,146 129.5,253.5 237,253.5 237,227 		"/>
	</g>
</g>
<polygon class="st0" points="251,146 318,146 337.5,206.5 357.5,146 425.5,146 425.5,253.4 385,253.4 385,174 357.5,253.4 
	318,253.4 291,174 291,253.4 251,253.4 "/>
</svg>
