<?xml version="1.0" encoding="utf-8"?>
<!-- Generator: Adobe Illustrator 21.0.0, SVG Export Plug-In . SVG Version: 6.00 Build 0)  -->
<svg version="1.1" id="Layer_1" xmlns="http://www.w3.org/2000/svg" xmlns:xlink="http://www.w3.org/1999/xlink" x="0px" y="0px"
	 viewBox="0 0 250 250" style="enable-background:new 0 0 250 250;" xml:space="preserve">
<style type="text/css">
	.st0{fill:url(#SVGID_1_);}
	.st1{fill-rule:evenodd;clip-rule:evenodd;fill:#B5B6B5;}
	.st2{fill-rule:evenodd;clip-rule:evenodd;fill:#0000FF;}
	.st3{fill-rule:evenodd;clip-rule:evenodd;fill:#FF0000;}
</style>
<linearGradient id="SVGID_1_" gradientUnits="userSpaceOnUse" x1="143.6284" y1="104.8819" x2="250" y2="104.8819">
	<stop  offset="0" style="stop-color:#0000FF"/>
	<stop  offset="1" style="stop-color:#D9D9FF"/>
</linearGradient>
<path class="st0" d="M246.4,158.1c-1.9-0.5-9.6-4.3-14.1-4.6c-4.5-0.3-17.6,10.1-17.6,10.1s-24.6-55.8-28.1-82.5
	c-6.1-46.1,3.8-80.8,3.8-80.8s-22.3,22.6-33.3,41.1l39.8,83.8l-43.4-77.2c-2.4,4.7-4,8.8-5.3,12.6l48.7,79.3l-50.8-71.4
	c-1.3,6-1.6,11.6-2.3,18.1c-0.4,4.1-0.2,7.9,0.6,11.6l50.9,50.8l-47.6-40.4c1.5,3.5,3.3,7.1,5.4,11c4,7.5,11.9,16.4,19.2,28.5
	l25.5,14.9l-22.6-9.8c1.6,3,3.2,6.2,4.7,9.6c1.4,3.3,2.4,6.6,3.1,9.9l19.9,1.9l-19.1,2.3c0.7,4.5,0.9,8.9,0.9,12.8l9-2.2l-9,3.7
	c-0.1,2.6-0.3,5-0.5,7.1l7.1-3.3l-7.3,4.9c-0.8,6-1.9,9.8-1.9,9.8l58.7-47.5l9.1-3.1C250,158.9,248.3,158.6,246.4,158.1z"/>
<g>
	<path class="st1" d="M104,192.9c10.2,1.9,25.2,3.7,40.2,2c15.1-1.8,28.7-3.5,37.6-4.6c0.1-6.6-0.7-10.8-1.6-13.4
		c-6.8,1.3-22.2,3.4-40.1,0.7c-24.4-3.6-41.8-7.9-48.4-11.4c-1.1,5-1.2,6.4-1.2,6.4S93.2,182.5,104,192.9z"/>
	<path class="st1" d="M181,199.6c0.2-1.5,0.4-3,0.6-4.7c0.1-1.1,0.2-2.1,0.2-3.1c-5.4,1.3-12.7,2.9-21.8,4.5
		c-12.2,2.2-32.3,3.3-47.1,3.8c4,2.7,8.7,5.3,14.2,7.6c9.1,3.8,16.8,6.4,23.3,7.9L181,199.6z"/>
	<path class="st1" d="M155.4,216.5c9.1,1.4,15.8,0.2,21.4-2.9c1.4-3,3-7.1,4-12.4C176.4,203.7,164.3,211.1,155.4,216.5z"/>
</g>
<g id="Layer_2">
	<path class="st2" d="M82.7,129.8c0,0-54.7,1.2-73.7,22.2s-1,34,0,35s19,20,64,22c0,0,38,3,66-9s31.9-21,31-34c-1-14-25-25-25-25
		l-6,3c0,0,19.3,10.3,19,24c-0.3,12-4,23-23,29s-44,11-71,8c-24.4-2.7-53-18-50-40c2.4-17.3,37-28,42-29s26.9-3.2,26.9-3.2
		L82.7,129.8"/>
</g>
<path class="st3" d="M109.3,105.9c-8.3,2.5-23.4,0.5-33,1.6c-9.5,1.1-20.5,13-20.5,13s9.9-2.4,17.5-4c3.1-0.7,6.1-0.5,9.8-0.4
	l4.3,49l-51.9-29.7L88.4,173h4.8l3-57.5c2.6-0.4,5.6-1,8.9-1.8c16.9-4.5,24.8-16.2,24.8-16.2S117.6,103.4,109.3,105.9z"/>
</svg>
