<?xml version="1.0" encoding="utf-8"?>
<!-- Generator: Adobe Illustrator 21.0.0, SVG Export Plug-In . SVG Version: 6.00 Build 0)  -->
<svg version="1.1" id="Layer_1" xmlns="http://www.w3.org/2000/svg" xmlns:xlink="http://www.w3.org/1999/xlink" x="0px" y="0px"
	 viewBox="0 0 256 256" style="enable-background:new 0 0 256 256;" xml:space="preserve">
<path d="M86.8,51.9c-1.7,4.2-3.3,8.3-5.1,12.9c-2.5,0-5.6,0-8.9,0c0,48,0,95.7,0,143.6c37.3,0,74.4,0,111.8,0c0-47.7,0-95.5,0-143.4
	c-3.1,0-6.2,0-9.3,0c-0.6-2.4-1-4.7-1.9-6.7c-0.8-2.1-2.1-4-3.2-6.2c0.5,0,1-0.1,1.6-0.1c6.2,0,12.4,0,18.7,0c4.9,0,7.4,2.5,7.4,7.4
	c0,9.1,0,18.3,0,27.4c0,42.3,0,84.6,0,127c0,4.5-1.7,7-5.3,7.8c-0.7,0.2-1.5,0.2-2.3,0.2c-41.1,0-82.2,0-123.2,0
	c-4.9,0-7.5-2.5-7.5-7.4c0-51.7,0-103.3,0-155c0-4.9,2.5-7.4,7.4-7.4c6.2,0,12.3,0,18.5,0C86,51.8,86.6,51.9,86.8,51.9z"/>
<path d="M114.5,158.6c-4.3-0.5-10.6-1.3-16.9-2.1c-1.3-0.2-2.5-0.8-3.7-1.3c-6.1-2.3-6.1-9.5-2.5-12.5c2.9-2.5,6.2-4.5,9.5-6.5
	c1.6-1,3.4-1.5,5.1-2.2c3.7-1.5,4.4-4.4,1.9-7.5c-4.7-5.8-7-12.4-5.9-20c1.1-7.3,6.8-12,14.4-12c7.5,0,13.2,4.8,14.3,12.1
	c1.1,7.5-1.2,14-5.9,19.8c-2.7,3.4-1.9,6.3,2.1,7.8c4.7,1.8,9.2,3.8,13,7.1c2.2,1.9,3.6,4,3.7,7.1c0,3.1-1.3,5.4-4,6.4
	c-3.5,1.3-7.1,2.3-10.7,2.9C124.9,158.2,120.7,158.2,114.5,158.6z"/>
<path d="M110.4,51.6c1.2-3.3,1.8-6.3,3.2-8.9c2-3.8,5.5-6.1,9.8-6.6c3.3-0.4,6.7-0.5,9.9-0.1c7.5,1,12.4,6.8,12.8,14.3
	c0,0.3,0,0.7,0.1,1.3c2.1,0,4.1,0,6.1,0c7.3,0.2,13.3,5.1,14.5,11.9c1.4,7.6-2.1,14.5-8.8,17.1c-1.8,0.7-3.9,1.1-5.8,1.1
	c-15.6,0.1-31.3,0.1-46.9,0c-8.8,0-15.2-6.4-15.2-15.2c0-8.4,6.5-14.8,15.1-15C107.1,51.6,109,51.6,110.4,51.6z M128.6,73.9
	c7.7,0,15.3,0,23,0c1,0,2,0,2.9-0.3c3.4-1,5.3-4.3,4.8-8c-0.5-3.6-3.2-6.1-6.9-6.2c-3.3-0.1-6.6,0-10,0c-2.6,0-4.1-1.5-4.2-4.1
	c0-1.7,0-3.3,0-5c-0.1-3.7-2.9-6.6-6.6-6.7c-2-0.1-4-0.1-6,0c-3.6,0.2-6.4,2.9-6.5,6.5c-0.1,1.6,0,3.2,0,4.8c0,3-1.4,4.5-4.4,4.5
	c-3,0-6.1,0-9.1,0c-4.6,0-7.5,2.9-7.5,7.3c0,4.4,2.9,7.2,7.6,7.2C113.2,73.9,120.9,73.9,128.6,73.9z"/>
<path d="M132.7,180.3c0.6-0.7,1.1-1.2,1.5-1.8c9.5-11.8,19.1-23.7,28.6-35.5c1.3-1.6,2.9-2.7,5-2.9c2.7-0.2,4.9,0.9,6.2,3.3
	c1.2,2.4,0.9,4.7-0.8,6.8c-5.9,7.3-11.8,14.6-17.7,22c-5.6,7-11.3,14-16.9,21c-3.2,4-7.5,4.1-10.9,0.4c-4.8-5.3-9.5-10.6-14.2-15.9
	c-2.6-3-2.6-6.6,0.1-9c2.6-2.4,6.8-2.1,9.3,0.6c2.9,3.1,5.6,6.3,8.4,9.4C131.8,179.2,132.2,179.7,132.7,180.3z"/>
<path d="M128.7,55.6c-1.6,0-3-1.4-3-3c0-1.7,1.5-3.2,3.1-3.2c1.6,0.1,2.9,1.5,2.9,3.1C131.7,54.2,130.3,55.6,128.7,55.6z"/>
</svg>
