<?xml version="1.0" encoding="utf-8"?>
<!-- Generator: Adobe Illustrator 21.0.0, SVG Export Plug-In . SVG Version: 6.00 Build 0)  -->
<svg version="1.1" id="Layer_1" xmlns="http://www.w3.org/2000/svg" xmlns:xlink="http://www.w3.org/1999/xlink" x="0px" y="0px"
	 viewBox="0 0 256 256" style="enable-background:new 0 0 256 256;" xml:space="preserve">
<g>
	<g>
		<g>
			<path d="M217.6,86l-2.3-13.2c-1.7-9.7-10.8-16.8-21.7-16.8c-1.5,0-2.9,0.1-4.4,0.4L48,81.3c-12.4,2.2-20.8,13.1-18.8,24.3
				l0.2,0.9v72.6c0,11.9,10.7,21.6,23.9,21.6H206c13.2,0,23.9-9.7,23.9-21.6v-74.2C229.9,96.7,224.9,89.7,217.6,86z M191.4,68.5
				c0.7-0.1,1.5-0.2,2.2-0.2c4.9,0,8.9,2.8,9.6,6.7l1.5,8.3h-96.8L191.4,68.5z M217.6,179.1c0,5.2-5.2,9.4-11.6,9.4H53.2
				c-6.4,0-11.6-4.2-11.6-9.4v-74.3c0-5.2,5.2-9.4,11.6-9.4H206c6.4,0,11.6,4.2,11.6,9.4V179.1z"/>
			<rect x="83.8" y="147.2" width="12.3" height="10.6"/>
			<rect x="83.8" y="168.3" width="12.3" height="10.6"/>
			<rect x="83.8" y="105" width="12.3" height="10.6"/>
			<rect x="83.8" y="126.1" width="12.3" height="10.6"/>
			<path d="M177.3,119.4l-8.9,9.5l-28.2-8.4l-4.8,4.8c-0.5,0.5-0.5,1.4,0,1.9l22.9,12.6l-11.5,11.7l-8.9-1.8l-3,3
				c-0.4,0.4-0.4,1,0,1.4l16.8,16.8c0.4,0.4,1,0.4,1.4,0l3-3l-1.9-9.1l11.7-11.5l12.7,23c0.5,0.5,1.4,0.5,1.9,0l4.8-4.8l-8.5-28.4
				l9.4-8.8c2.6-2.6,2.7-6.7,0.3-9.2C184,116.7,179.9,116.8,177.3,119.4z"/>
		</g>
	</g>
</g>
</svg>
