<?xml version="1.0" encoding="utf-8"?>
<!-- Generator: Adobe Illustrator 21.0.0, SVG Export Plug-In . SVG Version: 6.00 Build 0)  -->
<svg version="1.1" id="Layer_1" xmlns="http://www.w3.org/2000/svg" xmlns:xlink="http://www.w3.org/1999/xlink" x="0px" y="0px"
	 viewBox="0 0 256 256" style="enable-background:new 0 0 256 256;" xml:space="preserve">
<style type="text/css">
	.st0{fill:#030104;}
</style>
<g>
	<g>
		<path class="st0" d="M214.3,60H42c-6.1,0-11.1,5-11.1,11.1v113.9c0,6.1,5,11.1,11.1,11.1h172.3c6.1,0,11.1-5,11.1-11.1V71.1
			C225.4,65,220.4,60,214.3,60z M214,184.8l-171.7,0.3L42,71.4l172-0.3C214,71.1,214,184.8,214,184.8z"/>
		<path class="st0" d="M58.5,112.4l5.8,41.4h14.2l26.4-51.2H90l-11.2,23.8c-1.6,3.4-3,6.4-4.2,9.2c-0.2-2.9-0.5-5.8-0.7-8.6
			l-2.3-24.3H48.9l23.6,18.6L58.5,112.4z"/>
		<polygon class="st0" points="115,153.7 124.7,102.5 111.4,102.5 101.7,153.7 		"/>
		<path class="st0" d="M122.9,150.7c3.1,2.3,8.6,3.7,14.7,3.7c12.6,0,21.1-7.1,21.1-17.7c0-5.8-3.4-10.4-10.3-14
			c-3.9-2.2-6.3-3.6-6.3-5.5c0-1.7,1.8-3.6,6.1-3.6c4.2,0,7.4,1.6,8,2l1.5,0.8l4.3-11.4l-1.1-0.6c-3.2-1.8-7.2-2.6-12.1-2.6
			c-12.1,0-20.5,7.1-20.5,17.2c0,7.3,5.8,11.4,10.8,14.1c4.8,2.5,5.7,3.9,5.7,5.5c0,3.1-3.3,4.2-6.2,4.2c-3.7,0-7.6-1-10.6-2.9
			l-1.5-0.9l-4.5,11.1L122.9,150.7z"/>
		<path class="st0" d="M171.5,153.7l5.7-12.5h11.5l1,12.5h13.9l-6-51.2h-15.5l-24.9,51.2H171.5z M185.4,122.1
			c0.5-1.2,1.1-2.5,1.6-3.8c0.1,1.2,0.2,2.4,0.3,3.3l0.8,8.8h-6.5L185.4,122.1z"/>
	</g>
</g>
</svg>
